<?xml version="1.0" standalone="no"?>
<!DOCTYPE svg PUBLIC "-//W3C//DTD SVG 1.1//EN" "http://www.w3.org/Graphics/SVG/1.1/DTD/svg11.dtd" >
<!--
2013-9-30: Created.
-->
<svg>
<metadata>
Created by iconfont
</metadata>
<defs>

<font id="iconfont" horiz-adv-x="1024" >
  <font-face
    font-family="iconfont"
    font-weight="500"
    font-stretch="normal"
    units-per-em="1024"
    ascent="896"
    descent="-128"
  />
    <missing-glyph />
    
    <glyph glyph-name="laba" unicode="&#58897;" d="M730.04896243 398.22058483c0 74.26305237-50.56207811 139.04571533-121.66500091 159.58655934-12.64051971 3.16012958-22.12090913-4.74019471-25.28103871-15.80064928 0-1.58006513-1.58006513-4.74019471 0-4.74019472 0-9.48038943 4.74019471-18.96077956 14.22058413-22.12090981 64.78266296-18.96077956 104.2842865-85.32350694 85.32350764-151.68623436-12.64051971-42.66175381-44.24181827-72.68298726-85.32350764-85.32350764-9.48038943-3.16012958-15.80064927-12.64051971-14.22058413-22.12090912 0-12.64051971 9.48038943-22.12090913 20.54084399-22.12090914h4.74019472c72.68298726 23.70097427 123.24506605 88.48363722 121.66500091 164.32675473zM658.94604031 671.57182011c-11.06045457 4.74019471-22.12090913 1.58006513-28.44116898-9.48038944-1.58006513-3.16012958-3.16012958-4.74019471-3.16013026-9.48038945 0-7.90032498 4.74019471-15.80064927 12.64051969-18.96077954 131.14539035-64.78266296 184.86759874-221.20909269 121.66500092-352.35448304-25.2810394-52.14214326-67.94279253-94.80389707-121.66500092-120.08493647-7.90032498-4.74019471-12.64051971-11.06045457-12.64051969-18.96077886 0-12.64051971 9.48038943-22.12090913 22.12090912-22.12090914 3.16012958 0 6.32025985 1.58006513 9.48039012 3.16012958 153.26630017 74.26305237 216.46889798 257.55058666 140.6257798 410.81688615-30.02123412 58.4624031-79.0032471 109.0244812-140.6257798 137.4656502zM497.77941517 80.62752995000005c-7.90032498 0-17.38071443 1.58006513-25.28103872 6.32025983l-3.16013026 1.58006514-123.24506538 116.92480621H252.86934889c-30.02123412 0-53.72220839 23.70097427-53.72220839 52.14214323V535.6862350399999c0 28.44116898 23.70097427 52.14214326 53.72220839 52.14214324H346.09318081l123.24506538 116.9248062c17.38071443 9.48038943 37.92155843 9.48038943 55.30227352-1.58006513 15.80064927-9.48038943 26.86110385-26.86110385 26.86110384-44.24181828v-526.16162789c0-17.38071443-9.48038943-33.1813637-25.28103872-44.24181826-7.90032498-4.74019471-17.38071443-7.90032498-28.44116966-7.90032497z m-3.1601296 44.24181894c4.74019471-1.58006513 7.90032498 0 11.06045458 1.58006444 1.58006513 1.58006513 4.74019471 3.16012958 4.74019472 6.32025985V660.51136553c0 3.16012958-3.16012958 6.32025985-4.74019472 6.32025984-3.16012958 1.58006513-6.32025985 3.16012958-11.06045458 1.58006514L369.79415508 548.3267547400001l-6.32025984-1.58006515c-6.32025985-1.58006513-12.64051971-3.16012958-22.12090982-3.16013026H252.86934889c-6.32025985 0-11.06045457-3.16012958-11.06045457-9.48038943V257.59480437c0-4.74019471 4.74019471-9.48038943 11.06045457-9.48039011h88.48363653c9.48038943 0 17.38071443-1.58006513 25.28103939-6.32025918l3.16013027-1.58006512 124.8251305-115.34474107z"  horiz-adv-x="1024" />

    
    <glyph glyph-name="ziyuan" unicode="&#58913;" d="M511.33537234 256.19344976a248.96516547 248.96516547 0 1 0 248.96516547 248.9651655A249.29756221 249.29756221 0 0 0 511.33537234 256.19344976z m0 449.7328024a199.43804992 199.43804992 0 1 1 199.43804992-199.43804992 199.43804992 199.43804992 0 0 1-199.43804992 199.77044667zM191.23730266 13.211425780000013H188.91052543a24.26496264 24.26496264 0 0 0-21.93818543 26.25934314 349.01658682 349.01658682 0 0 0 216.39028411 297.16269404 24.26496264 24.26496264 0 0 0 19.61140817-44.20876758 299.15707451 299.15707451 0 0 1-187.80416371-257.27508418 24.26496264 24.26496264 0 0 0-23.93256591-21.93818542zM831.76583951 13.211425780000013a24.26496264 24.26496264 0 0 0-23.93256591 21.93818542 299.15707451 299.15707451 0 0 1-113.01489527 208.74515887 24.26496264 24.26496264 0 1 0 33.23967487 36.23124561 342.36865184 342.36865184 0 0 0 128.96993921-240.65524676 24.26496264 24.26496264 0 0 0-21.93818542-26.25934314z"  horiz-adv-x="1024" />

    
    <glyph glyph-name="mima" unicode="&#58918;" d="M853.932164 546.283041l-91.221832 0c0 146.51384-111.981287 258.495127-254.702534 258.495127-142.920858 0-254.702534-111.981287-254.702534-258.495127L161.883821 546.283041C161.883821 722.139571 316.980897 896 507.808187 896 698.635478 896 853.932164 722.139571 853.932164 546.283041L853.932164 546.283041zM969.706043 396.375828c0 50.301754-40.920078 91.221832-91.221832 91.221832L147.511891 487.597661c-50.301754 0-91.221832-40.920078-91.221832-91.221832l0-433.153996c0-50.301754 40.920078-91.221832 91.221832-91.221832l730.77271 0c50.301754 0 91.221832 40.920078 91.221832 91.221832L969.506433 396.375828 969.706043 396.375828zM585.25692 57.637427c0-37.726316-30.540351-68.466277-68.466277-68.466277l-9.780897 0c-37.726316 0-68.466277 30.540351-68.466277 68.466277l0 185.637427c0 37.726316 30.540351 68.466277 68.466277 68.466277l9.780897 0c37.726316 0 68.466277-30.540351 68.466277-68.466277L585.25692 57.637427 585.25692 57.637427zM585.25692 57.637427"  horiz-adv-x="1024" />

    
    <glyph glyph-name="yonghu1" unicode="&#58936;" d="M500.3108416 863.00662933c134.0318272 0 242.68020267-106.87464533 242.68020267-238.69394773 0-131.84549973-108.64728427-238.72560213-242.68020267-238.72560213-134.02746133 0-242.6736544 106.8790112-242.6736544 238.72560213C257.636096 756.1625472000001 366.31940053 863.00662933 500.3108416 863.00662933L500.3108416 863.00662933 500.3108416 863.00662933zM500.3108416 863.00662933c134.0318272 0 242.68020267-106.87464533 242.68020267-238.69394773 0-131.84549973-108.64728427-238.72560213-242.68020267-238.72560213-134.02746133 0-242.6736544 106.8790112-242.6736544 238.72560213C257.636096 756.1625472000001 366.31940053 863.00662933 500.3108416 863.00662933L500.3108416 863.00662933 500.3108416 863.00662933zM409.3124512 305.99950827l202.271888 0c173.13576853 0 313.4722528-138.01371627 313.4722528-308.327888l0-19.86360107c0-67.11688-140.36595627-69.66777707-313.4722528-69.66777707L409.3124512-91.85975893c-173.1412256 0-313.4722528 0.09823787-313.4722528 69.66777706l0 19.86360107C95.8423808 167.98579199999995 236.1723168 305.99950827 409.3124512 305.99950827L409.3124512 305.99950827 409.3124512 305.99950827z"  horiz-adv-x="1024" />

    
    <glyph glyph-name="securityCode-b" unicode="&#58893;" d="M963.801169 677.829242a72.850542 72.850542 0 0 1-57.513586 63.903984 1357.959666 1357.959666 0 0 0-185.960594 42.815669A690.80207 690.80207 0 0 0 554.17663 881.682951a76.045741 76.045741 0 0 1-88.826539 0 435.825173 435.825173 0 0 0-167.428438-96.495016 624.341926 624.341926 0 0 0-180.848276-44.732789 67.738223 67.738223 0 0 1-56.874546-63.903984S58.281712 516.152161 58.281712 374.924356c0-255.615937 301.626806-502.924356 452.440208-502.924356s406.42934 174.457877 447.32789 499.090117c10.224637 191.711953 3.195199 306.100085 3.195199 306.100085zM799.567929 480.36593l-315.046642-297.153527a42.815669 42.815669 0 0 0-52.401267-5.112318l-8.307518 7.029438L249.993665 365.977798a42.815669 42.815669 0 0 0 63.903984 58.791666L457.042574 274.595101l283.73369 268.396734a42.815669 42.815669 0 1 0 58.791665-63.903984"  horiz-adv-x="1024" />

    
    <glyph glyph-name="xinfeng" unicode="&#59306;" d="M997.45185185 678.79063703c0-28.5202963-8.8594963-55.82696297-26.57848888-81.79863703-17.71899259-25.97167408-39.80705185-48.1810963-66.14281482-66.62826667-135.80515555-94.29902222-220.27377778-152.91733333-253.52722963-176.09765925-3.64088889-2.54862222-11.28675555-8.13131852-23.05896297-16.50536297-11.77220741-8.49540741-21.48124445-15.4130963-29.24847407-20.6317037s-17.23354075-11.04402963-28.1562074-17.71899259c-11.04402963-6.5536-21.48124445-11.40811852-31.06891853-14.56355557-9.8304-3.2768-18.81125925-4.85451852-27.06394073-4.8545185h-1.21362964c-8.37404445 0-17.3549037 1.57771852-27.06394073 4.8545185-9.8304 3.2768-20.14625185 8.13131852-31.06891853 14.56355557-11.04402963 6.5536-20.38897778 12.37902222-28.1562074 17.71899259-7.76722963 5.21860741-17.59762963 12.1362963-29.24847407 20.6317037-11.77220741 8.37404445-19.41807408 13.95674075-23.05896297 16.50536297-32.768 23.18032592-80.22091852 56.06968889-141.99466666 98.91081481-61.77374815 42.84112592-98.78945185 68.44871111-111.04711112 77.30820741-22.45214815 15.17037037-43.5693037 36.0448-63.35146667 62.50192592-19.90352592 26.33576297-29.85528889 51.09380741-29.85528888 73.78868148 0 28.15620741 7.5245037 51.57925925 22.45214815 70.39051852s36.40888889 28.15620741 64.2010074 28.15620741h797.5973926c23.42305185 0 43.81202963-8.49540741 60.9242074-25.36485926 17.23354075-16.99081482 25.72894815-37.37979259 25.72894815-61.16693334z m0-159.34957036v-430.2317037c0-23.78714075-8.49540741-44.17611852-25.36485926-61.16693334-16.99081482-16.99081482-37.37979259-25.36485925-61.16693334-25.36485926H113.32266667c-23.78714075 0-44.17611852 8.49540741-61.16693334 25.36485926-17.11217778 16.86945185-25.48622222 37.37979259-25.48622222 61.16693334V519.44106667c15.89854815-17.71899259 34.22435555-33.37481482 54.7346963-47.21019259 130.70791111-88.83768889 220.5165037-151.21825185 269.30441481-186.89896297 20.6317037-15.17037037 37.25842963-27.06394075 50.1229037-35.43798519 12.74311111-8.49540741 29.85528889-17.23354075 51.21517038-25.97167407 21.35988148-8.8594963 41.14204445-13.22856297 59.58921481-13.22856296h1.21362964c18.44717037 0 38.22933333 4.49042963 59.5892148 13.22856296 21.35988148 8.8594963 38.3506963 17.59762963 51.21517037 25.97167407 12.74311111 8.37404445 29.4912 20.26761482 50.12290371 35.43798519 61.40965925 44.41884445 151.33961482 106.79940741 269.78986667 186.89896297 20.26761482 14.19946667 38.3506963 29.85528889 53.88515555 47.21019259z"  horiz-adv-x="1024" />

    
    <glyph glyph-name="taishidiannao" unicode="&#58952;" d="M376.20378685 123.91153842999995H180.2236163V644.0884615699999H376.20378685v-520.17692314zM363.5508349 631.43550961H192.87656826v-494.87101922h170.67426664V631.43550961zM332.6213962 444.17181707H224.08718383V601.06842418h108.53421237v-156.89660711zM325.59197799 593.47665322H230.83542517v-141.71306467H325.59197799V593.47665322zM224.08718383 561.9848607199999h108.25303547v-8.15412475H224.08718383zM224.08718383 524.58835759h108.25303547v-8.15412476H224.08718383zM224.08718383 487.47303137h108.25303547v-8.15412477H224.08718383zM224.08718383 410.14943461h108.25303547v-8.15412475H224.08718383zM238.42719613 384.2811769h79.57301089v-8.15412477H238.42719613zM269.63781172 334.23172128h17.15177969v-17.15177967h-17.15177969zM301.6919575 335.91878161h33.74120556v-33.74120557h-33.74120556zM278.35428975 217.82456106999996m-52.29886868 0a52.29886921 52.29886921 0 1 1 104.5977379 0 52.29886921 52.29886921 0 1 1-104.5977379 0ZM278.35428975 217.82456106999996m-43.02003738 0a43.0200374 43.0200374 0 1 1 86.04007478 0 43.0200374 43.0200374 0 1 1-86.04007478 0ZM952.89723005 288.11874013H403.19675163V644.0884615699999h549.70047842v-355.96972145zM937.15133431 628.9049191199999H418.94264735v-325.60263652h518.48986333V628.9049191199999zM908.75248611 350.25879391h-461.12981366V611.47196254h461.12981366v-261.21316863z m-11.24706904 251.37198407H458.5885646v-241.81197536h438.91685247v241.81197536zM811.74651918 335.63760471h35.99061968v-13.49648212h-35.99061968zM872.76186641 335.63760471h35.99061971v-13.49648212h-35.99061971zM718.39584927 167.21275219999995H637.69813238v132.15305645h80.69771689v-132.15305645z m-10.96589162 122.87422463H648.94520091v-113.31421593h58.48475674v113.31421593zM789.25238161 123.91153842999995h-222.12960519v51.7365154h222.12960519V123.91153842999995z m-9.5600082 41.89533033h-203.57194206v-32.33532214h203.57194206v32.33532214zM638.54166255 258.59518486h79.01065709v-7.59177147h-79.01065709zM638.54166255 218.10573796999995h79.01065709v-7.5917715h-79.01065709z"  horiz-adv-x="1560" />

    
    <glyph glyph-name="dianhua1" unicode="&#58964;" d="M360.97592889 304.14316999000005a709.68206222 709.68206222 0 0 1 40.36046734-44.21495466 633.89331911 633.89331911 0 0 1 173.32572843-123.07175311c42.42849223-20.11712512 77.41986133-31.41844423 113.40155335-33.64181333 26.79694222-1.40780999 47.24417422 6.5536 63.44855666 24.26288356l0.60196067 0.64079644c7.37886777 8.73813333 15.00046222 16.43739933 27.25326621 28.01057223 8.68958777 8.34977223 12.85476466 12.46640355 17.73841066 17.74811933 15.466496 16.10729245 15.45678734 33.07868957 0.58254222 47.94322488l-80.52675242 80.53646222c-14.07810333 14.07810333-29.72907179 13.85479623-44.99167801-1.40780998l-65.22531043-65.21560178-25.40855069 13.61206954c-1.00974023 0.54370645-1.94180779 1.01944889-4.17488555 2.15540622a205.76362155 205.76362155 0 0 0-5.04869888 2.5923129c-0.48545223 0.25243534-6.09727488 3.08747378-7.78664846 3.9612871-3.49525333 1.82529934-6.39825579 3.43699911-9.44689266 5.33997-30.18539577 19.07825778-58.0600411 41.51584199-84.7987291 68.25453112a623.05803378 623.05803378 0 0 0-43.13725156 48.05973334c-19.56371001 24.63182734-33.14665245 46.07908978-43.05958001 68.40016554l-11.22364644 25.262914 20.19479666 18.874368a963.96174222 963.96174222 0 0 1 31.86505955 31.38931712l12.28193224 12.28193223c16.16554667 16.16554667 16.22380089 31.94273223 0.40777955 47.76846222l-39.3216 39.3216a659.47663133 659.47663133 0 0 0-13.71886933 13.96159488 679.63259221 679.63259221 0 0 0-6.65068999 6.78661689 585.26075221 585.26075221 0 0 1-6.27203869 6.38854599c-3.88361443 3.88361443-7.11672377 6.99050667-12.9712731 12.49553067l-0.72817778 0.69905066c-14.34024733 14.21403022-30.52521245 14.17519445-45.4771291-0.15534421l-0.38836224-0.37865245-49.95299556-49.95299555c-12.38873088-12.23338667-19.22389333-26.75810645-20.77733888-44.08873757-2.47580445-28.60282311 3.407872-56.95321088 16.01991112-91.45912888 21.56377088-58.9824 54.32206222-113.81904157 103.59542556-173.16067556z m-140.07227734 159.81075001c-9.48572957 25.952256-21.94242333 65.51658155-18.24328021 108.15867221 2.37871445 26.50567111 13.19458133 49.63259733 32.18545778 68.38074824l50.15688533 50.15688533c30.64172089 29.38925511 70.88567979 29.41838222 100.29435222 0.27185265 4.27197667-4.01954133 8.7866789-8.29151801 13.81595932-13.32079843 4.52441088-4.51470222 8.79638755-9.0391131 13.32079958-13.56352512 4.27197667-4.52441088 8.7866789-9.0488229 13.31108977-13.57323378l39.3216-39.3216c31.03979179-31.03979179 30.87473778-71.40025799-0.40777955-102.68277532l-12.28193224-12.29164089a1003.52606777 1003.52606777 0 0 0-32.7971271-32.29225756c8.49540779-19.14622066 20.40839623-37.89437155 37.98175288-60.02126621a582.65873067 582.65873067 0 0 1 40.18570468-44.74895246c24.87455289-24.87455289 50.52582912-45.45771179 78.08007509-62.88543289 4.02924999-2.50493155 8.93231445-4.88364601 14.09752178-7.51479467 3.2719451-1.74762667 6.6798171-3.37874489 9.95176334-5.12637155l44.826624 44.83633379c30.2727771 30.26306845 70.516736 30.8067749 99.91569977 1.40780999l80.53646222-80.53646222c29.90383445-29.90383445 29.99121579-71.03131534-0.02912711-102.30412288a445.43120157 445.43120157 0 0 0-18.874368-18.874368c-9.24300288-8.73813333-17.85491911-17.09761422-25.33087687-26.0881829l-0.75730489-0.75730488c-24.33084643-26.59305245-56.16677888-38.82643911-94.12911445-36.8360869-49.9432869 3.08747378-94.7699109 21.57348067-128.01365334 37.33124778a673.07899221 673.07899221 0 0 0-184.1513051 130.71276601 749.84834845 749.84834845 0 0 0-42.57412778 46.62279509c-52.09869312 62.73979733-87.18715221 121.38238066-110.39175112 184.86006557zM360.17978823 353.68838599000003a19.41807445 19.41807445 0 1 0 31.59320576 22.57351111c28.71933155-40.19541333 64.69131378-76.1576869 106.46930091-106.13919289a19.41807445 19.41807445 0 1 0-22.64147513-31.55436999c-45.2246949 32.45731043-84.22589667 71.45851221-115.42103154 115.12005177z"  horiz-adv-x="1024" />

    
    <glyph glyph-name="huabanfuben" unicode="&#59029;" d="M456.96247259 462.25508926m-325.93884521 0a325.93884521 325.93884521 0 1 1 651.87769043 0 325.93884521 325.93884521 0 1 1-651.87769043 0ZM748.96795874 520.71571866c-36.43371167 0-61.13957849 29.76610418-61.13957932 66.49747751v21.90785256c0 36.73137332 24.70586682 66.49747751 61.13957932 66.49747752s61.13957849-29.76610418 61.13957849-66.49747752v-21.84832039c0-36.73137332-24.70586682-66.55700967-61.13957849-66.55700968zM748.96795874 507.14237421c-42.56552966 0-74.71292212 34.46914939-74.71292295 80.13035412v21.8483204c0 45.66120474 32.08786111 80.1303533 74.71292295 80.1303533s74.71292212-34.46914939 74.71292212-80.1303533v-21.8483204c0-45.66120474-32.14739328-80.1303533-74.71292212-80.13035412z m0 154.78374407c-27.56341324 0-47.62576703-22.26504638-47.62576785-52.92413387v-21.84832041c0-30.65908749 20.00282244-52.92413388 47.62576785-52.92413388s47.62576703 22.26504638 47.62576703 52.92413388v21.96738473c-0.05953216 30.65908749-20.06235461 52.92413388-47.62576703 52.92413388zM810.10753723 475.82843289H674.25503579c-47.62576703 0-70.78379673-48.87594333-77.39187203-62.44928777l-22.50317506-46.19699424 86.55983212-56.55559846v-337.30949706h162.9991887v230.925439h13.03755414a54.47197101 54.47197101 0 0 1 54.65056751 53.93618151V378.07654541c0 55.66261514-39.46985458 97.75188748-81.49959394 97.75188748zM836.65890283 190.66915072999996h-13.03755414v27.14668725h13.03755414a40.95815955 40.95815955 0 0 1 41.31535254 40.48190222V378.07654541c0 50.36424912-35.12400321 84.17854386-67.9262503 84.17854385H674.25503579c-33.8738269 0-53.2217947-30.65908749-64.83057522-53.57898852l-0.71438681-1.36924063c-6.72713965-13.2756828-22.20551422-45.54213958-22.32457855-45.8993334l-24.52727033 11.90644217c0.65485464 1.30970847 15.71650323 32.92131143 22.62223938 46.43512289l0.65485465 1.30970846c8.57263843 16.96667954 34.58821372 68.64063712 89.29831339 68.64063712h135.79296926c51.55489325 0 95.25153488-51.01910293 95.25153489-111.38476328V258.17867588a68.16437978 68.16437978 0 0 0-68.81923362-67.50952515zM674.31456796-26.623412479999956h-27.20621942V319.31825518999995l-43.10131915-49.7093953-20.53861193 17.80013068L674.31456796 392.12614636v-418.74955884zM810.10753723 380.75549450999995h27.14668725v-407.43843914h-27.14668725zM728.60794331 204.24249436000002h27.14668725v-230.86590684h-27.14668725zM348.31619141 520.71571866a67.9262503 67.9262503 0 0 1 67.9262503 66.55700968v21.84832039a67.9262503 67.9262503 0 0 1-135.79296927 0v-21.84832039a67.9262503 67.9262503 0 0 1 67.86671897-66.55700968zM348.31619141 507.14237421a81.91631992 81.91631992 0 0 0-81.4400626 80.13035412v21.8483204a81.49959393 81.49959393 0 0 0 162.99918869 0v-21.8483204a81.91631992 81.91631992 0 0 0-81.55912609-80.13035412z m0 154.78374407a54.35290668 54.35290668 0 0 1-54.29337534-52.92413387v-21.84832041a54.35290668 54.35290668 0 0 1 108.64628201 0v21.96738473a54.35290668 54.35290668 0 0 1-54.35290667 52.92413388zM516.49468179 388.85187478c-19.88375812 27.02762292-49.4712658 87.03608945-113.82558371 87.03609028H294.02281607c-42.20833667 0-95.25153488-38.51733911-95.25153406-95.25153488v-108.52721687c0-30.3018945 37.56482363-67.9262503 67.92625031-67.92625112v-230.86590683h163.11825301V353.43021075l92.39398847-91.6200703a38.6959356 38.6959356 0 0 1 54.76963267 0l16.72855087 16.72855086s-57.38904959 83.40462488-77.21327555 110.31318347zM443.38912897-26.623412479999956h-27.14668726V386.23245786l115.55201816-114.77809919a25.00352766 25.00352766 0 0 1 17.85966202-7.44152645 25.00352766 25.00352766 0 0 1 17.85966285 7.38199429l8.69170276 8.69170276C560.42945209 302.58970432 521.138194 359.38343141999997 505.60028726 380.75549450999995c-2.91707858 3.98865838-5.95322067 8.69170276-9.52515308 13.75194013C477.08435937 423.14242767 450.59252593 462.25508926 402.66909808 462.25508926H294.02281607c-33.21897308 0-81.49959393-31.7306673-81.49959393-81.49959475v-108.6462812c0-22.86036804 31.49253863-54.35290668 54.35290667-54.35290749v-27.14668726c-38.10061395 0-81.49959393 43.3989808-81.49959393 81.49959476V380.75549450999995C185.37653488 442.72852414 242.70605232 489.40177652 294.02281607 489.40177652H402.66909808c62.50881995 0 95.96592087-49.88799097 116.08780766-79.71362815 3.15520725-4.70304438 5.95322067-9.10842792 8.81076708-12.79942547 19.70516162-26.7299621 75.1296481-107.15797623 77.39187204-110.67037647l6.42947799-9.28702441L586.62362387 252.22545520000006a51.97161841 51.97161841 0 0 0-36.96950198-15.29977807A51.97161841 51.97161841 0 0 0 512.80368506 252.22545520000006L443.38912897 320.98515665zM253.24325302 380.75549450999995h27.14668726v-407.43843914H253.24325302zM334.74284696 204.24249436000002h27.14668807v-230.86590684h-27.14668807z"  horiz-adv-x="1024" />

    
    <glyph glyph-name="gantanhao" unicode="&#59013;" d="M512-128C229.232-128 0 101.232 0 384 0 666.768 229.232 896 512 896 794.768 896 1024 666.768 1024 384 1024 101.232 794.768-128 512-128ZM560 656C560 682.512 538.512 704 512 704 485.488 704 464 682.512 464 656L464 304C464 277.488 485.488 256 512 256 538.512 256 560 277.488 560 304L560 656ZM512 160C485.488 160 464 138.512 464 112 464 85.488 485.488 64 512 64 538.512 64 560 85.488 560 112 560 138.512 538.512 160 512 160Z"  horiz-adv-x="1024" />

    
    <glyph glyph-name="duihao2" unicode="&#59038;" d="M0 384C0 666.765241 229.234759 896 512 896s512-229.234759 512-512-229.234759-512-512-512S0 101.234759 0 384z m419.310345-194.630621a35.310345 35.310345 0 0 1 49.399172-1.271172l335.518897 311.931586a35.310345 35.310345 0 0 1-48.075035 51.729655l-309.124413-289.544827-145.125518 149.645241a35.310345 35.310345 0 1 1-50.688-49.169655l168.112552-173.320828z"  horiz-adv-x="1024" />

    
    <glyph glyph-name="guanbi" unicode="&#58884;" d="M512.004382 824.210321c59.425901 0 117.057059-11.665823 171.29815-34.598636 52.446349-22.135151 99.508471-53.941967 139.989873-94.323662 40.481402-40.481402 72.18851-87.543525 94.323661-139.989873 22.932814-54.241091 34.598637-111.872249 34.598637-171.29815 0-59.425901-11.665823-117.057059-34.598637-171.29815-22.135151-52.446349-53.941967-99.508471-94.323661-139.989873-40.481402-40.481402-87.543525-72.18851-139.989873-94.323662-54.241091-22.932814-111.872249-34.598637-171.29815-34.598636s-117.057059 11.665823-171.29815 34.598636c-52.446349 22.135151-99.508471 53.941967-139.989874 94.323662s-72.18851 87.543525-94.323661 139.989873c-22.932814 54.241091-34.598637 111.872249-34.598637 171.29815 0 59.425901 11.665823 117.057059 34.598637 171.29815 22.135151 52.446349 53.941967 99.508471 94.323661 139.989873s87.543525 72.18851 139.989874 94.323662c54.241091 22.932814 111.872249 34.598637 171.29815 34.598636m0 71.789679C229.232814 896 0.004382 666.771568 0.004382 384s229.228432-512 512-512 512 229.228432 512 512S794.775949 896 512.004382 896zM562.755696 384l121.244791 121.244791c14.058812 14.058812 14.058812 36.79221 0 50.751314s-36.79221 14.058812-50.751315 0L512.004382 434.751315 390.759591 555.996105c-14.058812 14.058812-36.79221 14.058812-50.751314 0s-14.058812-36.79221 0-50.751314L461.253067 384 340.008277 262.755209c-14.058812-14.058812-14.058812-36.79221 0-50.751314 6.979552-6.979552 16.152678-10.469328 25.425511-10.469328s18.346251 3.489776 25.425511 10.469328L512.004382 333.248685l121.24479-121.24479c6.979552-6.979552 16.152678-10.469328 25.425512-10.469328s18.346251 3.489776 25.425511 10.469328c14.058812 14.058812 14.058812 36.79221 0 50.751314L562.755696 384z"  horiz-adv-x="1027" />

    
    <glyph glyph-name="shijian1" unicode="&#58944;" d="M511.99912109 12.676171869999962c-48.29150391 0-95.13984375 9.45878906-139.24248047 28.11269532-42.59443359 18.01757813-80.84794922 43.80820312-113.6961914 76.65908203-32.84648438 32.84912109-58.63535156 71.10175781-76.65029297 113.6961914-18.65126953 44.10175781-28.10830078 90.94482422-28.10830078 139.22929688 0 48.28886719 9.45703125 95.13457031 28.10830078 139.23632812 18.01494141 42.5953125 43.80380859 80.84882812 76.65029297 113.69707032 32.84824219 32.84912109 71.10087891 58.63886719 113.6961914 76.6546875 44.10263672 18.65302734 90.95009766 28.1109375 139.24160157 28.1109375 48.28535156 0 95.12841797-9.45791016 139.22929687-28.1109375 42.5953125-18.01582031 80.84794922-43.80556641 113.69794922-76.6546875s58.64150391-71.10175781 76.65820313-113.69707032c18.65478516-44.10175781 28.11269531-90.94746094 28.11269531-139.23632812 0-48.28359375-9.45878906-95.12753906-28.11269531-139.22929688-18.01669922-42.59443359-43.80908203-80.84707031-76.65820313-113.6961914-32.85-32.84912109-71.10263672-58.64150391-113.69794922-76.65908203-44.10087891-18.65478516-90.94306641-28.11269531-139.22841797-28.11269532z m0 706.60722657c-192.3890625 0-348.90820313-156.52001953-348.90820312-348.90908203 0-192.38818359 156.51914063-348.90820313 348.90820312-348.90820313 192.3890625 0 348.90908203 156.52089844 348.90908204 348.90820313 0 192.3890625-156.51914063 348.90908203-348.90908204 348.90908203zM480.96318359 306.86542969000004c-3.15 0-5.71289063 2.41875-5.71289062 5.39208984V569.36835937c0 2.96455078 2.56289063 5.37626953 5.71289062 5.37626954 3.14208984 0 5.69794922-2.41171875 5.69794922-5.37626954v-257.11083984c0-2.97333984-2.55585937-5.39208984-5.69794922-5.39208984zM668.65537109 305.54707031H481.66894531c-2.90742187 0-5.10029297 2.45654297-5.10029297 5.71289063 0 3.24755859 2.19287109 5.69707031 5.10029297 5.69707031h186.98730469c2.87666016 0 5.13017578-2.503125 5.13017578-5.69707031-0.00087891-3.20273437-2.25351562-5.71289063-5.13105469-5.71289063z"  horiz-adv-x="1024" />

    
    <glyph glyph-name="yanjing-" unicode="&#58908;" d="M512 609.19335938c-171.36914063 0-316.74902344-93.99902344-370.86328125-225.00000001 54.11425781-131.00097656 199.49414063-225 370.86328125-224.99999999s316.74902344 93.99902344 370.86328125 224.99999999c-54.11425781 131.00097656-199.49414063 225-370.86328125 225.00000001z m0-393.75000001c-93.19921875 0-168.75 75.55078125-168.75 168.75000001s75.55078125 168.75 168.75 168.74999999 168.75-75.55078125 168.75-168.74999999-75.55078125-168.75-168.75-168.75000001zM512 384.19335938m-112.5 0a112.5 112.5 0 1 1 225 0 112.5 112.5 0 1 1-225 0Z"  horiz-adv-x="1024" />

    
    <glyph glyph-name="daohang-" unicode="&#58982;" d="M129 767m29.76 0l706.48 0q29.76 0 29.76-29.76l0-0.48q0-29.76-29.76-29.76l-706.48 0q-29.76 0-29.76 29.76l0 0.48q0 29.76 29.76 29.76ZM129 414m29.77 0l706.46 0q29.77 0 29.77-29.77l0-0.46q0-29.77-29.77-29.77l-706.46 0q-29.77 0-29.77 29.77l0 0.46q0 29.77 29.77 29.77ZM129 61m29.96 0l706.08 0q29.96 0 29.96-29.96l0-0.08q0-29.96-29.96-29.96l-706.08 0q-29.96 0-29.96 29.96l0 0.08q0 29.96 29.96 29.96Z"  horiz-adv-x="1024" />

    
    <glyph glyph-name="quanxianfuzhi" unicode="&#58923;" d="M74.928386 18.470594l874.143197 0L512.002417 748.960173 74.928386 18.470594zM74.928386 18.470594"  horiz-adv-x="1024" />

    
    <glyph glyph-name="gonggao" unicode="&#58910;" d="M1147.133 435.093l-213.577 0c-24.231 0-43.857-19.731-43.857-44.031l0-13.743c0-24.335 19.627-44.031 43.857-44.031l213.577 0c24.231 0 43.857 19.696 43.857 44.031l0 13.743c0 24.3-19.627 44.031-43.857 44.031zM651.579 812.989c-66.427-52.823-205.443-126.865-305.481-198.035l-0.139-0.069c-1.143-0.693-2.285-4.639-3.427-5.296-11.839-6.646-17.135-25.027-81.381-25.027l-125.343 0c-32.157 0-52.131-15.057-52.131-49.015l0-301.846c0-33.957 18.311-50.711 52.131-50.711l125.861 0c63.935-0.104 69.127-18.346 80.896-24.993 1.143-0.657 2.25-4.604 3.427-5.296l0.139-0.069c96.889-71.169 236.839-150.993 305.481-201.635 20.665-15.265 89.411-42.093 89.411 52.235 0 111.011 0 651.427 0 761.539 0 94.361-69.3 64.211-89.446 48.219zM848.818 604.881c11.354-20.007 33.819-25.027 50.227-11.215l175.569 147.981c16.407 13.811 20.493 41.227 9.173 61.269l-6.439 11.319c-11.319 20.007-33.819 25.027-50.193 11.215l-175.569-147.946c-16.407-13.846-20.527-41.261-9.173-61.269l6.404-11.354zM899.01 173.954c-16.407 13.811-38.873 8.793-50.227-11.181l-6.404-11.319c-11.354-20.007-7.2-47.423 9.173-61.269l175.569-147.946c16.407-13.811 38.873-8.793 50.193 11.181l6.439 11.319c11.319 20.007 7.2 47.423-9.173 61.269l-175.569 147.946z"  horiz-adv-x="1261" />

    
    <glyph glyph-name="lingxing" unicode="&#58926;" d="M512 748.62606812l364.6071167-364.60711671-364.6071167-364.60711669-364.6071167 364.60711669 364.6071167 364.60711671z"  horiz-adv-x="1024" />

    
    <glyph glyph-name="weixinzhifu" unicode="&#59017;" d="M395.846 292.415c-3.921-1.98-7.936-2.925-12.81-2.925-10.9 0-19.791 5.85-24.764 14.625l-2.006 3.864-78.106 167.913c-0.956 1.98-0.956 3.865-0.956 5.845 0 7.83 5.928 13.68 13.863 13.68 2.965 0 5.928-0.944 8.893-2.924l91.965-64.43c6.884-3.864 14.82-6.79 23.708-6.79 4.972 0 9.85 0.945 14.822 2.926L861.71 613.521c-77.149 89.804-204.684 148.384-349.135 148.384-235.371 0-427.242-157.158-427.242-351.294 0-105.368 57.361-201.017 147.323-265.447 6.88-4.905 11.852-13.68 11.852-22.45 0-2.925-0.957-5.85-2.006-8.775-6.881-26.318-18.831-69.334-18.831-71.223-0.958-2.92-2.013-6.79-2.013-10.75 0-7.83 5.929-13.68 13.865-13.68 2.963 0 5.928 0.944 7.935 2.925l92.922 53.674c6.885 3.87 14.82 6.794 22.756 6.794 3.916 0 8.889-0.944 12.81-1.98 43.496-12.644 91.012-19.53 139.48-19.53 235.372 0 427.24 157.158 427.24 351.294 0 58.58-17.78 114.143-48.467 163.003l-491.39-280.07-2.963-1.98z"  horiz-adv-x="1024" />

    
    <glyph glyph-name="jiesuo" unicode="&#58970;" d="M403.93056641 47.32001952999997L476.4921875 186.59765625h0.18632813c-27.62666016 13.20029297-46.71386719 41.4-46.71386719 74.06015625 0 45.30761719 36.72773438 82.03535156 82.03447265 82.03535156 45.30673828 0 82.03535156-36.72773438 82.03535157-82.03535156 0-32.66015625-19.08808594-60.85986328-46.71386719-74.06015625h0.18720703l72.56162109-139.27851563H403.93056641zM826.99648437 455.99912109H276.31689453V522.13769531a70.4390625 70.4390625 0 0 1 0.01669922 8.65371094C277.84091797 659.46240234 382.98007813 763.68222656 512 763.68222656c76.72236328 0 144.99228516-36.8578125 188.05517578-93.78808594l57.37763672 40.65820313C701.60029297 785.42285156 612.36757813 833.99472656 512 833.99472656c-168.73066406 0-305.99560547-137.26669922-305.99560547-305.99648437 0-0.48339844 0.12304688-0.93251953 0.140625-1.40625h-0.140625v-70.5928711h-9c-69.47666016 0-125.99824219-56.52246094-125.99824219-125.99824218v-269.99648438c0-69.47666016 56.52246094-125.99824219 125.99824219-125.99824219h629.99208985c69.47666016 0 125.99824219 56.52246094 125.99824218 125.99824219V330.00087891c0 69.47578125-56.52246094 125.99824219-125.99824218 125.99824218z m55.68574219-395.99560546c0-30.70546875-24.98027344-55.68574219-55.68574219-55.68574219H197.00351563c-30.70546875 0-55.68574219 24.98115234-55.68574219 55.68574218V330.00087891c0 30.70634766 24.98027344 55.68574219 55.68574219 55.68574218h629.99208984c30.70634766 0 55.68574219-24.98027344 55.68574219-55.68574218v-269.99736329z"  horiz-adv-x="1024" />

    
    <glyph glyph-name="shenqing1" unicode="&#58981;" d="M360.597-30.64H210.89c-45.646 0-82.782 37.136-82.782 82.782V715.109c0 45.646 37.136 82.782 82.782 82.782h537.403c45.646 0 82.781-37.136 82.781-82.782v-193.206c0-17.673-14.327-32-32-32s-32 14.327-32 32V715.109c0 10.181-8.601 18.782-18.781 18.782H210.89c-10.181 0-18.782-8.601-18.782-18.782v-662.966c0-10.181 8.601-18.782 18.782-18.782h149.707c17.673 0 32-14.327 32-32s-14.327-32.001-32-32.001zM618.585 571.65H292.35c-17.673 0-32 14.327-32 32s14.327 32 32 32h326.235c17.673 0 32-14.327 32-32s-14.327-32-32-32zM574.587 414.906H292.601c-17.673 0-32 14.327-32 32s14.327 32 32 32h281.986c17.673 0 32-14.327 32-32s-14.327-32-32-32zM482.592 254.915h-188.99c-17.673 0-32 14.327-32 32s14.327 32 32 32h188.99c17.673 0 32-14.327 32-32s-14.327-32-32-32zM453.311-25.976l-3.156 146.626c-5.508 17.409 2.855 35.333 12.959 46.674l263.139 295.372c7.36 8.262 17.431 13.394 28.355 14.45 11.676 1.129 23.359-2.65 32.029-10.374l108.471-96.634c17.425-15.523 18.743-42.595 2.954-60.387l-66.067-74.886c-11.692-13.254-31.915-14.519-45.166-2.826-13.253 11.691-14.519 31.914-2.826 45.166l52.461 59.464-76.253 67.932-246.373-276.553a60.84 60.84 0 0 0 0.272-4.618l1.675-77.806 68.047 7.82a81.528 81.528 0 0 1 3.246 3.442l0.226 0.251 135.027 148.398c11.894 13.07 32.131 14.026 45.205 2.133 13.071-11.895 14.026-32.133 2.133-45.205L634.747 14.182c-3.284-3.678-8.309-8.94-13.809-13.396-12.6-10.207-23.772-12.293-32.53-11.236l-135.097-15.526z m-2.105 143.727a0.203 0.203 0 0 1 0.011-0.026c-0.005 0.008-0.008 0.017-0.011 0.026zM803.003 224.035c-8.355 0-16.701 3.252-22.977 9.725l-98.864 101.965c-12.302 12.688-11.989 32.947 0.699 45.25 12.688 12.3 32.946 11.989 45.249-0.699l98.864-101.965c12.302-12.688 11.989-32.947-0.699-45.25-6.215-6.027-14.248-9.026-22.272-9.026z"  horiz-adv-x="1024" />

    
    <glyph glyph-name="chaxunfuwu" unicode="&#58935;" d="M86.52495781 365.71522558000004s-0.87889922-0.87889922-1.84568818-0.87889921c-25.57596269-22.85137617-27.42165088-61.25926553-5.44917393-86.92311885l208.56275068-238.70898809c28.38843984-31.99192646 68.64201739-50.27302705 110.65339336-50.27302705h312.80018028l54.84330264-54.84330264 193.88513583 189.31486114-138.95394345 138.07504424C763.36513526 318.16678593999995 678.28770459 337.41467549000004 601.47192588 310.87192295l-30.14623828-10.98623847H381.0440375c-32.95871543-0.87889922-58.53467812-28.38843984-57.65577891-61.25926554 2.7245874-32.95871543 29.26733906-58.53467812 62.2260545-57.65577891h112.49908154c10.98623847-1.84568818 19.24788955-10.01944951 20.12678877-20.12678876 1.84568818-12.83192666-7.29486211-23.81816513-20.12678877-25.57596358h-112.49908154c-57.65577891 0-105.20421943 44.82385312-107.92880596 102.47963291v1.84568731L173.36018692 357.54146425c-21.88458721 25.57596269-60.38036631 29.26733906-86.83522911 8.17376134zM268.10550722 571.28971875c-12.83192666 38.23210987-10.01944951 79.27669687 7.91009122 115.39944844 18.01743135 36.21064219 48.95467823 63.19284346 87.18678808 76.02477012s79.27669687 10.01944951 115.39944844-7.91009122c36.21064219-18.01743135 63.19284346-48.95467823 76.02477012-87.18678808 12.83192666-38.23210987 10.01944951-79.27669687-7.91009121-115.39944932s-48.95467823-63.19284346-87.18678897-76.02476924-79.27669687-10.01944951-115.39944844 7.91009122c-36.12275156 18.01743135-63.19284346 48.95467823-76.02476923 87.18678808m-59.94091758-20.12678877c37.79266026-112.32330205 159.34440234-172.70366836 271.57981465-134.91100811s172.70366836 159.34440234 134.91100722 271.57981466-159.2565126 172.70366836-271.57981376 134.9110081-172.70366836-159.34440234-134.91100812-271.57981465zM823.83339131 414.66990381c-7.73431172-15.64440381-26.71853203-22.0603667-42.36293496-14.23816524L587.7611 496.67118721c-15.64440381 7.73431172-22.0603667 26.71853203-14.23816435 42.36293584 7.73431172 15.64440381 26.71853203 22.0603667 42.36293495 14.23816523l193.70935635-96.23944863c7.82220146-3.9550456 13.27137627-10.63467862 15.90807305-18.28110147s2.19724805-16.25963291-1.66990869-24.08183437z"  horiz-adv-x="1024" />

    
    <glyph glyph-name="gaizhang" unicode="&#58883;" d="M385.1 510.6h243.1c20.3 0 20.3-30 0-30H385.1c-20.3 0-20.3 30 0 30z m0-83.9H537c20.3 0 20.3-30 0-30H385.1c-20.3 0-20.3 30 0 30z m0-84h121.5c20.3 0 20.3-30 0-30H385.1c-20.3 0.1-20.3 30 0 30z m349.4-111.2h-22.3l-44 65.3c13.7 6.1 24.6 17 30.7 30.5 13.5 30.3-0.3 65.8-31 79.2-30.7 13.4-66.6-0.3-80.1-30.6-13.6-30.3 0.3-65.8 31-79.2l-42.6-65.2h-24c-8.1 0-15.8-3.2-21.5-8.8-5.7-5.6-8.9-13.2-8.9-21.2v-30c0-8 3.2-15.6 8.9-21.2s13.5-8.8 21.5-8.8h182.4c8.1 0 15.8 3.2 21.5 8.8 5.7 5.6 8.9 13.3 8.9 21.2v30c0 8-3.2 15.6-8.9 21.2-5.8 5.6-13.5 8.8-21.6 8.8zM613 351.6c0 8 3.2 15.6 8.9 21.2s13.5 8.8 21.5 8.8c8.1 0 15.8-3.2 21.5-8.8 5.7-5.6 8.9-13.2 8.9-21.2 0-10.7-5.8-20.6-15.2-26-9.4-5.4-21-5.4-30.4 0-9.4 5.4-15.2 15.3-15.2 26z m30.6-72.4l32.2-47.7h-63.4l31.2 47.7z m0 0M477.2 174.6h-115c-32.5 0-58.9 26.4-58.9 58.9V538.7c0 32.5 26.4 58.9 58.9 58.9h297c32.5 0 58.9-26.4 58.9-58.9v-90.9c0-8.9 7.2-16 16-16 8.7 0 15.8 7.1 15.8 15.8v91.2c0 50.1-40.6 90.7-90.7 90.7h-297c-50.1 0-90.7-40.6-90.7-90.7v-305.2c0-50.1 40.6-90.7 90.7-90.7h116c8.5 0 15.3 6.9 15.3 15.3 0.1 9-7.2 16.4-16.3 16.4zM512-116c-275.7 0-500 224.3-500 500S236.3 884 512 884s500-224.3 500-500-224.3-500-500-500z m0 957.6C259.7 841.6 54.4 636.3 54.4 384S259.7-73.6 512-73.6 969.6 131.7 969.6 384 764.3 841.6 512 841.6z"  horiz-adv-x="1024" />

    
    <glyph glyph-name="biangeng" unicode="&#59078;" d="M737 18.375c-78.75 0-140.625 61.875-140.625 140.625 0 28.125 11.25 61.875 28.125 84.375v-56.25c0-16.875 11.25-28.125 28.125-28.125s28.125 11.25 28.125 28.125v112.5c0 16.875-11.25 28.125-28.125 28.125h-112.5c-16.875 0-28.125-11.25-28.125-28.125s11.25-28.125 28.125-28.125h33.75c-22.5-33.75-33.75-73.125-33.75-112.5 0-106.875 90-196.875 196.875-196.875 16.875 0 28.125 11.25 28.125 28.125s-11.25 28.125-28.125 28.125zM933.875 46.5h-33.75c22.5 33.75 33.75 73.125 33.75 112.5 0 84.375-50.625 157.5-129.375 185.625-22.5 5.625-45 11.25-67.5 11.25-16.875 0-28.125-11.25-28.125-28.125s11.25-28.125 28.125-28.125 33.75 0 45-5.625c56.25-22.5 95.625-73.125 95.625-135 0-28.125-11.25-61.875-28.125-84.375v56.25c0 16.875-11.25 28.125-28.125 28.125s-28.125-11.25-28.125-28.125v-112.5c0-16.875 11.25-28.125 28.125-28.125h112.5c16.875 0 28.125 11.25 28.125 28.125s-11.25 28.125-28.125 28.125zM483.875 46.5H174.5c-33.75 0-56.25 22.5-56.25 56.25V721.5c0 33.75 22.5 56.25 56.25 56.25h506.25c33.75 0 56.25-22.5 56.25-56.25v-253.125c0-16.875 11.25-28.125 28.125-28.125s28.125 11.25 28.125 28.125V721.5c0 61.875-50.625 112.5-112.5 112.5H174.5C112.625 834 62 783.375 62 721.5v-618.75c0-61.875 50.625-112.5 112.5-112.5h309.375c16.875 0 28.125 11.25 28.125 28.125s-11.25 28.125-28.125 28.125zM624.5 580.875c0 16.875-11.25 28.125-28.125 28.125h-337.5c-16.875 0-28.125-11.25-28.125-28.125s11.25-28.125 28.125-28.125h337.5c16.875 0 28.125 11.25 28.125 28.125zM258.875 440.25c-16.875 0-28.125-11.25-28.125-28.125s11.25-28.125 28.125-28.125h168.75c16.875 0 28.125 11.25 28.125 28.125S444.5 440.25 427.625 440.25h-168.75z"  horiz-adv-x="1024" />

    
    <glyph glyph-name="yanqishenlishenhe-sel" unicode="&#58985;" d="M512-34.909091c-231.005091 0-418.909091 187.904-418.909091 418.909091s187.904 418.909091 418.909091 418.909091c91.973818 0 176.779636-30.068364 245.853091-80.523636l-43.473455-43.380364a15.406545 15.406545 0 0 1 10.146909-26.298182l147.595637-7.773091a15.36 15.36 0 0 1 16.197818 16.151273l-7.819636 147.642182a15.453091 15.453091 0 0 1-26.298182 10.100363l-43.426909-43.426909A488.634182 488.634182 0 0 1 512 876.776727C239.848727 876.776727 19.223273 656.151273 19.223273 384c0-272.151273 220.625455-492.823273 492.776727-492.823273 18.245818 0 36.305455 1.210182 54.132364 3.118546l-13.637819 72.797091a447.301818 447.301818 0 0 0-40.494545-1.954909zM767.627636 52.922182l40.029091-62.510546a497.477818 497.477818 0 0 1 83.502546 78.894546l-60.834909 43.194182a423.098182 423.098182 0 0 0-62.696728-59.578182zM1002.914909 420.957091l-73.355636-11.124364c0.558545-8.564364 1.303273-17.035636 1.303272-25.832727 0-20.666182-1.954909-40.820364-4.933818-60.602182l72.052364-17.175273c4.049455 25.413818 6.702545 51.246545 6.702545 77.777455 0.139636 12.427636-0.884364 24.669091-1.768727 36.957091zM992.023273 493.986909a492.078545 492.078545 0 0 1-38.632728 108.125091l-63.860363-37.701818c12.427636-25.879273 22.202182-53.061818 29.137454-81.454546l73.355637 11.031273zM625.105455-18.944l13.637818-72.797091c37.469091 10.007273 73.448727 23.738182 107.008 41.797818l-40.168728 62.836364a421.469091 421.469091 0 0 0-80.523636-31.837091zM873.146182 172.776727l60.509091-43.008c19.688727 32.674909 36.072727 67.490909 47.848727 104.401455l-72.424727 17.268363c-9.309091-27.601455-21.410909-53.899636-35.933091-78.661818zM517.585455 616.727273a130.513455 130.513455 0 0 0 128.977454-150.248728c-1.908364-12.753455-3.537455-22.248727-4.840727-28.485818-2.373818-11.310545-5.818182-22.202182-10.286546-32.674909a178.734545 178.734545 0 0 1-14.568727-70.609454v-75.450182H418.304v62.324363a178.734545 178.734545 0 0 1-10.845091 61.253819c-3.909818 10.705455-8.564364 29.044364-13.963636 55.156363a1309.882182 1309.882182 0 0 0-4.654546 23.272728A131.025455 131.025455 0 0 0 517.585455 616.727273zM755.898182 199.68a59.578182 59.578182 0 0 0-59.578182-59.578182H338.850909A59.578182 59.578182 0 0 0 279.272727 199.68h476.625455zM279.272727 259.258182c0 32.907636 26.670545 59.578182 59.578182 59.578182h357.469091c32.907636 0 59.578182-26.670545 59.578182-59.578182v-29.789091H279.272727v29.789091z"  horiz-adv-x="1024" />

    
    <glyph glyph-name="kefurexian" unicode="&#58914;" d="M878.8420096 262.05988636999996c-38.32510009 0-69.3884928 29.73027442-69.3884928 66.39858232l0 113.80052651c0 22.41267939 11.68719417 42.13234461 29.45200811 54.16300544-39.78978304 135.85343943-170.89988494 235.70454755-326.90610745 235.70454755-156.02485134 0-287.13611719-99.85110813-326.92473629-235.70454755 17.76364999-12.02134585 29.45200811-31.7491621 29.45200811-54.16300544l0-113.80052651c0-27.40401266-17.35731086-50.90414365-42.12303075-61.04515356 43.23376811-92.28551851 126.83131677-163.77672818 229.74917859-193.93429846 10.96649501 26.27581042 48.45912405 45.73467421 93.41721373 45.73467421 53.55175139 0 96.98927047-27.47037696 96.98927046-61.35019975 0-33.88797155-43.43752021-61.3595136-96.98927046-61.3595136-44.73454478 0-82.02458681 19.26442553-93.21346162 45.32717113-119.14464142 31.83415523-216.0419328 113.86689195-263.16561067 220.81204907-35.50983509 2.9293659-63.46223047 31.09366329-63.46223047 65.81527096l0 113.80052651c0 28.41578496 18.74631453 52.47710663 44.97438948 61.94399005 44.27231915 165.97258809 202.40920235 288.9780315 391.29628102 288.9780315 188.86845099 0 347.02396189-123.00544341 391.27648826-288.9780315 26.2292389-9.46688341 44.99418226-33.52820509 44.99418225-61.94399005l0-113.80052651C948.27008797 291.79132473000004 917.18690361 262.05988636999996 878.8420096 262.05988636999996zM334.13472029 471.60155933c0 25.37697507 21.78279651 45.94657621 48.64308337 45.94657621 26.87775175 0 48.64308338-20.56960114 48.64308338-45.94657621 0-25.35951019-21.76533163-45.93027527-48.64308338-45.93027528C355.91751566 425.67128405 334.13472029 446.24204914 334.13472029 471.60155933zM366.36706361 267.03491869000004l0 35.935967 8.4830538 0c32.60142592-37.45537138 81.93027869-61.32225593 137.14930005-61.32225593 55.20155648 0 104.5292453 23.86688455 137.13067121 61.32225593l8.50168264 0 0-35.935967c-37.74993863-34.6121637-88.98707115-56.02471367-145.63235385-56.02471368C455.33434197 211.01020501000005 404.09953849 232.42275613000004 366.36706361 267.03491869000004zM592.55815737 471.60155933c0 25.37697507 21.76649557 45.94657621 48.64424732 45.94657621 26.85912291 0 48.64191829-20.56960114 48.6419183-45.94657621 0-25.35951019-21.78279651-45.93027527-48.6419183-45.93027528C614.32581689 425.67128405 592.55815737 446.24204914 592.55815737 471.60155933z"  horiz-adv-x="1024" />

    
    <glyph glyph-name="hezuo" unicode="&#58939;" d="M962 552.75c5.625 67.5-22.5 129.375-78.75 185.625-163.125 163.125-337.5 0-343.125 0L506.375 699 489.5 721.5C483.875 721.5 410.75 800.25 303.875 800.25c0 0 0 0 0 0C242 800.25 185.75 772.125 129.5 721.5 84.5 676.5 62 620.25 62 564c0-112.5 90-208.125 118.125-236.25L163.25 305.25C140.75 277.125 146.375 232.125 174.5 204c11.25-11.25 28.125-16.875 45-16.875 0 0 5.625 0 5.625 0 0-22.5 11.25-39.375 28.125-50.625 11.25-11.25 28.125-16.875 45-16.875 0 0 5.625 0 5.625 0 0 0 0-5.625 0-5.625 0-16.875 11.25-33.75 28.125-45 11.25-11.25 28.125-16.875 45-16.875 0 0 5.625 0 5.625 0 0 0 0 0 5.625 0 0-16.875 11.25-33.75 28.125-45 11.25-11.25 28.125-16.875 45-16.875 16.875 0 28.125 5.625 39.375 11.25L512-15.375c11.25-16.875 33.75-22.5 50.625-22.5 0 0 0 0 0 0 16.875 0 39.375 5.625 50.625 22.5 16.875 11.25 22.5 33.75 22.5 50.625 0 0 0 5.625 0 5.625 0 0 0 0 5.625 0 0 0 0 0 0 0 16.875 0 39.375 5.625 50.625 22.5 16.875 11.25 22.5 33.75 22.5 50.625 0 0 0 5.625 0 5.625 0 0 0 0 0 0 0 0 0 0 0 0 16.875 0 39.375 5.625 50.625 22.5 16.875 11.25 22.5 33.75 22.5 50.625 0 0 0 5.625 0 5.625 0 0 0 0 5.625 0 16.875 0 39.375 5.625 50.625 22.5 16.875 11.25 22.5 33.75 22.5 50.625 0 22.5-5.625 39.375-22.5 56.25l-11.25 11.25C894.5 378.375 956.375 457.125 962 552.75zM568.25 710.25c5.625 5.625 151.875 135 286.875 0C905.75 659.625 928.25 609 922.625 552.75c-5.625-78.75-56.25-146.25-95.625-185.625l-185.625 191.25-11.25-16.875C624.5 547.125 534.5 440.25 433.25 440.25c0 0 0 0 0 0C399.5 440.25 371.375 451.5 343.25 479.625L568.25 710.25zM202.625 237.75c-11.25 11.25-16.875 33.75-5.625 45L275.75 384C281.375 389.625 287 395.25 298.25 395.25c11.25 0 16.875 0 22.5-5.625s11.25-11.25 11.25-22.5c0-5.625 0-11.25-5.625-16.875-5.625 0-5.625-5.625-11.25-11.25l-84.375-101.25c0 0 0 0 0 0C225.125 226.5 208.25 226.5 202.625 237.75zM275.75 170.25c-11.25 11.25-16.875 28.125-5.625 39.375 0 0 5.625 5.625 5.625 5.625l84.375 101.25c0 0 0 0 0 5.625C360.125 322.125 365.75 327.75 371.375 327.75c11.25 0 16.875 0 22.5-5.625 5.625-5.625 11.25-11.25 11.25-22.5 0-5.625 0-16.875-5.625-22.5C399.5 277.125 399.5 271.5 393.875 271.5l-84.375-101.25c0 0 0 0 0 0-5.625-5.625-11.25-5.625-16.875-5.625C287 159 281.375 164.625 275.75 170.25zM371.375 91.5c-11.25 0-16.875 0-22.5 5.625C343.25 102.75 337.625 114 337.625 119.625c0 5.625 0 16.875 5.625 22.5 0 0 5.625 5.625 5.625 5.625l84.375 101.25c0 0 0 0 0 0 5.625 5.625 11.25 5.625 16.875 5.625 0 0 0 0 5.625 0 5.625 0 16.875 0 22.5-5.625 11.25-11.25 16.875-28.125 5.625-39.375 0 0 0 0 0 0l-84.375-101.25c0 0 0-5.625-5.625-5.625C382.625 97.125 377 91.5 371.375 91.5zM427.625 40.875c-5.625 5.625-11.25 11.25-11.25 22.5 0 5.625 0 11.25 5.625 16.875 0 0 0 0 0 0l84.375 101.25c0 0 0 5.625 5.625 5.625 5.625 5.625 11.25 11.25 22.5 11.25 5.625 0 11.25 0 22.5-5.625 5.625-5.625 11.25-11.25 11.25-22.5 0-11.25 0-16.875-5.625-22.5L472.625 46.5C461.375 29.625 444.5 29.625 427.625 40.875zM596.375 7.125c-5.625-5.625-16.875-11.25-28.125-11.25-11.25 0-16.875 5.625-28.125 11.25l-22.5 28.125 45 56.25 33.75-33.75c5.625-5.625 11.25-16.875 11.25-28.125C607.625 24 602 12.75 596.375 7.125zM832.625 249c-11.25-11.25-33.75-11.25-45-5.625 0 0 0 5.625-5.625 5.625L658.25 384c0 0-5.625 5.625-11.25 5.625-5.625 5.625-16.875 0-22.5-5.625-5.625-5.625-5.625-16.875 0-28.125l129.375-135c0 0 5.625-5.625 5.625-5.625 11.25-16.875 5.625-33.75-5.625-45-11.25-11.25-33.75-11.25-50.625 0 0 0 0 0 0 0L579.5 305.25c0 0-5.625 5.625-5.625 5.625-5.625 5.625-16.875 5.625-22.5 0-5.625-5.625-5.625-16.875 0-28.125l129.375-135c0 0 0 0 5.625-5.625 5.625-5.625 11.25-16.875 11.25-28.125 0-11.25-5.625-16.875-11.25-28.125-5.625-5.625-16.875-11.25-28.125-11.25-11.25 0-16.875 5.625-28.125 11.25l-33.75 33.75c11.25 11.25 11.25 28.125 11.25 45 0 16.875-11.25 33.75-28.125 45-16.875 11.25-33.75 16.875-56.25 16.875 0 16.875-11.25 33.75-28.125 45C478.25 294 461.375 299.625 444.5 294c0 0 0 5.625 0 5.625 0 16.875-11.25 33.75-28.125 45C405.125 361.5 388.25 367.125 371.375 367.125c0 0 0 5.625 0 5.625 0 16.875-11.25 33.75-28.125 45S315.125 434.625 292.625 434.625c-16.875 0-33.75-11.25-45-28.125L202.625 355.875C174.5 384 101.375 468.375 101.375 564c0 50.625 16.875 90 56.25 129.375 45 45 95.625 67.5 146.25 67.5 90 0 151.875-67.5 151.875-67.5l16.875-22.5L287 479.625l11.25-11.25c39.375-45 84.375-67.5 135-67.5 0 0 0 0 0 0 90 0 174.375 73.125 208.125 106.875L703.25 440.25c0 0 0-5.625 5.625-5.625l129.375-135C843.875 294 849.5 282.75 849.5 271.5 843.875 265.875 843.875 254.625 832.625 249z"  horiz-adv-x="1025" />

    
    <glyph glyph-name="zixun" unicode="&#58977;" d="M792.91583467 322.20540372999994c21.3360704 42.10891413 32.15309973 86.8898848 32.15309973 133.09638934 0 46.1901312-10.81921173 90.95909547-32.15309973 133.06146026-20.42792107 40.31444373-49.5771392 76.44069973-86.63992427 107.37783894-75.34917333 62.89703787-175.26642773 97.53554347-281.3464416 97.53554346-106.0778304 0-205.9929024-34.6385056-281.34207573-97.53554346-37.06278613-30.9371392-66.21200427-67.0633952-86.63992427-107.37783894-21.333888-42.1023648-32.15200747-86.871328-32.15200747-133.07565013 0.04911893-81.93326187 35.09258027-160.8833824 98.69365334-222.40400427 1.2399744-2.35551467 7.72691733-17.5495648 6.19987093-75.16143146-0.8994176-33.91918933-4.15762453-64.83122347-4.20674347-65.29512214l-5.4019648-50.5638784 42.54989014 27.8470272c0.2663328 0.17464427 26.95743253 17.6128736 57.22219093 34.77494614 50.01484053 28.36331947 67.19546987 31.85183787 70.80405653 32.27753386 42.99850773-12.91494293 88.1626048-19.4630112 134.27196267-19.4630112 106.0876544 0 206.0049088 34.63413973 281.3464416 97.5224448C743.33869547 245.75706347000005 772.49009707 281.88659413000005 792.91583467 322.20540372999994zM424.92946773 165.48183040000004c-41.96155733 0-82.99095147 6.0197696-121.94535253 17.8901216-3.5518272 1.08279467-7.4442112 1.63183253-11.5723648 1.63183253-12.6933632 0-35.01071573-4.39339413-95.41907307-38.6596896-6.5873632-3.73738667-12.9727936-7.46058453-18.96745813-11.02223573 0.41368853 8.0729312 0.75097067 16.70690667 0.9321632 25.5264416 1.5390528 74.743376-9.44061333 95.57843627-20.38098453 106.0985696-54.51193067 52.45331093-84.55729173 119.3497024-84.59877014 188.35492373 0 159.7929472 157.88495787 289.7926752 351.9507488 289.7926752 194.0690656 0 351.95620693-130.0008192 351.95620694-289.7926752C776.88676587 295.49356479999994 618.99853333 165.48183040000004 424.92946773 165.48183040000004zM996.7136768 390.11036587c0 48.44195093-11.85507093 95.20731733-35.23993707 138.99718186-22.38502827 41.91789653-54.14954347 78.97959147-94.41268586 110.15686614-10.52122453 8.14497173-25.65087573 6.22061013-33.79693867-4.298432s-6.22061013-25.65196693 4.298432-33.79802987c34.85681067-26.99017813 62.24648853-58.8703968 81.41042133-94.75651627 19.61582507-36.73096213 29.5607232-75.86109973 29.5607232-116.28687893-0.04038613-69.01831893-30.084656-135.91689387-84.58458026-188.35492373-10.94910293-10.51685867-21.9353184-31.3453696-20.39626667-106.08983787 0.1811936-8.81626027 0.52065813-17.44914453 0.9321632-25.52098347-7.49987947 4.45561173-15.614288 9.1644576-23.96228373 13.83400854-20.15285547 11.26673813-37.52341013 19.95310613-51.63466667 25.81787946-23.10543573 9.60106773-38.1695936 12.11048747-50.36194667 8.39056534-38.93038827-11.8714432-79.95869013-17.8901216-121.94426133-17.8901216-20.45084267 0-40.95189547 1.46046293-60.93119893 4.3410016-13.1659936 1.89489067-25.38235947-7.23791253-27.281616-20.4060896-1.89707307-13.16817707 7.23791253-25.38345173 20.4060896-27.281616 22.24858667-3.2079968 45.06149333-4.8354624 67.80672426-4.8354624 46.13228053 0 91.30074347 6.54915947 134.27523734 19.4641024 3.6140448-0.4267872 20.79249067-3.9142144 70.80405653-32.2742592 30.26257493-17.16207253 56.95149227-34.59921067 57.21782507-34.77385494l42.5520736-27.85030186-5.4019648 50.56715306c-0.0338368 0.30562773-3.283312 31.01027093-4.20019414 64.99167787-1.55869973 57.83235413 4.94352427 73.0733408 6.18677334 75.43431253C961.62109653 229.20515307000005 996.66674133 308.1563648 996.7136768 390.11036587zM232.81532693 506.80001813c-25.4085568-0.14189867-45.9227072-20.84706667-45.82883626-46.25344 0.1408064-25.40637333 20.843792-45.95108693 46.2512576-45.82992746 25.4085568 0.11461013 45.9227072 20.79467307 45.82883626 46.25344C278.97380373 486.3557248 258.22388267 506.91462827 232.81532693 506.80001813zM425.777584 506.80001813c-25.40746453-0.14189867-45.97182613-20.84706667-45.82992747-46.25344 0.0949632-25.40637333 20.79794773-45.95108693 46.20650454-45.82992746 25.4085568 0.11461013 45.92489067 20.79467307 45.82992746 46.25344C471.8902176 486.3557248 451.1850496 506.91462827 425.777584 506.80001813zM608.86152533 506.80001813c-25.40746453-0.14189867-45.9227072-20.84706667-45.82883626-46.25344 0.1408064-25.40637333 20.79685653-45.95108693 46.20650453-45.82992746 25.45440107 0.11461013 45.96964373 20.79467307 45.82883627 46.25344C654.97415893 486.3557248 634.26899093 506.91462827 608.86152533 506.80001813z"  horiz-adv-x="1024" />

    
    <glyph glyph-name="dizhi" unicode="&#58896;" d="M511.38773333-89.23733332999996c-31.81226667 0-366.08426667 376.00426667-366.08426666 578.18026666 0 202.17066667 163.88693333 366.08426667 366.08426666 366.08426667S877.472 691.13813333 877.472 488.94293333c0-202.19733333-335.89866667-578.1792-366.08426667-578.1792z m0 897.02613333c-176.096 0-318.84586667-142.77013333-318.84586666-318.84586667 0-176.1216 309.92-530.94613333 318.84586666-530.94613333 4.10986667 0 318.8512 354.82453333 318.8512 530.94613333 0 176.07573333-142.74986667 318.84586667-318.8512 318.84586667z m0-448.74773333c-71.72693333 0-129.90186667 58.1696-129.90186666 129.90186666 0 71.72586667 58.176 129.90186667 129.90186666 129.90186667 71.73226667 0 129.90186667-58.176 129.90186667-129.90186667 0-71.73226667-58.1696-129.90186667-129.90186667-129.90186666z m0 212.56533333c-45.65333333 0-82.66346667-37.03146667-82.66346666-82.66346667 0-45.67786667 37.01013333-82.66453333 82.66346666-82.66453333 45.65653333 0 82.66346667 36.98666667 82.66346667 82.66453333 0 45.632-37.00693333 82.66346667-82.66346667 82.66346667z m0 0"  horiz-adv-x="1024" />

    
    <glyph glyph-name="shijian" unicode="&#58907;" d="M511.3-63.5c-60.4 0-119 11.8-174.1 35.2-53.3 22.5-101.1 54.8-142.2 95.9-41.1 41.1-73.3 88.9-95.9 142.2C75.8 264.9 64 323.5 64 383.9c0 87.8 25.4 172.8 73.5 245.8 7.6 11.5 23.1 14.7 34.6 7.1s14.7-23.1 7.1-34.6C136.5 537.4 114 461.9 114 383.9c0-219.1 178.3-397.4 397.4-397.4 219.1 0 397.4 178.3 397.4 397.4 0 219.1-178.3 397.4-397.4 397.4C440 781.2 370 762.1 309 726c-11.9-7-27.2-3.1-34.3 8.8-7 11.9-3.1 27.2 8.8 34.3C352.3 809.7 431 831.2 511.3 831.2c60.4 0 119-11.8 174.1-35.2 53.3-22.5 101.1-54.8 142.2-95.9 41.1-41.1 73.3-88.9 95.9-142.2 23.3-55.2 35.2-113.8 35.2-174.1 0-60.4-11.8-119-35.2-174.1-22.5-53.3-54.8-101.1-95.9-142.2s-88.9-73.3-142.2-95.9c-55.1-23.3-113.7-35.1-174.1-35.1zM671.5 227.8c-5.6 0-11.2 1.9-15.8 5.7l-160.2 131c-5.8 4.7-9.2 11.9-9.2 19.3V575.2c0 13.8 11.2 25 25 25s25-11.2 25-25v-179.4l151-123.6c10.7-8.7 12.3-24.5 3.5-35.2-4.8-6.1-12-9.2-19.3-9.2z"  horiz-adv-x="1024" />

    
    <glyph glyph-name="jishufuwushang" unicode="&#58984;" d="M450.65100693 832.12751661c33.74496651 3.47315449 68.27516807-0.55369161 100.23825499-11.98993273 36.58389258-13.02684521 69.70469766-35.60738291 95.21476523-64.89261737 26.3456376-30.05033555 44.58724805-67.15771787 52.1275166-106.41946289 8.09396016-41.70805401 4.40939619-85.69127549-10.88255039-125.36577247-13.75167744-35.95973115-36.83557089-68.2550332-66.31208086-92.9999997-29.26510049-24.63422783-64.78187959-41.80872481-102.34228183-49.14765088-45.19127549-8.95973115-93.0906044-3.98657724-135.33221426 14.47650966-47.13422783 20.38590615-86.89932862 57.20134219-110.84899394 102.61409415-19.52013428 36.62416143-28.54026826 78.66442969-26.0738253 120.07047041 2.1442957 38.58724863 14.38590586 76.56040283 35.20469795 109.11744931 20.34563731 31.97315479 48.76510078 58.77181231 81.90604072 77.15436241 26.78859053 14.87919463 56.59731563 24.30201357 87.10067109 27.38255009m8.75838867-39.63422813c-48.15100635-3.57382529-94.38926133-26.86912734-126.12080478-63.23154345-23.22483223-26.20469795-38.90939589-59.06375859-44.47651025-93.64429512-6.39261739-38.50671182-0.44295293-79.03691279 17.12416113-113.93959746 21.90604043-44.50671123 62.19463096-79.48993271 109.32885879-94.96308691 38.43624199-12.77516777 81.03020098-12.62416113 119.36577217 0.4832209 36.06040283 12.24161104 68.14429541 35.76845654 90.74496621 66.41275165 21.23154404 28.57047012 34.0268458 63.31208028 36.34228212 98.83892637 2.51677881 36.13087266-5.74832197 72.91610771-23.5268455 104.46644268-18.74496621 33.43288623-47.92952989 60.88590615-82.44966445 77.53691337-29.75838926 14.42617471-63.3825501 20.67785244-96.33221544 18.04026797zM397.89932891 333.99664424c86.37583887 16.66107422 178.12751661 4.30872451 256.77181231-35.21476494-29.08389287-19.79194658-53.18456396-46.88255039-69.25167774-78.20134278-16.70134219-32.28523506-24.70469766-68.96979844-23.13422842-105.28187871 1.4093956-37.23825498 13.06711406-74.00335606 33.27181171-105.31208057 20.60738262-32.14429541 50.13422842-58.42953018 84.34228185-75.38255068H69.9630875C69.75167802-21.724832229999947 76.48657753 21.99664395000002 90.18791914 63.473154489999956c22.8724831 69.81543633 65.40604013 132.97650997 121.25838955 180.67449639 52.9530205 45.44295293 117.86577187 76.8724831 186.45302022 89.84899336m-49.75167832-55.38926163c-60.8456373-22.29865752-115.16778545-61.56040253-156.12080538-111.70469794-44.68791972-54.34228213-72.81543604-122.02348974-79.84228183-192.03020157h458.3355706c-17.6174499 23.96979844-30.96644326 51.08053711-39.06040254 79.71140919-12.12080537 42.51342305-12.81543662 88.22818828-1.98322118 131.08389258 9.16107363 36.47315479 26.74832256 70.76174502 50.83892578 99.63422841-75.39261768 22.94295293-158.23489922 20.60738262-232.16778546-6.69463067zM766.44630898 305.07382587999996c38.17449668 1.54026826 76.68120762-9.51342276 108.26174444-31.01677911 26.08389229-17.67785273 47.45637597-42.25167773 61.25838926-70.58053651 23.1543624-46.85234941 24.34228154-103.83221513 3.31208086-151.66107422-14.42617471-33.26174472-39.11073838-61.9630875-69.86577217-81.17114063-36.03020098-22.90268496-80.38590645-32.08389258-122.57718047-25.791946-33.0906041 4.73154346-64.72147676 19.0268455-90.24161133 40.6006708-24.33221455 20.38590615-43.15771846 47.29530234-53.85906035 77.18456338-13.05704707 35.97986602-14.17449638 76.1275169-3.30201299 112.81208115 9.1006708 30.95637627 26.72818769 59.33557089 50.40603984 81.24161045 31.37919434 29.44630898 73.60067109 46.9731542 116.60738291 48.38255069m-0.85570487-40.36912822c-29.04362402-1.44966445-57.4630875-12.32214785-80.14429513-30.49328848-24.49328818-19.46979844-42.27181172-47.28523447-49.36912734-77.78859082-8.69798672-36.20134248-2.19463067-75.77516777 17.80872451-107.19463008 17.3456376-27.73489922 44.63758388-49.08724805 75.76510078-59.1543624 31.27852354-10.21812099 66.13087237-8.98993301 96.573825 3.51342246 26.97986602 10.98322119 50.33557089 30.57382529 65.89932891 55.18791914 18.54362373 28.91275137 25.72147617 64.80201357 19.91275225 98.64765088-5.51677852 33.91610713-24.24161074 65.32550332-51.08053711 86.70805401-26.6174499 21.44295263-61.24832227 32.54697949-95.36577187 30.57382529zM764.73489922 208.53020098000002c8.05369131 2.97986573 17.59731503 1.41946347 24.26174473-4.01677822 5.95973144-4.71140947 9.51342276-12.22147617 9.45302079-19.81208057 0.05033584-20.05369102 0-40.10738291 0.03020099-60.15100693 12.61409414-12.62416113 25.22818828-25.23825527 37.84228154-37.86241553 3.92617441-3.90604043 8.28523477-7.73154404 10.26845683-13.06711406 3.71476494-8.88926133 1.68120791-19.82214756-5.03355673-26.74832257-7.05704677-7.72147617-19.15771816-10.06711435-28.62080596-5.64765117-4.72147646 1.94295323-8.1644291 5.8187918-11.67785245 9.35234913-9.3724831 9.36241612-18.72483223 18.73489922-28.10738232 28.08724834-11.03355703-10.9731542-21.95637627-22.06711406-33.06040224-32.96979844-9.34228213-8.95973115-25.60067138-8.57718106-34.58053741 0.73489922-9.69463125 9.12080566-9.90603984 25.9731545-0.42281894 35.31543662 14.28523506 14.3355709 28.56040224 28.68120791 42.95637597 42.90604013 0.21140948 17.64765088 0.03020097 35.29530175 0.09060381 52.93288565 0.07046982 4.71140947-0.41275195 9.52348974 0.9362417 14.10402656 2.07382588 7.71140918 8.14429511 14.17449638 15.66442969 16.84228183z"  horiz-adv-x="1024" />

    
    <glyph glyph-name="xiangyoushuangjiantou" unicode="&#59147;" d="M474.8432-22.257600000000025l372.96 372.96c18.72 18.72 18.768 49.0368 0.1008 67.704L476.1056 790.2048c-9.3312 9.336-9.312 24.4896 0.0528 33.8544 9.36 9.36 24.5184 9.384 33.8544 0.048l371.7984-371.7936c37.3344-37.3392 37.2384-97.9632-0.2112-135.4128l-372.96-372.96c-9.36-9.36-24.5184-9.384-33.8496-0.048-9.336 9.3312-9.312 24.4848 0.048 33.8496z m-354.8256 0l372.96 372.96c18.72 18.72 18.768 49.0368 0.1008 67.704L121.28 790.2048c-9.3312 9.336-9.312 24.4896 0.0528 33.8544 9.36 9.36 24.5184 9.384 33.8544 0.048l371.7984-371.7936c37.3344-37.3392 37.2384-97.9632-0.2112-135.4128l-372.96-372.96c-9.36-9.36-24.5184-9.384-33.8496-0.048-9.336 9.3312-9.312 24.4848 0.048 33.8496z"  horiz-adv-x="1024" />

    
    <glyph glyph-name="iconset0417" unicode="&#59176;" d="M917.333333 597.333333c-6.4 0-10.666667-2.133333-14.933333-6.4L512 221.866667 121.6 590.933333C117.333333 595.2 113.066667 597.333333 106.666667 597.333333c-12.8 0-21.333333-8.533333-21.333333-21.333333 0-6.4 2.133333-10.666667 6.4-14.933333l405.333333-384c4.266667-4.266667 8.533333-6.4 14.933333-6.4 6.4 0 10.666667 2.133333 14.933333 6.4l405.333333 384c4.266667 4.266667 6.4 8.533333 6.4 14.933333C938.666667 588.8 930.133333 597.333333 917.333333 597.333333z"  horiz-adv-x="1024" />

    
    <glyph glyph-name="hot" unicode="&#58905;" d="M554.318 372.088c-22.604 0-40.401-8.389-53.394-25.167-12.993-16.777-19.484-38.509-19.484-65.188 0-26.333 6.349-47.859 19.05-64.577 12.697-16.723 30.117-25.079 52.256-25.079 22.603 0 40.196 8.009 52.78 24.03 12.583 16.019 18.875 37.545 18.875 64.577 0 28.193-6.117 50.479-18.353 66.849C593.816 363.9 576.572 372.088 554.318 372.088zM917.39 511.095c47.787 52.161 16.062 204.917 8.11 184.045-8-21-41-24-41-24s14 11 5 92-38 114-38 114-20-31-61-71-108-44-108-44 3 11 6 29.5-4 39.5-4 39.5-9-13-57-44c-25.084-16.2-38.421-21.474-45.442-22.819-23.303 3.732-47.202 5.68-71.558 5.68-247.976 0-449-201.024-449-449 0-247.977 201.024-449 449-449 247.977 0 449 201.023 449 449C959.5 388.947 944.405 453.368 917.39 511.095zM374.48 146.811l-57.675 0L316.805 258.488 201.46 258.488 201.46 146.81l-57.674 0L143.786 417.527l57.674 0 0-109.23 115.347 0 0 109.23 57.676 0L374.48 146.811zM648.082 181.502c-24.527-26.275-56.655-39.41-96.385-39.41-38.799 0-70.317 12.729-94.551 38.188-24.235 25.457-36.353 58.226-36.353 98.308 0 42.409 12.378 76.926 37.138 103.551 24.758 26.623 57.471 39.937 98.135 39.937 38.682 0 69.818-12.875 93.414-38.624 23.594-25.751 35.391-58.84 35.391-99.271C684.871 242 672.607 207.774 648.082 181.502zM901.934 370.34l-77.248 0 0-223.528-57.848 0L766.838 370.34l-77.073 0 0 47.188 212.169 0L901.934 370.34z"  horiz-adv-x="1024" />

    
    <glyph glyph-name="pingtaijiyonghu" unicode="&#58921;" d="M550.272 490.624a173.28 173.28 0 0 1-173.088-173.056c0-41.376 14.656-79.456 39.04-109.248l8.416 3.392a920.32 920.32 0 0 0 78.912 27.968c1.952 0.608 2.24 0.704 2.24 9.28 0 9.056-1.088 15.552-3.264 20.288a99.584 99.584 0 0 0-7.968 27.2c-3.648 4.288-8.576 12.608-11.776 28.448-2.784 13.984-1.472 19.04 0.416 23.84l0.48 1.536c0.704 3.2-0.224 20.224-2.656 33.44-1.632 9.056 0.48 28.288 12.96 44.256 7.808 10.08 22.944 22.432 49.984 24.128l15.104 0.032c27.488-1.728 42.624-14.08 50.528-24.16 12.448-15.968 14.496-35.2 12.864-44.288-2.4-13.216-3.36-30.208-2.656-33.504l0.544-1.44c1.824-4.8 3.232-9.888 0.448-23.872-3.328-15.84-8.192-24.16-11.808-28.448a100.608 100.608 0 0 0-8.064-27.2c-2.784-5.984-5.6-13.024-5.6-20.032 0-8.544 0.32-8.608 2.304-9.28 23.936-7.072 62.592-20.48 79.008-27.296l8.448-3.52a172.16 172.16 0 0 1 38.304 108.448 173.376 173.376 0 0 1-173.12 173.088z m313.248-48.544s19.424 261.824-220.448 291.68c-205.632 20.96-268.096-170.08-268.096-170.08s-61.984 59.552-145.952 10.944c-75.168-46.464-61.92-131.424-61.92-131.424S0.16 410.784 0.16 240.54399999999998c3.744-169.984 181.376-171.648 181.376-171.648h653.184s165.312-0.224 188.576 161.504c11.04 176.832-159.776 211.68-159.776 211.68z m-133.76-200.352a193.6 193.6 0 0 0-41.664-61.92 196.288 196.288 0 0 0-62.016-41.792 193.92 193.92 0 0 0-75.808-15.328 193.152 193.152 0 0 0-75.84 15.328 195.104 195.104 0 0 0-61.984 41.792 194.368 194.368 0 0 0-57.088 137.76 194.368 194.368 0 0 0 57.088 137.792 194.656 194.656 0 0 0 213.632 41.76 196.192 196.192 0 0 0 62.016-41.76 193.6 193.6 0 0 0 41.664-61.92c10.208-24 15.392-49.536 15.392-75.872 0-26.272-5.184-51.776-15.392-75.84z"  horiz-adv-x="1024" />

    
    <glyph glyph-name="pinpaibiaoshi-xiaozhushou" unicode="&#59186;" d="M901.12 183.46666667c20.61653333 42.66666667 32.08533333 89.77066667 32.08533333 139.264a319.31733333 319.31733333 0 0 1-35.15733333 145.47626666c5.90506667 3.14026667 12.04906667 4.77866667 18.39786667 4.77866667 40.5504 0 73.4208-67.65226667 73.4208-151.10826667 0-81.1008-31.0272-147.2512-69.9392-151.00586666-28.60373333-42.66666667-77.68746667-90.86293333-155.7504-97.45066667-28.22826667-2.38933333-61.5424-4.43733333-94.85653334-5.3248a52.46293333 52.46293333 0 0 0-9.69386666-20.82133333c39.49226667 2.59413333 57.7536 3.54986667 96.93866666 8.32853333C689.22026667 4.915200000000027 602.5216-25.600000000000023 507.86986667-25.600000000000023 293.376-25.600000000000023 119.53493333 130.93546666999998 119.53493333 324.02773333000005c0 186.5728 162.304 339.01226667 366.6944 349.0816 16.5888 3.584 77.14133333 23.04 113.90293334 120.49066667 0 0 2.52586667-7.33866667 5.15413333-19.18293333 7.81653333-33.14346667 8.192-60.75733333 3.82293333-83.69493334 12.42453333 11.60533333 24.7808 25.73653333 36.31786667 42.9056 5.7344-35.328 3.14026667-61.78133333-3.34506667-81.408 148.30933333-49.18613333 254.08853333-177.5616 254.08853334-328.192 0-71.13386667-23.6544-137.28426667-64.17066667-192.512-17.3056-5.9392-28.672-6.656-43.8272-9.48906666-52.29226667-9.79626667-90.28266667-9.79626667-130.8672-10.51306667 5.29066667-6.144 9.3184-13.34613333 11.40053333-21.16266667a1191.59466667 1191.59466667 0 0 1 93.14986667 4.57386667c67.82293333 6.69013333 112.50346667 50.00533333 139.264 88.54186667zM125.952 467.968a319.35146667 319.35146667 0 0 1-35.15733333-145.5104c0-52.4288 12.86826667-102.16106667 35.84-146.8416a39.3216 39.3216 0 0 0-19.08053334-5.15413333C67.00373333 170.42773333000002 34.13333333 238.11413332999996 34.13333333 321.53599999999994S67.00373333 472.74666667 107.55413333 472.74666667c6.3488 0 12.52693333-1.67253333 18.39786667-4.77866667z m58.84586667-126.2592c-4.94933333-44.98773333 5.29066667-137.5232 98.98666666-160.63146667 77.27786667-19.0464 145.408 24.50773333 186.5728 62.22506667a61.50826667 61.50826667 0 0 0 79.32586667 3.41333333c35.66933333-27.30666667 88.61013333-59.01653333 136.26026667-62.49813333 72.15786667-5.3248 157.01333333 43.34933333 148.51413333 152.81493333-8.704 112.81066667-70.82666667 160.08533333-157.66186667 148.0704-57.51466667-7.95306667-115.37066667-63.35146667-146.0224-102.4-11.74186667-14.9504-35.5328-10.51306667-45.53386666 0.44373334-66.56 72.87466667-124.1088 118.1696-205.99466667 90.99946666-68.26666667-22.59626667-89.97546667-91.68213333-94.44693333-132.43733333z m157.86666666-92.33066667c-21.94773333 0-39.90186667 18.50026667-39.90186666 41.0624v58.2656c0 22.59626667 17.95413333 41.0624 39.936 41.0624 21.9136 0 39.86773333-18.46613333 39.86773333-41.0624v-58.2656c0-22.59626667-17.95413333-41.0624-39.90186667-41.0624z m338.432 0c-21.94773333 0-39.86773333 18.50026667-39.86773333 41.0624v58.2656c0 22.59626667 17.92 41.0624 39.86773333 41.0624 21.98186667 0 39.936-18.46613333 39.936-41.0624v-58.2656c0-22.59626667-17.95413333-41.0624-39.936-41.0624z m-289.31413333 144.72533334c2.59413333-4.57386667-3.1744-9.28426667-6.89493333-5.59786667-13.0048 12.9024-31.744 25.94133333-52.39466667 22.9376-37.1712-5.3248-28.94506667 48.16213333 20.30933333 21.94773333 18.87573333-10.06933333 31.19786667-25.6 38.98026667-39.25333333z m235.17866667 0c7.7824 13.65333333 20.0704 29.21813333 38.98026666 39.25333333 49.2544 26.28266667 57.4464-27.2384 20.30933334-21.9136-20.6848 2.9696-39.38986667-10.0352-52.39466667-22.9376-3.75466667-3.6864-9.48906667 1.024-6.89493333 5.632z"  horiz-adv-x="1024" />

    
    <glyph glyph-name="zhang" unicode="&#58899;" d="M549.9 125c-1.8-54.1-4.5-91.9-8.1-113.6C523-61 464.6-61 352.6-61c-40.5 0-72.9 2.7-97.2 8.1-24.3 5.4-45.9 17.5-64.8 36.4-22.9 22.3-37.3 47.9-43 76.9S139 132.7 139 190V628.6c0 68.8 18 119.3 54.2 151.3S281.7 828 350.5 828c41.2 0 73.9-3.5 98.2-10.6 24.3-7.1 45.5-20.9 63.8-41.5s29.7-46.7 36.4-80.5c3.1-16.2 3.5-41.6 1-76.4H434.7v37.2c0 20.2 0 66-59.6 68.1-59.6 2.1-79.8-18.1-79.8-47.1v-578.3c0-35.8 37.4-60 79.8-59.8 42.4 0.2 59.6 12.4 59.6 32.5V125h115.2zM425 532h440c12.7 0 23-10.3 23-23s-10.3-23-23-23H425c-12.7 0-23 10.3-23 23s10.3 23 23 23zM425 406h440c12.7 0 23-10.3 23-23s-10.3-23-23-23H425c-12.7 0-23 10.3-23 23s10.3 23 23 23zM425 280h328c12.7 0 23-10.3 23-23s-10.3-23-23-23H425c-12.7 0-23 10.3-23 23s10.3 23 23 23z"  horiz-adv-x="1024" />

    
    <glyph glyph-name="icon-test" unicode="&#58885;" d="M770.9-57H252.3c-6.4 0-11.5 5.2-11.5 11.5v50c0 6.4 5.2 11.5 11.5 11.5H771c6.4 0 11.5-5.2 11.5-11.5v-50c0-6.4-5.2-11.5-11.6-11.5z m-507.1 23.1h495.6V-7H263.8v-26.9zM812.2-6.1H211c-38.2 0-69.3 31.1-69.3 69.3v95.1c0 38.2 31.1 69.3 69.3 69.3h601.2c38.2 0 69.3-31.1 69.3-69.3v-95.1c0-38.2-31.1-69.3-69.3-69.3zM211 181.4c-12.7 0-23.1-10.4-23.1-23.1v-95.1c0-12.7 10.4-23.1 23.1-23.1h601.2c12.7 0 23.1 10.4 23.1 23.1v95.1c0 12.7-10.4 23.1-23.1 23.1H211zM642.2 185.5H381.1c-7.3 0-14.3 3.5-18.6 9.4-4.4 5.9-5.6 13.6-3.4 20.6L432.3 450c-71.7 31.3-120 103.4-120 182.8 0 109.9 89.4 199.3 199.3 199.3s199.3-89.4 199.3-199.3c0-79.4-48.3-151.6-120-182.8l73.3-234.6c2.2-7 0.9-14.6-3.4-20.6-4.4-5.8-11.3-9.3-18.6-9.3z m-229.7 46.2h198.3l-70.5 225.5c-1.8 5.9-1.2 12.3 1.6 17.7 2.9 5.4 7.8 9.5 13.8 11.3 64.2 19.3 109.1 79.6 109.1 146.6 0 84.4-68.7 153.2-153.1 153.2s-153.1-68.7-153.1-153.2c0-67.1 44.9-127.3 109.1-146.6 5.9-1.8 10.9-5.8 13.8-11.3 2.9-5.5 3.5-11.8 1.6-17.7l-70.6-225.5z"  horiz-adv-x="1024" />

    
    <glyph glyph-name="bangongpingtai" unicode="&#58889;" d="M224.32867765 214.08320700000002c0-57.646574 47.242071-104.748043 104.74804399-104.748043H644.72686565v-131.321708H460.39842964c-28.823287 0-53.006728-24.183441-53.00672799-53.006728 0-28.823287 24.183441-53.006728 53.00672799-53.006728H1090.43330464c28.823287 0 53.006728 24.183441 53.00672801 53.006728 0 28.823287-24.183441 53.006728-53.00672801 53.006728H906.24547064v131.321708h315.65014401c57.646574 0 104.748043 47.242071 104.74804299 104.748043v53.006728h-1102.31497999V214.08320700000002z m998.55114699 681.916793H329.07672164c-57.646574 0-104.748043-47.242071-104.74804399-104.748043v-472.280105h1102.31498V791.251957c1.124811 57.505973-46.117259 104.748043-103.76383301 104.748043z m0 0"  horiz-adv-x="1605" />

    
    <glyph glyph-name="gaizhangwenjian" unicode="&#59276;" d="M224 608h320a32 32 0 0 0 0-64H224a32 32 0 0 0 0 64z m0-128h192a32 32 0 0 0 0-64H224a32 32 0 0 0 0 64z m0-128h128a32 32 0 0 0 0-64H224a32 32 0 0 0 0 64z m544 224h-64V704a32 32 0 0 1-32 32H160a32 32 0 0 1-32-32v-640a32 32 0 0 1 32-32h352v-64H128a64 64 0 0 0-64 64V736a64 64 0 0 0 64 64h576a64 64 0 0 0 64-64v-160z m32-448h96a32 32 0 0 0 0-64h-256a32 32 0 0 0 0 64h96v67.2a160.064 160.064 0 0 0 32 316.8 160 160 0 0 0 32-316.8V128z m-32 128a96 96 0 1 1 0 192 96 96 0 0 1 0-192z m-160-224h320a32 32 0 0 0 0-64H608a32 32 0 0 0 0 64z"  horiz-adv-x="1024" />

    
    <glyph glyph-name="huaban" unicode="&#59007;" d="M752.711537 79.620599a154.229525 154.229525 0 0 1 39.815409 46.519441 32.410315 32.410315 0 0 1 3.842555 12.774451 142.558786 142.558786 0 0 1-0.551856 23.259721c-3.352016 36.07505-20.520878 73.028982-47.132615 101.4598-15.81988 16.821397-41.205269 39.140918-72.558882 50.055409-7.542036 2.636647-30.229461 10.526148-52.896447-0.69493a148.040559 148.040559 0 0 1-18.722236-11.568543l-28.124231-18.926627c-8.645749 5.273293-30.699561 23.361916-68.90028 83.636887-38.834331 62.482395-45.252216 91.260679-46.151537 101.132774l28.451258 18.926627a153.54277 153.54277 0 0 1 18.109062 13.101477c18.906188 16.617006 21.011417 40.714731 21.685908 48.420279 3.188503 33.642794-6.090858 66.529341-14.470898 88.276567-14.246068 36.667784-40.0198 68.021397-70.944192 86.171337a136.841964 136.841964 0 0 1-20.336926 9.974292 32.359218 32.359218 0 0 1-13.898603 1.757764c-118.444711-11.691178-179.230659-173.303313-181.76511-180.170858a32.144607 32.144607 0 0 1-1.226347-17.945549c26.857006-122.982196 93.529421-242.019641 115.215329-278.585229a18.887792 18.887792 0 0 1 1.185469-2.186986l4.66012-7.419402c0.510978-0.756248 1.021956-1.492056 1.594252-2.227864 24.833533-36.626906 112.374291-134.121517 205.924151-206.455569a31.59275 31.59275 0 0 1 16.371737-6.49964c1.369421-0.122635 9.32024-0.797126 21.604151-0.797126 23.750259 0 63.586108 2.820599 103.013174 16.964471a30.509477 30.509477 0 0 1 4.700998-7.235449l29.33014-29.636727c1.532934-2.575329 5.416367-15.206707-0.327026-22.462595-42.104591-53.386986-152.312335-53.386986-225.259561-53.386986-119.282715 0-230.696367 48.256766-313.801836 135.879282-84.94499 89.645988-128.623393 207.947625-122.920879 333.116806C77.873054 616.556327 240.65022 797.994411 446.819641 826.87489c9.626826 1.369421 19.376287 2.370938 29.166626 3.02499a31.88503 31.88503 0 0 1 29.493653 34.010699c-1.185469 17.577645-15.329341 30.065948-33.765429 29.718483-11.323273-0.776687-22.56479-1.962156-33.642794-3.535968C202.163353 857.083912 15.942515 649.708583 4.905389 407.791138c-6.52008-142.767265 43.351377-277.788104 140.416767-380.147226C240.486707-72.732615 368.210778-128 504.948503-128c85.108503 0 213.731896 0 274.906188 77.50515 29.738922 37.689741 14.593533 87.438563-2.268743 104.70962z m-166.333573 15.962954c-91.199361 72.1501-169.011098 162.266188-185.178443 186.854451a26.280623 26.280623 0 0 1-1.798643 2.473134v0.245269s-0.510978 0.817565-0.981078 1.553373c-0.245269 0.510978-0.531417 0.960639-0.797125 1.471617-18.640479 31.149222-80.039601 139.456128-106.651338 251.871298 16.453493 39.243114 60.27497 117.30012 117.484072 129.113932 1.410299-0.776687 2.779721-1.594251 4.046946-2.309621 18.293014-10.730539 34.562555-30.965269 43.555769-54.061477 8.277844-21.542834 11.997764-42.513373 10.423952-59.253014a40.048415 40.048415 0 0 0-0.674491-6.499641 99.730651 99.730651 0 0 0-10.383074-7.174131l-35.155289-23.423234c-6.070419-3.679042-14.981876-11.384591-19.621557-26.468663-10.117365-33.029621 6.74491-83.125908 53.264351-157.953533 47.00998-74.23489 84.679281-110.759601 118.485589-114.867864a45.305357 45.305357 0 0 1 32.702595 7.90994l35.257485 23.709381c4.046946 2.80016 7.21501 5.13022 8.502674 6.193054a22.131481 22.131481 0 0 0 6.479202-1.61469l0.081756-0.040879c15.022754-5.191537 31.762395-17.148423 47.173493-33.540598 16.841836-17.965988 28.083353-41.695808 30.086388-63.54523 0.183952-1.798643 0.367904-3.71992 0.490539-5.600319-35.38012-53.386986-119.957206-55.14475-146.793773-55.042555z m384.643832 414.341876a31.96883 31.96883 0 0 1-24.792654-37.628423 453.707625 453.707625 0 0 0 8.891018-89.462036 448.054164 448.054164 0 0 0-68.307545-238.361038 32.103729 32.103729 0 0 1 9.872096-44.066746 31.55596 31.55596 0 0 1 43.719281 9.953852 512.269796 512.269796 0 0 1 78.097884 272.473932 520.938028 520.938028 0 0 1-10.117365 102.113852 31.786922 31.786922 0 0 1-37.362715 24.976607zM606.49006 765.966307a31.809405 31.809405 0 0 1 31.701078 31.946348 31.63976 31.63976 0 0 0 53.795768 22.871377c4.88495-4.803194 7.705549-13.530699 7.705549-23.934212 0-33.05006-48.072814-87.867784-79.896527-124.167664-16.392176-18.701796-30.536048-34.828263-39.672335-48.64511a32.15687 32.15687 0 0 1-1.573813-32.763912 31.654068 31.654068 0 0 1 27.94028-16.862276h126.783872a31.925908 31.925908 0 0 1 0 63.851817h-59.089501c41.287026 47.23481 88.889741 104.423473 88.889741 158.587145 0 27.91984-9.54507 52.692056-26.897885 69.717845a94.931545 94.931545 0 0 1-161.366866-68.65501 31.79101 31.79101 0 0 1 31.680639-31.946348z m316.929022-159.629541a31.690858 31.690858 0 1 1 63.381716 0V638.262675a31.925908 31.925908 0 0 1 0 63.851816V861.764471a31.786922 31.786922 0 0 1-31.680638 31.925908h-31.701078a31.690858 31.690858 0 0 1-28.349062-17.659401l-95.082794-191.555449a32.134387 32.134387 0 0 1 1.38986-31.067465 31.717429 31.717429 0 0 1 26.959201-15.145389h95.082795v-31.925909z m-43.780599 95.777725l43.780599 88.235689v-88.235689h-43.780599z"  horiz-adv-x="1024" />

    
    <glyph glyph-name="dianziqianzhang" unicode="&#58882;" d="M894.34557 232.956935l-284.129153 46.1419a1019.827981 1019.827981 0 0 0 40.288589 233.370095c32.604582 34.238802 51.516304 80.137155 51.516304 128.74113 0 2.827395-0.073678 5.638417-0.198522 8.435113l0.198522 0.454348h-0.215918C697.164698 749.074719 615.457792 827.895903 515.334443 827.895903S333.505211 749.074719 328.863495 650.099521h-0.215918l0.198521-0.454348c-0.124843-2.796696-0.198521-5.607718-0.198521-8.435113 0-48.599881 18.908652-94.495164 51.508117-128.732943a1019.625366 1019.625366 0 0 0 40.298822-233.379305l-284.131199-46.1419v-0.045026c-22.385846-3.62762-38.800701-22.50148-38.810934-44.623313v-97.439216c0-24.995277 20.785396-45.257763 46.424332-45.257763h6.91448v-11.852956c0-25.148773 9.600659-49.2681 26.688849-67.051115 17.08819-17.783015 40.265052-27.773554 64.432475-27.773554H788.696368c24.166399 0 47.343261 9.990538 64.432475 27.773554 17.08819 17.783015 26.688849 41.902342 26.688849 67.051115v11.852956h6.91448c25.63996 0 46.424332 20.262486 46.424332 45.257763v97.439216c0.01228 22.140253-16.407692 41.038672-38.810934 44.669362zM834.258053 33.738661c0-26.185382-20.397562-47.412846-45.560662-47.412846H241.972519c-25.162076 0-45.560662 21.227464-45.560662 47.412846v11.852956h637.845173v-11.852956z"  horiz-adv-x="1024" />

    
    <glyph glyph-name="24xiaoshiqiantai" unicode="&#59006;" d="M385.29886507 320.37928c34.63632213 34.31323093 58.1674528 62.57612907 70.59666666 84.78760427 12.4259392 22.20820053 18.6410912 44.85956053 18.6410912 67.9508064 0 30.6271456-9.70367147 54.9998432-29.10446506 73.12136746-19.40406827 18.11934187-45.86267413 27.18010453-79.37581547 27.18010454-38.96640853 0-73.12136747-11.3049408-102.46596907-33.91482347l0-47.86562453c30.1457824 28.2214208 61.81642667 42.33376853 95.0097504 42.33376853 22.448336 0 39.60495147-5.65301653 51.47421227-16.95795733 11.86489387-11.3049408 17.79952427-27.54139947 17.79952427-48.70719147 0-18.60288853-5.05158507-36.60216213-15.153664-53.99891307-10.10207893-17.4011168-30.06610027-41.01083733-59.89206507-70.83680213l-108.23905387-107.99891733 0-40.89077014 226.5812768 0 0 41.85240534L300.3911936 236.43433387000005l0 0.9627264L385.29886507 320.37928zM731.66427307 194.58192959999997l0 96.69397653 47.62548906 0 0 37.28218347L731.66427307 328.55808852999996l0 238.60771734-54.60034454 0L512.3001696 321.8233696l0-30.54746347 173.6640672 0 0-96.69397653L731.66427307 194.58192959999997zM560.88729387 328.55808852999996l110.88491413 165.72648534c7.21608213 12.98916693 11.944576 22.52801813 14.1909376 28.62310186l0.9616352 0c-0.64400107-14.43216533-0.9616352-27.18010453-0.9616352-38.24490986l0-156.1046784L560.88729387 328.55808852999996zM969.33327787 565.68242133c0 0.0523936 0.00764053 0.10369493 0.00764053 0.15608854L969.3409184 761.2861728c0 12.48706453-10.12390933 22.60988267-22.60988267 22.60988267-12.48597333 0-22.60988267-10.12281813-22.60988266-22.60988267l0-108.47591467C870.7738816 731.20479147 795.24133227 791.80089173 705.05722027 827.23839467 586.6571456 873.76362453 457.24029333 871.39610347 340.624864 820.57680747c-240.7285536-104.90880533-351.22706667-386.1057088-246.31935253-626.8353536 50.8203872-116.61324587 144.009472-206.45570987 262.40408853-252.97984854 56.45812267-22.18527787 115.40492587-33.25226667 174.29278613-33.25226666 64.6030944 0 129.1352384 13.32972267 190.13847787 39.91603626 84.96006507 37.02567467 156.67882133 97.34670933 207.40097173 174.44014187 6.86242773 10.43062827 3.96988267 24.45128747-6.46292906 31.31589867-10.43281173 6.8667936-24.45128747 3.96988267-31.31589867-6.46292907-45.88559573-69.7474592-110.78885973-124.32597227-187.68800107-157.84020587-105.5429824-45.99584-222.6768864-48.13850667-329.82877973-6.02959253-107.15080107 42.10563947-191.4930624 123.41891413-237.48672 228.95862187C40.81306667 429.67820587 140.81873493 684.17636693 358.69072107 779.1228096c105.5418912 45.99365653 222.6757952 48.13850667 329.82659626 6.02959253 95.95610453-37.7067872 173.59639253-106.87137067 221.8091232-196.70510186l-80.93233173 0c-12.48597333 0-22.60988267-10.12281813-22.60988267-22.60988267s10.12390933-22.60988267 22.60988267-22.60988267l112.22421653 0c4.57349653-1.06751253 9.51047147-0.7487872 14.14618454 1.26944534C964.41485867 548.26820587 969.50901333 556.7984864 969.33327787 565.68242133z"  horiz-adv-x="1024" />

    
    <glyph glyph-name="yanzheng" unicode="&#58916;" d="M352.556 263.411v-50.915c-17.879-3.601-38.437-8.04-61.634-13.398-39.316-8.961-67.915-15.199-85.751-18.758l-10.72 61.633c32.157 1.758 84.831 8.92 158.105 21.438z m42.877 101.831c8.918 0 24.117 0.879 45.555 2.679a263.41 263.41 0 0 1-2.679-37.517c-5.36-128.627-13.399-199.18-24.118-211.699-14.32-17.837-47.356-31.235-99.15-40.195-5.36 0-9.84-0.88-13.399-2.681-5.359 23.238-14.319 44.677-26.797 64.314 48.235-5.359 78.592-1.759 91.111 10.719 5.359 8.919 9.797 25.876 13.398 50.915 3.56 23.196 6.239 63.393 8.04 120.588-39.317-3.601-93.791-8.039-163.465-13.398 1.759 26.798 3.559 65.193 5.359 115.229 1.759 53.595 2.68 92.87 2.68 117.909 42.876-1.801 65.193-5.359 66.994-10.719 0-3.601-1.801-7.16-5.359-10.719-3.602-8.96-5.36-17.878-5.36-26.797-1.801-3.601-2.68-10.719-2.68-21.438-7.16-60.754-9.84-99.151-8.039-115.228h26.797c21.438 1.758 35.717 2.679 42.876 2.679 7.118 103.589 12.479 179.543 16.079 227.778-83.993-3.601-139.347-7.16-166.144-10.719v64.314c24.996-5.36 100.029-6.281 225.098-2.68-10.719-85.752-19.679-176.864-26.797-273.334zM577.655 692.17c42.875-7.16 66.993-13.399 72.353-18.758 0-3.601-1.8-7.16-5.359-10.719-3.602-3.601-5.36-6.28-5.36-8.039 32.157-69.673 95.55-125.069 190.262-166.144-17.879-14.32-31.277-33.078-40.195-56.275-100.073 53.595-158.107 119.667-174.184 198.301-28.599-64.314-82.194-135.788-160.785-214.38-14.319 12.478-30.398 24.997-48.235 37.517 83.951 55.353 141.105 134.867 171.503 238.497z m115.229-305.491c44.635-8.96 68.752-17 72.353-24.118 0-3.601-2.679-8.039-8.039-13.398-7.159-7.16-10.719-12.52-10.719-16.078-1.8-5.359-3.601-11.641-5.359-18.759-23.238-73.274-41.996-129.549-56.274-168.823h16.078c37.517-1.801 66.072-0.921 85.752 2.68v-45.556c-19.68 3.601-48.235 4.479-85.752 2.68H548.178c-50.036 1.8-83.994 0.921-101.83-2.68v48.235c10.719-1.801 26.797-3.602 48.234-5.359h136.667c30.357 69.673 50.916 150.065 61.635 241.176z m-179.543-16.077c16.078-46.478 30.356-104.511 42.876-174.184l-56.275-10.719c-7.159 75.032-18.758 133.065-34.836 174.183l48.235 10.72z m0 99.149c1.759 0 10.719-0.921 26.798-2.68h115.229c32.157 1.759 52.674 2.68 61.635 2.68v-50.916c-16.079 1.759-45.557 3.56-88.432 5.36h-34.837c-37.517 0-64.314-0.921-80.393-2.68v48.236zM617.851 384c12.479-64.313 19.638-117.909 21.438-160.785l-56.274-8.039c-1.8 57.154-8.96 110.749-21.438 160.785L617.851 384zM1010.369 209.642c-16.248 13.763-40.584 11.768-54.347-4.489L753.62-33.757l-87.162 80.79c-15.619 14.489-40.021 13.539-54.488-2.07-14.479-15.617-13.548-40.009 2.07-54.487l116.733-108.194a38.528 38.528 0 0 1 26.208-10.281c0.773 0 1.545 0.019 2.326 0.066a38.56 38.56 0 0 1 27.093 13.564l228.459 269.663c13.763 16.249 11.759 40.584-4.49 54.348zM565.03-59.51a452.858 452.858 0 0 0-53.03-3.123c-60.324 0-118.809 11.8-173.83 35.072-53.177 22.492-100.948 54.704-141.987 95.743-41.04 41.039-73.252 88.811-95.744 141.987C77.167 265.191 65.367 323.676 65.367 384c0 60.324 11.8 118.809 35.072 173.83 22.492 53.177 54.705 100.948 95.744 141.987 41.039 41.04 88.811 73.252 141.987 95.744C393.191 818.833 451.676 830.633 512 830.633c60.324 0 118.81-11.8 173.83-35.072 53.177-22.492 100.948-54.705 141.987-95.744s73.251-88.811 95.743-141.987c23.272-55.021 35.072-113.506 35.072-173.83 0-34.811-3.944-69.005-11.742-102.278a108.615 108.615 0 0 0 38.56 7.063c9.841 0 19.57-1.356 28.935-3.95 6.298 32.083 9.609 65.236 9.609 99.165C1023.994 666.766 794.767 895.994 512 895.994 229.234 895.994 0.006 666.766 0.006 384c0-282.767 229.228-511.994 511.994-511.994 38.935 0 76.848 4.363 113.293 12.597l-58.837 54.533c-0.481 0.446-0.953 0.9-1.426 1.354z"  horiz-adv-x="1024" />

    
    <glyph glyph-name="tubiao_biangeng" unicode="&#59008;" d="M803.79733333 398.03733333A313.01333333 313.01333333 0 0 0 797.86666667 337.06666667l62.77333333-12.48a377.6 377.6 0 0 1 7.2 73.45066666 374.58133333 374.58133333 0 0 1-374.90133333 374.85866667v-64a310.86933333 310.86933333 0 0 0 310.85866666-310.85866667zM182.08 398.03733333a311.66933333 311.66933333 0 0 0 10.66666667 81.01333334l-61.81333334 16.62933333a374.73066667 374.73066667 0 0 1 362.00533334-472.53333333v64A310.86933333 310.86933333 0 0 0 182.08 398.03733333zM143.136 817.664m12.8 0l261.29066667 0q12.8 0 12.8-12.8l0-261.29066667q0-12.8-12.8-12.8l-261.29066667 0q-12.8 0-12.8 12.8l0 261.29066667q0 12.8 12.8 12.8ZM543.744 281.16266667m12.8 0l313.65333333 0q12.8 0 12.8-12.8l0-313.65333334q0-12.8-12.8-12.8l-313.65333333 0q-12.8 0-12.8 12.8l0 313.65333334q0 12.8 12.8 12.8Z"  horiz-adv-x="1024" />

    
    <glyph glyph-name="chaxun1" unicode="&#58887;" d="M449.16 767.78c43.35 0 85.38-8.48 124.9-25.19 38.21-16.16 72.54-39.31 102.03-68.8 29.49-29.49 52.64-63.82 68.8-102.03 16.72-39.52 25.19-81.55 25.19-124.9 0-38.15-6.61-75.45-19.65-110.86-12.6-34.22-30.87-65.88-54.31-94.09l-18.34-22.07-21.92-18.48c-28.34-23.89-60.22-42.52-94.76-55.38-35.74-13.31-73.41-20.05-111.96-20.05-43.35 0-85.38 8.48-124.9 25.19-38.21 16.16-72.54 39.31-102.03 68.8-29.49 29.49-52.64 63.82-68.8 102.03-16.72 39.53-25.19 81.55-25.19 124.9s8.48 85.38 25.19 124.9c16.16 38.21 39.31 72.54 68.8 102.03 29.49 29.49 63.82 52.64 102.03 68.8 39.54 16.72 81.56 25.2 124.92 25.2m0 64c-212.59 0-384.93-172.34-384.93-384.93s172.34-384.93 384.93-384.93c94.47 0 180.99 34.03 247.97 90.5l191.33-191.33c6.24-6.24 14.42-9.36 22.6-9.36s16.36 3.12 22.6 9.36l3.21 3.21c12.48 12.48 12.48 32.72 0 45.2L745.36 201c55.41 66.68 88.73 152.37 88.73 245.85 0 212.59-172.34 384.93-384.93 384.93zM256.69 408.93h-64c0 78.51 30.58 152.33 86.09 207.85 55.52 55.52 129.33 86.09 207.85 86.09v-64c-126.79 0-229.94-103.15-229.94-229.94z"  horiz-adv-x="1024" />

    
    <glyph glyph-name="weixin" unicode="&#59001;" d="M371.226529 692.547633c-187.547442 0-341.167762-127.83631-341.167762-290.156664 0-93.698461 51.116462-170.613985 136.491188-230.204701l-34.122797-102.654378 119.256692 59.831547c42.687363-8.474254 76.915524-17.144184 119.497523-17.144184 10.701945 0 21.32863 0.526819 31.849951 1.369729-6.652967 22.833826-10.521321 46.706237-10.521321 71.481766 0 148.969264 128.001881 269.926827 290.066352 269.926827 11.04814 0 21.990916-0.812806 32.858432-2.016963C685.91789 590.420073 538.980641 692.547633 371.226529 692.547633zM260.398936 462.207464c-25.558231 0-51.372345 17.129132-51.372345 42.702415 0 25.678646 25.814114 42.566947 51.372345 42.566947s42.597051-16.903353 42.597051-42.566947C302.980935 479.336597 285.957167 462.207464 260.398936 462.207464zM499.168203 462.207464c-25.573283 0-51.236877 17.129132-51.236877 42.702415 0 25.678646 25.663595 42.566947 51.236877 42.566947 25.693698 0 42.702415-16.903353 42.702415-42.566947C541.870618 479.336597 524.846849 462.207464 499.168203 462.207464zM993.971337 189.149829c0 136.310564-136.491188 247.484353-289.780365 247.484353-162.320354 0-290.171716-111.173788-290.171716-247.484353 0-136.611604 127.851362-247.559613 290.171716-247.559613 33.972277 0 68.21549 8.549514 102.353339 17.11408l93.593097-51.236877-25.663595 85.269362C942.945187 44.079023 993.971337 112.204201 993.971337 189.149829zM610.10116 231.776984c-16.993665 0-34.137849 16.873249-34.137849 34.107745 0 17.023769 17.144184 34.152901 34.137849 34.152901 25.814114 0 42.702415-17.129132 42.702415-34.152901C652.803575 248.650233 635.915274 231.776984 610.10116 231.776984zM797.769017 231.776984c-16.873249 0-33.897018 16.873249-33.897018 34.107745 0 17.023769 17.023769 34.152901 33.897018 34.152901 25.558231 0 42.702415-17.129132 42.702415-34.152901C840.471432 248.650233 823.327248 231.776984 797.769017 231.776984z"  horiz-adv-x="1024" />

    
    <glyph glyph-name="qq" unicode="&#58925;" d="M116.435 302.286c-33.54-78.964-38.985-154.297-12.059-168.37 18.572-9.696 47.686 12.382 74.936 52.909 10.791-44.157 37.493-84.137 75.633-116.21-40.004-14.768-66.135-38.886-66.135-66.232 0-44.954 70.709-81.302 157.978-81.302 78.716 0 143.907 29.538 155.94 68.371 3.232 0.049 15.663 0.049 18.796 0 12.083-38.784 77.324-68.371 155.989-68.371 87.267 0 157.978 36.398 157.978 81.302 0 27.297-26.105 51.464-66.135 66.232 38.089 32.123 64.889 72.053 75.631 116.21 27.251-40.527 56.29-62.605 74.887-52.909 26.95 14.073 21.631 89.456-12.032 168.37-26.355 62.058-62.11 107.754-89.457 117.848 0.398 3.929 0.596 7.958 0.596 11.935 0 23.968-6.661 46.146-18.049 64.196 0.199 1.393 0.199 2.834 0.199 4.227 0 11.038-2.636 21.381-7.114 30.332-6.909 161.309-111.93 289.402-281.866 289.402-170.036 0-275.106-128.093-281.943-289.402-4.525-9.001-7.135-19.343-7.135-30.332 0-1.393 0.099-2.835 0.15-4.227-11.288-18.05-17.951-40.178-17.951-64.196 0-3.978 0.15-7.955 0.498-11.935-27.151-10.094-63.028-55.841-89.333-117.848z"  horiz-adv-x="1024" />

    
    <glyph glyph-name="servicehis" unicode="&#58927;" d="M383.176 730.027c19.585 0 35.596 15.868 35.596 35.596v11.865l213.435-0v-11.865c0-19.585 15.868-35.596 35.596-35.596 19.585 0 35.596 15.868 35.596 35.596v94.78c0 19.585-15.868 35.596-35.596 35.596-19.585 0-35.596-15.868-35.596-35.596v-11.865l-213.435 0v11.865c0 19.585-15.868 35.596-35.596 35.596-19.585 0-35.596-15.868-35.596-35.596l0-94.923c0-19.585 16.011-35.453 35.596-35.453v0zM462.374-56.95h-225.872c-47.605 0-86.346 39.742-86.346 88.49l-0 657.602c0 48.748 38.741 88.49 86.346 88.49 19.585 0 35.596 15.868 35.596 35.596s-16.011 35.453-35.596 35.453c-86.918 0-157.538-71.621-157.538-159.54v-657.459c0-88.061 70.621-159.683 157.538-159.683h225.872c19.585 0 35.596 15.868 35.596 35.596-0.143 19.585-16.011 35.453-35.596 35.453v0zM797.465 848.681c-19.585 0-35.596-15.868-35.596-35.596 0-19.585 15.868-35.596 35.596-35.596 47.605 0 86.346-39.742 86.346-88.49v-348.815c0-19.585 15.868-35.596 35.596-35.596 19.585 0 35.596 15.868 35.596 35.596v348.815c-0 88.061-70.764 159.683-157.538 159.683v0zM893.818 226.676l-260.181-268.044-126.66 130.377c-13.724 14.153-36.168 14.439-50.321 0.715-14.153-13.724-14.439-36.168-0.715-50.321l152.106-156.681c0.143-0.143 0.286-0.143 0.429-0.286 0.143-0.143 0.143-0.286 0.286-0.429 0.858-0.858 1.858-1.43 2.859-2.287 0.858-0.572 1.573-1.287 2.43-1.858 1.144-0.715 2.43-1.287 3.717-2.001 0.858-0.429 1.573-1.001 2.43-1.287 1.43-0.572 2.859-1.001 4.432-1.287 0.715-0.143 1.43-0.429 2.144-0.572 2.287-0.429 4.575-0.715 6.862-0.715s4.575 0.286 6.862 0.715c0.715 0.143 1.43 0.429 2.144 0.572 1.43 0.429 3.002 0.715 4.432 1.287 0.858 0.286 1.715 0.858 2.43 1.287 1.287 0.572 2.43 1.144 3.717 2.001 0.858 0.572 1.573 1.287 2.43 1.858 1.001 0.715 2.001 1.43 2.859 2.287 0.143 0.143 0.143 0.286 0.286 0.429 0.143 0.143 0.286 0.143 0.429 0.286l285.771 294.348c13.724 14.153 13.295 36.597-0.715 50.321-14.153 13.581-36.74 13.295-50.464-0.715v0zM730.561 497.15h-410.286c-27.162 0-49.32 22.158-49.32 49.32v0c0 27.162 22.158 49.32 49.32 49.32h410.286c27.162 0 49.32-22.158 49.32-49.32v0c0-27.162-22.158-49.32-49.32-49.32zM730.561 329.891h-410.286c-27.162 0-49.32 22.158-49.32 49.32v0c0 27.162 22.158 49.32 49.32 49.32h410.286c27.162 0 49.32-22.158 49.32-49.32v0c0-27.162-22.158-49.32-49.32-49.32zM730.561 151.195h-410.286c-27.162 0-49.32 22.158-49.32 49.32v0c0 27.162 22.158 49.32 49.32 49.32h410.286c27.162 0 49.32-22.158 49.32-49.32v0c0-27.162-22.158-49.32-49.32-49.32z"  horiz-adv-x="1024" />

    
    <glyph glyph-name="beian" unicode="&#58880;" d="M512-71.111c170.667 68.267 284.444 164.978 341.333 284.444 73.956 142.223 91.023 307.2 56.89 500.623L512 839.11 113.778 708.267c-34.134-187.734-17.067-352.711 51.2-494.934C227.556 93.867 341.333-2.844 512-71.11z m-295.822 307.2c-62.578 125.155-79.645 267.378-51.2 432.355L512 782.222l347.022-113.778c22.756-164.977 5.69-307.2-56.889-426.666-51.2-102.4-147.91-182.045-290.133-244.622-147.911 56.888-244.622 142.222-295.822 238.933zM512 264.533L318.578 457.956l45.51 39.822L512 349.867l204.8 204.8 45.511-39.823z"  horiz-adv-x="1024" />

    
    <glyph glyph-name="extension_not_completed" unicode="&#58892;" d="M512-54.85714299999995c-241.371429 0-438.857143 197.485714-438.857143 438.857143s197.485714 438.857143 438.857143 438.857143c87.771429 0 175.542857-29.257143 248.685714-73.142857l65.828572 51.2C738.742857 852.114286 621.714286 896 512 896 226.742857 896 0 669.257143 0 384s226.742857-512 512-512c21.942857 0 36.571429 14.628571 36.571429 36.571429S533.942857-54.85714299999995 512-54.85714299999995zM438.857143 369.37142900000003l234.057143-138.971429c21.942857-14.628571 21.942857-36.571429 14.628571-51.2-7.314286-14.628571-29.257143-21.942857-51.2-7.314286l-256 146.285715s-7.314286 0-14.628571 14.628571V640c0 21.942857 14.628571 36.571429 36.571428 36.571429s36.571429-14.628571 36.571429-36.571429v-270.628571z m446.171428 299.885714c0-14.628571-7.314286-14.628571-21.942857-14.628572L731.428571 691.2s-7.314286 0-7.314285 7.314286c-7.314286 7.314286 0 14.628571 0 21.942857l131.657143 95.085714h7.314285c14.628571 7.314286 14.628571 0 14.628572-7.314286l7.314285-138.971428z m-146.285714-760.685714c-14.628571-7.314286-36.571429 0-51.2 14.628571s0 36.571429 14.628572 51.2c21.942857 7.314286 36.571429 21.942857 58.514285 36.571429 14.628571 14.628571 36.571429 7.314286 51.2-7.314286s7.314286-36.571429-7.314285-51.2c-14.628571-21.942857-36.571429-29.257143-65.828572-43.885714z m182.857143 153.6c-14.628571-14.628571-36.571429-21.942857-51.2-7.314286-14.628571 14.628571-21.942857 36.571429-7.314286 51.2 14.628571 14.628571 21.942857 36.571429 36.571429 58.514286 7.314286 14.628571 29.257143 21.942857 51.2 14.628571 14.628571-7.314286 21.942857-29.257143 14.628571-51.2l-43.885714-65.828571z m95.085714 226.742857c0-21.942857-21.942857-36.571429-43.885714-29.257143s-36.571429 21.942857-29.257143 43.885714c7.314286 14.628571 7.314286 36.571429 7.314286 58.514286 0 21.942857 14.628571 36.571429 36.571428 36.571428s36.571429-14.628571 36.571429-36.571428 0-51.2-7.314286-73.142857z m-14.628571 219.428571c7.314286-21.942857-7.314286-36.571429-21.942857-43.885714-21.942857-7.314286-36.571429 7.314286-43.885715 21.942857l-21.942857 65.828571c-7.314286 14.628571 0 36.571429 14.628572 51.2s36.571429 0 51.2-14.628571c7.314286-29.257143 14.628571-51.2 21.942857-80.457143z"  horiz-adv-x="1024" />

    
    <glyph glyph-name="dianhua" unicode="&#58881;" d="M419.6 552l-88-89.6c45.8-101.7 143-215 255.7-253.1l76.1 75.8s180.3-31.5 220.8-51.1c35.2-17 46.8-54.8 41.3-101.4-5.8-50.1-71.5-160.5-189.7-161.7-118.2-1.2-292.3 87.9-417 219.2-124.7 131.5-235.9 298.1-218 439.5C118.5 771.1 241.7 796.4 272.5 798.7c31.2 2.3 55.9-6.8 74.7-30.1 24.2-30.1 72.4-216.6 72.4-216.6z"  horiz-adv-x="1024" />

    
    <glyph glyph-name="chaxun" unicode="&#60492;" d="M896 832H128c-35.296 0-64-28.704-64-64v-768c0-35.296 28.704-64 64-64h592a32 32 0 1 1 0 64H128V768h768v-592a32 32 0 1 1 64 0V768c0 35.296-28.704 64-64 64zM791.744 149.50400000000002A206.752 206.752 0 0 1 832 272c0 114.688-93.312 208-208 208S416 386.688 416 272s93.312-208 208-208a206.752 206.752 0 0 1 122.496 40.256l110.88-110.88a31.904 31.904 0 0 1 45.248 0 31.968 31.968 0 0 1 0 45.248l-110.88 110.88zM480 272c0 79.392 64.608 144 144 144s144-64.608 144-144-64.608-144-144-144-144 64.608-144 144zM800 632a32 32 0 0 1-32 32H256a32 32 0 0 1 0-64h512a32 32 0 0 1 32 32zM256 473.344a32 32 0 0 1 0-64h96a32 32 0 0 1 0 64H256z"  horiz-adv-x="1024" />

    
    <glyph glyph-name="loukongguanli" unicode="&#59108;" d="M94-56V824c0 39.765 32.235 72 72 72h404c39.765 0 72-32.235 72-72v-124h216c39.765 0 72-32.235 72-72v-684h58c19.882 0 36-16.118 36-36s-16.118-36-36-36H36c-19.882 0-36 16.118-36 36s16.118 36 36 36h58z m72 0h404V824H166v-880z m476 0h216V628H642v-684zM260 654h208c19.882 0 36-16.118 36-36s-16.118-36-36-36H260c-19.882 0-36 16.118-36 36s16.118 36 36 36z m0-234h208c19.882 0 36-16.118 36-36s-16.118-36-36-36H260c-19.882 0-36 16.118-36 36s16.118 36 36 36z m0-234h208c19.882 0 36-16.118 36-36s-16.118-36-36-36H260c-19.882 0-36 16.118-36 36s16.118 36 36 36z m490 310c19.882 0 36-16.118 36-36v-72c0-19.882-16.118-36-36-36s-36 16.118-36 36v72c0 19.882 16.118 36 36 36z m0-240c19.882 0 36-16.118 36-36v-72c0-19.882-16.118-36-36-36s-36 16.118-36 36v72c0 19.882 16.118 36 36 36z"  horiz-adv-x="1024" />

    
    <glyph glyph-name="shenqing" unicode="&#59363;" d="M333.824-90.112H178.176c-78.848 0-143.36 64.512-143.36 143.36V720.384c0 78.848 64.512 143.36 143.36 143.36h667.136c78.848 0 143.36-64.512 143.36-143.36v-155.136c0-22.528-18.432-40.96-40.96-40.96s-40.96 18.432-40.96 40.96V720.384c0 33.792-27.648 61.44-61.44 61.44H178.176c-33.792 0-61.44-27.648-61.44-61.44v-667.136c0-33.792 27.648-61.44 61.44-61.44h155.136c22.528 0 40.96-18.432 40.96-40.96s-17.92-40.96-40.448-40.96zM494.08-80.384c-10.24 0-20.992 4.096-29.184 11.776-15.872 15.872-15.872 41.984 0 57.856L916.48 441.344c15.872 15.872 41.984 15.872 57.856 0 15.872-15.872 15.872-41.984 0-57.856l-451.584-451.584c-7.68-8.192-18.432-12.288-28.672-12.288zM782.336 555.008H241.664c-22.528 0-40.96 18.432-40.96 40.96s18.432 40.96 40.96 40.96h541.184c22.528 0 40.96-18.432 40.96-40.96s-18.432-40.96-41.472-40.96zM557.056 276.992H241.664c-22.528 0-40.96 18.432-40.96 40.96s18.432 40.96 40.96 40.96h315.904c22.528 0 40.96-18.432 40.96-40.96s-18.432-40.96-41.472-40.96z"  horiz-adv-x="1024" />

    
    <glyph glyph-name="peizhitubiaosvg-" unicode="&#58978;" d="M650.666667 640h-362.666667a32 32 0 0 1 0-64h362.666667a32 32 0 0 1 0 64zM554.666667 416a32 32 0 0 1-32 32h-234.666667a32 32 0 0 1 0-64h234.666667a32 32 0 0 1 32 32zM288 256a32 32 0 0 1 0-64h106.666667a32 32 0 0 1 0 64zM149.333333-10.666667v789.333334a10.666667 10.666667 0 0 0 10.666667 10.666666h661.333333a10.666667 10.666667 0 0 0 10.666667-10.666666v-113.706667a32 32 0 0 1 32-32 32 32 0 0 1 32 32V778.666667A74.666667 74.666667 0 0 1 821.333333 853.333333h-661.333333A74.666667 74.666667 0 0 1 85.333333 778.666667v-789.333334A74.666667 74.666667 0 0 1 160-85.333333h478.293333a32 32 0 0 1 32 32 32 32 0 0 1-32 32H160a10.666667 10.666667 0 0 0-10.666667 10.666666zM864 544h-85.333333A74.666667 74.666667 0 0 1 704 469.333333v-397.866666a53.333333 53.333333 0 0 1 11.733333-33.28l64-80a53.333333 53.333333 0 0 1 83.2 0l64 80a53.333333 53.333333 0 0 1 11.733334 33.28V469.333333a74.666667 74.666667 0 0 1-74.666667 74.666667z m10.666667-469.333333l-53.333334-66.133334-53.333333 66.773334V320h106.666667zM874.666667 384h-106.666667v85.333333a10.666667 10.666667 0 0 0 10.666667 10.666667h85.333333a10.666667 10.666667 0 0 0 10.666667-10.666667z"  horiz-adv-x="1024" />

    


  </font>
</defs>
</svg>
