<?xml version="1.0" standalone="no"?>
<!DOCTYPE svg PUBLIC "-//W3C//DTD SVG 1.1//EN" "http://www.w3.org/Graphics/SVG/1.1/DTD/svg11.dtd" >
<!--
2013-9-30: Created.
-->
<svg>
<metadata>
Created by iconfont
</metadata>
<defs>

<font id="iconfont" horiz-adv-x="1024" >
  <font-face
    font-family="iconfont"
    font-weight="500"
    font-stretch="normal"
    units-per-em="1024"
    ascent="896"
    descent="-128"
  />
    <missing-glyph />
    
    <glyph glyph-name="xing" unicode="&#58964;" d="M789.618119-127.488026h-18.277486c-12.645768 5.375731-25.854707 9.676316-37.783711 16.229589a31379.064647 31379.064647 0 0 0-212.878956 118.112494c-5.9901 3.379031-10.495475 3.430228-16.485576 0-43.722614-24.574771-87.240438-49.559122-131.577421-73.007549-39.422029-20.888556-75.874606-47.613619-119.085245-61.334534h-18.277487c-2.20149 0.767962-4.351782 1.689516-6.655667 2.252688-37.783711 8.754762-62.563272 44.132193-56.573171 82.120694 14.335283 90.875456 29.028949 181.699715 44.029798 272.472776 1.023949 6.60447-0.563172 10.546673-4.914954 14.949653-23.550822 24.062797-46.948053 48.279186-70.345283 72.444377-39.422029 40.548373-78.895255 80.99435-118.163691 121.747513-20.478976 21.19574-26.366682 46.589671-17.919105 74.338683 8.140393 26.725064 26.981051 43.569022 54.576472 49.968702 10.239488 2.355082 20.683766 3.379031 31.025648 4.966151 76.130593 11.673016 152.261187 23.499625 228.442978 34.81426 8.80596 1.279936 13.055347 5.324534 16.639168 13.055347 36.145393 78.127294 72.751562 156.100995 109.050548 234.125894 7.474826 16.075996 18.226289 29.131343 34.302285 37.015749 7.730813 3.788611 16.331983 5.9901 24.574771 8.908354h18.226289c34.353482-6.911654 52.374981-30.0017 65.942302-60.310584 33.278336-74.287486 68.60457-147.704615 102.906855-221.582521 2.867057-6.297285 6.297285-9.676316 13.823309-10.751462 81.455127-12.184991 162.859057-25.137943 244.416579-37.169342 25.547523-3.737413 47.767212-11.775411 62.614469-34.046298 20.069397-30.0017 15.768812-67.887806-11.109844-95.58562-62.051297-63.9968-124.256187-127.9936-186.20509-192.195191-2.969452-3.071846-5.631718-8.703565-5.017349-12.696965 14.028099-88.571571 27.902605-177.143143 43.210639-265.458727 8.80596-50.787861-22.219689-82.223089-51.965401-90.158692-3.583821-0.972751-7.014049-2.150292-10.546673-3.225439z m-33.943903 114.0167c-0.20479 3.942203-0.102395 6.655667-0.511974 9.215539-12.901755 79.868007-25.649918 159.838408-38.961252 239.706414-4.300585 25.752312 2.252687 47.20404 20.581371 65.942303 55.651617 56.931553 110.99605 114.170291 166.39168 171.306635 2.40628 2.457477 4.60777 5.119744 7.730814 8.703565-78.076096 12.031398-154.20669 24.369982-230.593271 35.172641-31.486426 4.40298-52.886956 18.635868-66.147092 47.818409-31.537623 69.628519-64.508775 138.745063-96.916754 208.0152-1.331133 2.867057-2.815859 5.631718-4.914955 9.676316l-5.119744-10.444278-99.374231-212.878956c-9.983501-21.40053-26.161892-35.838208-49.661517-39.626819-60.0034-9.829909-120.211589-18.635868-180.368581-27.851407L113.658317 481.249538c3.788611-4.044598 6.143693-6.655667 8.652367-9.21554 55.651617-57.341133 111.252037-114.733463 167.00605-172.023399 16.536773-16.895155 23.80681-36.964552 20.171792-60.054597-11.058647-69.730913-22.731663-139.359432-34.046298-209.039148-2.355082-14.335283-4.454177-28.670566-6.962852-44.848957 4.761362 2.457477 7.730813 3.942203 10.59787 5.529323 65.430328 36.350182 130.963052 72.495575 196.239788 109.101745 25.086746 14.028099 49.149543 14.130493 74.236288 0 65.020749-36.452577 130.246288-72.444378 195.420629-108.640968 3.174241-1.740713 6.39968-3.327834 10.751463-5.631718z"  horiz-adv-x="1024" />

    
    <glyph glyph-name="sousuo" unicode="&#59088;" d="M942.8 22.8L776.2 189.3c48.4 64.7 77.2 144.6 77.2 231.6 0 214.3-173.9 388-388.3 388-214.4-0.1-388.2-173.8-388.2-388.1s173.8-388 388.2-388c97.3 0 186 36 254.1 95.1l164.2-164.2c8.1-8.1 18.8-12.3 29.6-12.3s21.4 4.2 29.6 12.3c16.5 16.3 16.5 42.8 0.2 59.1z m-477.6 93.6c-168 0-304.7 136.5-304.7 304.5s136.7 304.4 304.7 304.4 304.7-136.6 304.7-304.5-136.7-304.4-304.7-304.4z"  horiz-adv-x="1024" />

    
    <glyph glyph-name="yulan" unicode="&#58940;" d="M708.923077-64.984615c-239.852308 0-455.68 139.027692-645.12 411.963077L38.203077 384l25.993846 37.021538C253.243077 693.956923 469.070769 832.984615 708.923077 832.984615s455.68-139.027692 645.12-411.963077l25.993846-37.021538-25.993846-37.021538C1164.603077 74.043077 948.775385-64.984615 708.923077-64.984615z m0 119.72923c194.166154 0 372.578462 108.307692 536.024615 329.255385-163.446154 220.947692-341.858462 329.255385-536.024615 329.255385S336.344615 604.947692 172.898462 384c163.446154-220.947692 341.858462-329.255385 536.024615-329.255385zM708.923077 200.073846c-101.612308 0-183.926154 82.313846-183.926154 183.926154s82.313846 183.926154 183.926154 183.926154 183.926154-82.313846 183.926154-183.926154-82.313846-183.926154-183.926154-183.926154z m0 105.156923c43.323077 0 78.769231 35.052308 78.769231 78.769231 0 43.323077-35.052308 78.769231-78.769231 78.769231-43.323077 0-78.769231-35.446154-78.769231-78.769231s35.446154-78.769231 78.769231-78.769231z"  horiz-adv-x="1417" />

    
    <glyph glyph-name="liaotian1" unicode="&#58914;" d="M197.3248-83.1488a45.7216 45.7216 0 0 0-30.7712 11.9808 45.7728 45.7728 0 0 0-14.08 44.9024l28.672 123.136c1.024 3.6864-0.512 7.3216-3.072 10.4448C96.0512 188.2112 51.2 292.6592 51.2 400.128 51.2 645.4272 280.832 844.8 563.2 844.8s512-199.3728 512-444.672-229.632-444.672-512-444.672c-60.0064 0-118.4768 8.8576-174.336 26.624L212.992-80.5376c-5.2224-1.5872-10.4448-2.6112-15.6672-2.6112zM563.2 771.7376c-242.176 0-438.9376-166.5024-438.9376-371.6096 0-88.2176 37.5808-173.824 104.9088-241.152 20.8896-20.8384 29.7472-50.0736 22.9888-78.7968l-17.7664-75.6736 131.0208 46.4384c14.08 5.2224 29.696 5.2224 44.3392 0.512a504.064 504.064 0 0 1 153.4464-23.4496c242.176 0 438.9376 166.5024 438.9376 371.6096C1001.6256 605.184 804.864 771.7376 563.2 771.7376zM295.936 389.632a57.3952 57.3952 0 1 1 114.8416 0 57.3952 57.3952 0 1 1-114.7904 0z m211.456 0a57.3952 57.3952 0 1 1 114.7904 0 57.3952 57.3952 0 1 1-114.8416 0z m211.3536 0a57.3952 57.3952 0 1 1 114.7904 0 57.3952 57.3952 0 1 1-114.7904 0zM197.3248-90.8288c-13.1584 0-26.4192 5.0688-35.9936 14.0288a53.4016 53.4016 0 0 0-16.384 52.224l28.8256 123.5968c0.1536 0.512-0.2048 1.6896-1.1264 2.8672C89.4464 183.9616 43.52 290.2528 43.52 400.128 43.52 649.8816 276.7872 852.48 563.2 852.48s519.68-202.5984 519.68-452.352c0-249.7536-233.2672-452.352-519.68-452.352-60.928 0-120.1664 9.0112-171.7248 27.0848l-176.2816-62.7712a61.6448 61.6448 0 0 0-17.8688-2.9184z m0 15.36a46.2336 46.2336 0 0 1 13.1072 2.1504l180.736 62.72c54.9888-17.4592 112.64-26.2656 172.032-26.2656 278.3744 0 504.32 196.1984 504.32 436.992S841.5744 837.12 563.2 837.12c-278.3744 0-504.32-196.1984-504.32-436.992 0-105.728 44.2368-208.0768 125.0304-287.8976 4.4032-5.2224 6.4-11.264 4.7104-17.1008l-28.7232-123.3408a38.144 38.144 0 0 1 11.8784-37.376 38.0416 38.0416 0 0 1 25.6-9.8816zM563.2 779.4176c245.76 0 446.0544-169.728 446.6176-379.8016 0-209.664-200.448-379.2896-446.6176-379.2896a511.744 511.744 0 0 0-155.8016 23.8592 60.416 60.416 0 0 1-39.424-0.4608l-144.2816-51.1488 3.2256 13.6704 17.7664 75.7248a75.8272 75.8272 0 0 1-20.9408 71.5776c-68.9664 68.9664-107.1616 156.5696-107.1616 246.5792 0 209.6128 200.448 379.2896 446.6176 379.2896zM245.0944 16.384l117.6064 41.728c15.5648 5.7856 32.9728 5.9392 49.408 0.6656 48.128-15.36 98.9696-23.1424 151.0912-23.1424 238.2336 0 431.2576 163.3792 431.2576 363.8784-0.512 201.0112-193.4848 364.4928-431.2576 364.4928-238.2336 0-431.2576-163.3792-431.2576-363.9296 0-85.8112 36.5056-169.5744 102.656-235.6736 22.9376-22.9376 32.3584-54.9376 25.0368-86.016l-14.5408-61.952z m108.288 438.3232a65.0752 65.0752 0 1 0 0-130.1504 65.0752 65.0752 0 0 0 0 130.1504z m0-114.7904a49.7152 49.7152 0 1 1 0 99.4304 49.7152 49.7152 0 0 1 0-99.4304z m211.4048 114.7904a65.0752 65.0752 0 1 0 0-130.1504 65.0752 65.0752 0 0 0 0 130.1504z m0-114.7904a49.7152 49.7152 0 1 1 0 99.4304 49.7152 49.7152 0 0 1 0-99.4304z m211.3536 114.7904a65.0752 65.0752 0 1 0 0-130.1504 65.0752 65.0752 0 0 0 0 130.1504z m0-114.7904a49.7152 49.7152 0 1 1 0 99.4304 49.7152 49.7152 0 0 1 0-99.4304z"  horiz-adv-x="1126" />

    
    <glyph glyph-name="dianzan" unicode="&#59103;" d="M1023.9936 418.556584v-14.527909l-91.071431-404.477472c0-3.647977-3.647977-10.879932-7.295954-14.591909-10.943932-18.239886-25.53584-36.479772-43.775727-51.007681-21.823864-14.591909-43.711727-18.239886-69.183567-18.239886H43.711727A44.287723 44.287723 0 0 0 0-40.512547V469.628265c0 21.887863 18.239886 43.711727 43.711727 43.711727h145.791089c131.19918 10.943932 233.214542 116.607271 236.79852 247.806451v10.943931A122.879232 122.879232 0 0 0 550.33256 895.9936c58.239636 0 109.311317-40.06375 120.255249-94.719408 7.295954-32.831795 10.879932-65.59959 10.879932-98.431385 0-51.007681-7.231955-102.015362-25.471841-145.727089h244.158474c40.06375 0 80.191499-21.887863 102.015362-58.303636 18.239886-29.183818 21.887863-54.655658 21.887864-80.191498M87.487453-0.448797h83.839476V425.916538h-83.839476v-426.365335z m845.434716 448.189199c-7.295954 14.591909-21.887863 21.887863-36.479772 18.239886H597.628265a44.287723 44.287723 0 0 0-43.711727 43.711726c0 7.295954 0 14.591909 3.647977 18.239886a341.757864 341.757864 0 0 1 36.479772 102.015363s7.231955 21.887863 7.231955 65.59959c0 36.479772-7.295954 65.59959-7.295954 65.59959V764.79442a40.447747 40.447747 0 0 1-40.06375 40.127749c-21.887863 3.583978-40.127749-14.591909-40.127749-36.479772v-3.647977s0-32.767795-7.231955-69.247567c-3.647977-14.527909-7.295954-29.119818-10.943932-40.06375a338.173886 338.173886 0 0 0-236.862519-222.270611v-433.661289h561.148493c7.295954 0 10.943932 3.647977 14.591908 7.295954 7.295954 3.647977 10.943932 10.879932 14.591909 18.175887l87.423454 389.949562a35.391779 35.391779 0 0 1-3.583978 32.767796"  horiz-adv-x="1024" />

    
    <glyph glyph-name="chuangzuo" unicode="&#58911;" d="M896 21.781c17.675 0 32-14.432 32-32.224a32.107 32.107 0 0 0-32-32.224H128a32.107 32.107 0 0 0-32 32.214 32.107 32.107 0 0 0 32 32.234zM597.899 657.675l0.106-0.107 150.944-152a21.333 21.333 0 0 0 0-30.07l-324.8-327.06a159.69 159.69 0 0 0-78.048-43.265l-152.085-34.432c-23.808-5.386-44.608 16.982-37.707 40.555l43.296 147.84a161.344 161.344 0 0 0 40.32 68.373l327.798 330.059a21.333 21.333 0 0 0 30.176 0.107z m242.848 107.722l15.082-15.189c45.824-46.144 45.824-120.95 0-167.083l-31.552-31.786a21.333 21.333 0 0 0-30.176-0.107l-0.106 0.107-150.944 152a21.333 21.333 0 0 0 0 30.08l31.754 31.978a116.768 116.768 0 0 0 165.942 0z"  horiz-adv-x="1024" />

    
    <glyph glyph-name="chuangzuo1" unicode="&#58912;" d="M896 32a32 32 0 0 0 0-64H128a32 32 0 0 0 0 64z m-60.16 733.621l15.093-15.093c45.867-45.835 45.867-120.16 0-166.005L418.795 152.66a160.192 160.192 0 0 0-78.123-42.986l-152.245-34.198c-23.84-5.365-44.662 16.854-37.75 40.288l43.339 146.88a160.043 160.043 0 0 0 40.373 67.926l435.328 435.05c45.867 45.835 120.246 45.835 166.112 0zM636.32 641.696L279.68 285.291a96.021 96.021 0 0 1-24.213-40.747l-27.947-94.656 99.093 22.261a96.117 96.117 0 0 1 46.87 25.782l353.45 353.226-90.602 90.539z m78.699 78.656l-33.398-33.387 90.603-90.538 33.387 33.376a53.333 53.333 0 0 1 0 75.456l-15.094 15.093a53.408 53.408 0 0 1-75.498 0z"  horiz-adv-x="1024" />

    
    <glyph glyph-name="bianji1" unicode="&#58951;" d="M1002.488999 742.622747L867.56793 877.543816a63.642014 63.642014 0 0 1-89.735239 0L507.354133 607.701678 399.79913 500.146675 282.061405 382.40895a63.642014 63.642014 0 0 1-18.456184-40.730889l-12.091983-180.743319a31.821007 31.821007 0 0 1 33.730267-33.730267l180.743319 12.091982a63.642014 63.642014 0 0 1 40.730889 18.456184l118.374145 117.101306 63.642014 63.642013 315.027968 315.027968a63.642014 63.642014 0 0 1-1.272841 89.098819zM462.168303 202.302051l-144.467371-9.546302 9.546302 144.467371 360.213798 360.213797 134.921069-134.921069z m405.399627 405.399627l-134.921069 134.921069L822.382101 832.357986 957.30317 697.436917zM957.30317-64.357986H66.314978v890.988191h445.494096v63.642014H66.314978a63.642014 63.642014 0 0 1-63.642013-63.642014v-890.988191a63.642014 63.642014 0 0 1 63.642013-63.642014h890.988192a63.642014 63.642014 0 0 1 63.642013 63.642014v445.494095h-63.642013z"  horiz-adv-x="1024" />

    
    <glyph glyph-name="tuozhuai" unicode="&#58910;" d="M913.111 326.625L795.535 209.05a12.969 12.969 0 0 0-18.324 0l-18.35 18.35a12.969 12.969 0 0 0 0 18.324l79.365 79.314H537.917V24.73l79.34 79.34a12.969 12.969 0 0 0 18.324 0l18.35-18.351a12.969 12.969 0 0 0 0-18.324l-117.57-117.576c-0.261 0.594-14.31-13.583-24.366-13.583s-23.276 14.177-24.34 13.608L370.078 67.415a12.969 12.969 0 0 0 0 18.325l18.35 18.35a12.969 12.969 0 0 0 18.324 0l79.314-79.366V325.033H185.77l79.34-79.34a12.969 12.969 0 0 0 0-18.324l-18.35-18.35a12.969 12.969 0 0 0-18.325 0l-117.57 117.57c0.593 0.262-13.584 14.31-13.584 24.367s14.177 23.275 13.609 24.34l117.57 117.576a12.969 12.969 0 0 0 18.325 0l18.35-18.35a12.969 12.969 0 0 0 0-18.325l-79.365-79.314h300.308V677.197l-79.34-79.345a12.969 12.969 0 0 0-18.324 0l-18.35 18.35a12.969 12.969 0 0 0 0 18.325l117.576 117.57c0.261-0.594 14.31 13.584 24.366 13.584s23.276-14.178 24.34-13.61l117.571-117.57a12.969 12.969 0 0 0 0-18.324l-18.35-18.35a12.969 12.969 0 0 0-18.324 0l-79.314 79.365v-300.309h300.308l-79.35 79.345a12.969 12.969 0 0 0 0 18.324l18.35 18.35a12.969 12.969 0 0 0 18.325 0l117.57-117.575c-0.593-0.261 13.584-14.31 13.584-24.366 0.005-10.05-14.172-23.27-13.604-24.336z"  horiz-adv-x="1024" />

    
    <glyph glyph-name="thumbs-up" unicode="&#58907;" d="M868.354104 328.881658c56.047504 0 84.071767 168.143535 0 168.143535L700.206476 497.025193c168.147628 280.242635 46.413076 336.290139 0 336.290139 0-142.373615-209.370495-301.023938-420.36293-364.314403L279.843546 20.619875999999977l-56.047504 0L223.796042 469.006046l56.047504 0 0 28.02938L167.749562 497.035426c-30.828123 0-56.047504-37.83777-56.047504-84.076884l0-336.291163c0-46.239114 25.219381-84.070744 56.047504-84.070744l112.095008 0 0 28.018124c238.850923-24.823362 155.578358-84.070744 392.338666-84.070744 56.047504 0 112.095008 28.02324 112.095008 84.070744 56.05262 0 84.076884 140.119271 56.05262 140.119271C896.378367 160.73402999999996 932.281065 328.881658 868.354104 328.881658L868.354104 328.881658zM868.354104 328.881658"  horiz-adv-x="1024" />

    
    <glyph glyph-name="quxiaozan" unicode="&#58908;" d="M846.0819725 332.32655437999995c52.544535 0 78.81728156 157.63456406 0 157.63456406L688.44357125 489.96111844c157.63840125 262.72747031 43.51225875 315.27200531 0 315.27200531 0-133.47526406-196.28483906-282.20994187-394.09024687-341.54475281L294.35332437 43.33113375000005l-52.54453499 0L241.80878938 463.69316812l52.54453499 1e-8 0 26.27754375L189.26521438 489.97071188c-28.90136531 0-52.544535-35.47290938-52.544535-78.82207875l0-315.27296532c0-43.34916938 23.64316969-78.8163225 52.544535-78.8163225l105.08907 0 0 26.26699125c223.92274031-23.27190188 145.85471062-78.8163225 367.81749937-78.8163225 52.544535 0 105.08907 26.2717875 105.08907 78.8163225 52.54933125 0 78.82207875 131.36181656 52.54933125 131.36181657C872.35471906 174.68815312000004 906.01349844 332.32655437999995 846.0819725 332.32655437999995L846.0819725 332.32655437999995zM846.0819725 332.32655437999995"  horiz-adv-x="1024" />

    
    <glyph glyph-name="tupian1" unicode="&#58909;" d="M64.8 650v-652.3c0-33.1 26.9-60 60-60h773c33.1 0 60 26.9 60 60V650c0 33.1-26.9 60-60 60h-773c-33.1 0-60-26.8-60-60zM406 604c54.1 0 98-43.9 98-98s-43.9-98-98-98-98 43.9-98 98 43.9 98 98 98z m440.8-545H175.9c-15.4 0-25 16.7-17.3 30l79.7 190c30.8 53.3 107.8 53.3 138.6 0l36.9-64c16.1-27.8 56.8-26.3 70.7 2.7l120.2 250.4c21.8 45.4 86.5 45.4 108.2-0.1l151.9-380.4c6.4-13.2-3.3-28.6-18-28.6z"  horiz-adv-x="1024" />

    
    <glyph glyph-name="wenzi" unicode="&#60165;" d="M921.6 896H204.8v-102.4h716.8v-716.8H1024V896H921.6zM0-128h819.2V691.2H0z m153.6 665.6h512v-102.4H460.8v-409.6H358.4V435.2H153.6z"  horiz-adv-x="1024" />

    
    <glyph glyph-name="guanbi" unicode="&#59023;" d="M576.884364 384L917.876364 725.271273a44.683636 44.683636 0 0 1 0 62.836363l-1.861819 1.861819a44.683636 44.683636 0 0 1-62.836363 0l-341.085091-341.643637-341.178182 341.643637a44.683636 44.683636 0 0 1-62.836364 0l-1.861818-1.861819a43.845818 43.845818 0 0 1 0-62.836363L447.488 384 106.309818 42.728727a44.683636 44.683636 0 0 1 0-62.836363l1.861818-1.861819a44.683636 44.683636 0 0 1 62.836364 0l341.178182 341.271273 341.085091-341.271273a44.683636 44.683636 0 0 1 62.836363 0l1.861819 1.861819a44.683636 44.683636 0 0 1 0 62.836363L576.884364 384z"  horiz-adv-x="1024" />

    
    <glyph glyph-name="huo" unicode="&#59027;" d="M405.795308-127.692892S-48.178367-27.848712 154.717564 467.75514c0 0 46.06618-55.040555 39.719284-81.5542 0 0 36.102236 125.129395 114.073512 199.824852C375.425752 650.24546 443.39896 830.75664 380.714832 896c0 0 310.622547-65.24336 345.189243-391.528408 0 0 39.753407 103.973075 121.341731 114.244127 0 0-25.114599-57.122063 0-142.805159 0 0 257.288147-440.460928-186.141491-589.305875 0 0 132.90946 150.926455-148.981439 409.920757 0 0-66.471792-138.710387-106.225199-187.608784-0.102369-0.102369-111.002433-124.412809-0.102369-236.60955z"  horiz-adv-x="1024" />

    
    <glyph glyph-name="guangbo" unicode="&#59029;" d="M521.728 679.13728c-45.03552-35.57376-139.28448-85.52448-207.03232-133.55008l-0.06144-0.06144c-0.79872-0.45056-1.57696-3.13344-2.3552-3.54304-8.02816-4.54656-11.63264-16.93696-55.11168-16.93696l-84.992 0c-21.7088 0-35.26656-10.1376-35.26656-33.05472l0-203.75552c0-22.8352 12.3904-34.18112 35.26656-34.18112l85.31968 0c43.3152-0.12288 46.85824-12.43136 54.784-16.896 0.73728-0.43008 1.55648-3.05152 2.29376-3.56352l0.1024-0.02048c65.65888-48.08704 160.52224-101.96992 206.99136-136.0896 14.0288-10.3424 59.47392-42.72128 59.47392 20.91008L581.14048 389.65248 581.14048 661.54496C581.07904 725.27872 535.40864 689.9712 521.728 679.13728L521.728 679.13728 521.728 679.13728 521.728 679.13728zM857.45664 424.20224l-144.7936 0c-16.44544 0-29.61408-13.29152-29.61408-29.696l0-9.25696c0-16.42496 13.18912-29.73696 29.61408-29.73696l144.7936 0c16.44544 0 29.65504 13.312 29.65504 29.73696l0 9.216C887.15264 410.89024 873.90208 424.20224 857.45664 424.20224L857.45664 424.20224 857.45664 424.20224 857.45664 424.20224zM769.7408 695.1936l-102.42048-102.4c-11.59168-11.59168-11.5712-30.33088 0.04096-41.94304l6.5536-6.53312c11.59168-11.59168 30.35136-11.6736 41.96352-0.08192l102.37952 102.4c11.63264 11.61216 11.53024 30.35136-0.08192 41.984l-6.51264 6.51264C800.13312 706.80576 781.33248 706.82624 769.7408 695.1936L769.7408 695.1936 769.7408 695.1936 769.7408 695.1936zM769.7408 102.13376 769.7408 102.13376 769.7408 102.13376c11.59168-11.63264 30.39232-11.59168 41.92256 0.08192l6.51264 6.47168c11.61216 11.63264 11.71456 30.35136 0.08192 42.00448l-102.37952 102.37952c-11.59168 11.59168-30.35136 11.53024-41.96352-0.08192l-6.5536-6.53312c-11.61216-11.5712-11.63264-30.33088-0.04096-41.94304L769.7408 102.13376 769.7408 102.13376zM689.29536 247.97184"  horiz-adv-x="1024" />

    
    <glyph glyph-name="guangbo1" unicode="&#59021;" d="M524.226 772.563c-56.554-44.66-174.896-107.412-259.96-167.697l-0.098-0.064c-0.998-0.565-1.962-3.934-2.934-4.466-10.092-5.694-14.619-21.251-69.21-21.251H85.31c-27.274 0.001-44.297-12.724-44.297-41.5v-255.821c0-28.68 15.59-42.935 44.297-42.935h107.112c54.393-0.134 58.852-15.62 68.782-21.216 0.928-0.566 1.966-3.83 2.893-4.465l0.132-0.063c82.438-60.356 201.542-127.998 259.898-170.83 17.581-12.99 74.701-53.66 74.701 26.213V750.482c-0.035 80.031-57.455 35.708-74.602 22.081z m421.555-320.107H763.962c-20.614 0-37.203-16.686-37.203-37.274v-11.622c0-20.613 16.589-37.337 37.203-37.337h181.82c20.622 0 37.204 16.724 37.204 37.337V415.12c0.104 20.65-16.556 37.337-37.205 37.337zM692.021 596.27c9.63-16.918 28.74-21.112 42.669-9.42l149.312 125.364c13.954 11.692 17.387 34.967 7.828 51.893l-5.466 9.589c-9.692 16.95-28.777 21.25-42.767 9.524L694.354 657.792c-13.92-11.725-17.52-34.904-7.791-51.96l5.458-9.562z m42.633-365.038c-13.858 11.726-33.04 7.5-42.67-9.455l-5.492-9.532c-9.692-16.98-6.128-40.196 7.791-51.921l149.25-125.366c13.955-11.76 33.11-7.526 42.767 9.427l5.395 9.552c9.692 16.926 6.226 40.202-7.729 51.865l-149.312 125.43z m0 0"  horiz-adv-x="1024" />

    
    <glyph glyph-name="guangbo2" unicode="&#58906;" d="M80.842105 258.371368h213.989053L592.842105-6.898526V784.168421l-304.505263-256.350316H80.842105v-269.473684z m178.014316 350.31579L585.081263 883.334737A53.894737 53.894737 0 0 0 673.684211 842.105263v-909.069474a53.894737 53.894737 0 0 0-89.734737-40.259368L264.084211 177.529263H53.894737a53.894737 53.894737 0 0 0-53.894737 53.894737v323.368421a53.894737 53.894737 0 0 0 53.894737 53.894737h204.961684zM848.842105 445.520842h134.736842a40.421053 40.421053 0 0 0 0-80.842105h-134.736842a40.421053 40.421053 0 0 0 0 80.842105z m-5.416421 289.684211l116.682105 67.368421a40.421053 40.421053 0 1 0 40.421053-70.009263l-116.682105-67.368422a40.421053 40.421053 0 0 0-40.421053 70.009264z m130.15579-646.736842a40.421053 40.421053 0 1 0-40.421053-70.009264l-116.682105 67.368421a40.421053 40.421053 0 0 0 40.421052 70.009264l116.682106-67.368421z"  horiz-adv-x="1024" />

    
    <glyph glyph-name="liaotian" unicode="&#58913;" d="M680.96 765.7472H163.84c-39.936 0-72.704-32.768-72.704-72.704v-309.76c0-39.936 32.768-72.704 72.704-72.704h30.72v-157.696c0-10.24 12.8-15.36 19.968-8.192l71.68 71.68c-5.632 13.824-8.704 28.16-8.704 43.52v289.28c0 62.976 51.2 114.176 114.176 114.176h361.984v30.72c0 39.936-32.768 72.704-72.704 72.704v-1.024z m-289.28-143.872c-39.936 0-72.704-32.768-72.704-72.704v-289.28c0-39.936 32.768-72.704 72.704-72.704H670.72l166.912-166.912c7.168-7.168 19.456-2.048 19.456 8.192v158.72h30.72c39.936 0 72.704 32.768 72.704 72.704v289.28c0 39.936-32.768 72.704-72.704 72.704H391.68z m434.176-217.088c0-23.04-18.432-41.472-41.472-41.472s-41.472 18.432-41.472 41.472 18.432 41.472 41.472 41.472 41.472-18.944 41.472-41.472z m-144.384 0c0-23.04-18.432-41.472-41.472-41.472s-41.472 18.432-41.472 41.472 18.432 41.472 41.472 41.472c22.528 0 40.96-18.944 41.472-41.472z m-144.896 0c0-23.04-18.432-41.472-41.472-41.472s-41.472 18.432-41.472 41.472 18.432 41.472 41.472 41.472c22.528 0 41.472-18.944 41.472-41.472z"  horiz-adv-x="1024" />

    
    <glyph glyph-name="erweima1" unicode="&#58904;" d="M64 812v-394.625h408.188V812H64z m335.188-321.688H137V742.35h262.188v-252.037zM64 344.413V-50.25h408.188V344.413H64z m335.188-321.6H137V274.75h262.188v-251.938zM548.524 812v-394.625H960V812H548.525z m338.538-321.688h-265.5V742.35h265.5v-252.037z m-265.5-540.562h-73.025V344.413h222.337v-165.775c0-9.938 3.313-9.938 10-9.938h106.188V347.725H960V99H694.5V278.125h-69.625l-3.313-3.375v-325z m76.25 0h112.812V55.938H697.812V-50.25z m152.687 0H960V55.938H850.5V-50.25z m-637.188 613.5V669.375h109.525v-99.463c0-3.337 0-9.962-6.587-9.962h-99.625c0 3.3 0 3.3-3.313 3.3z m0-467.563V201.812H316.25c3.313 0 9.9 0 9.9-6.687v-99.438H213.313z m487.875 573.688H814V563.25H707.812c-6.625 0-10 0-10 6.65v96.15c0 0.012 3.375 0.012 3.375 3.325z"  horiz-adv-x="1024" />

    
    <glyph glyph-name="yuyin" unicode="&#58982;" d="M795.9 421.3v0.5c0 21.4-17.5 38.8-38.8 38.8-21.4 0-38.4-17.4-38.4-38.8 0-114.5-92.6-207.5-206.7-207.5s-206.7 93-206.7 207.5c0 21.4-17 38.8-38.4 38.8S228 443.2 228 421.8v-0.5c0-144.2 106.6-263 245.1-281.8v-93.9H344.2c-21.4 0-38.9-17.4-38.9-38.8 0-21.5 17.4-38.9 38.9-38.9h335.5c21.5 0.1 38.9 17.4 38.9 38.9 0 21.4-17.5 38.8-38.9 38.8H550.9v93.9c138.5 18.8 245 137.6 245 281.8zM512 279.3c85.6 0 155.1 69.5 155.1 155.5V642.3c0 85.7-69.4 155.5-155.1 155.5-85.6 0-155-69.9-155-155.5v-207.5c0-86 69.4-155.5 155-155.5z m0 0"  horiz-adv-x="1024" />

    
    <glyph glyph-name="chahao2" unicode="&#58946;" d="M587.7 375.6L826.1 614c20 20 20 52.4 0 72.4s-52.4 20-72.4 0L515.3 448 276.9 686.3c-20 20-52.4 20-72.4 0s-20-52.4 0-72.4l238.4-238.4-238.4-238.3c-20-20-20-52.4 0-72.4 10-10 23.1-15 36.2-15 13.1 0 26.2 5 36.2 15l238.4 238.4 238.4-238.4c10-10 23.1-15 36.2-15s26.2 5 36.2 15c20 20 20 52.4 0 72.4L587.7 375.6z"  horiz-adv-x="1024" />

    
    <glyph glyph-name="arrow-left" unicode="&#58903;" d="M759.54231453 557.9165782800001l45.00523567-43.4788227-302.82689094-304.35253143-302.82689095 304.35253143 45.00523567 43.47882271 257.82242775-256.29678726z"  horiz-adv-x="1024" />

    
    <glyph glyph-name="jiahao2" unicode="&#59742;" d="M548.48 420.48H768a36.48 36.48 0 0 0 0-72.96H548.48V128a36.48 36.48 0 0 0-72.96 0V347.52H256a36.48 36.48 0 0 0 0 72.96h219.52V640a36.48 36.48 0 0 0 72.96 0zM73.173333 384A438.826667 438.826667 0 1 1 512 822.826667 438.826667 438.826667 0 0 1 73.173333 384zM0 384a512 512 0 1 0 512-512A512 512 0 0 0 0 384z"  horiz-adv-x="1024" />

    
    <glyph glyph-name="chevron-left" unicode="&#59481;" d="M243.8673056 417.5165862a33.5165862 33.5165862 0 0 0 23.79677712-9.71980909l469.23221477-469.23221478a33.5165862 33.5165862 0 0 0-47.59355424-47.59355263l-469.23221316 469.23221319a33.5165862 33.5165862 0 0 0 0 47.59355422A33.5165862 33.5165862 0 0 0 243.8673056 417.5165862zM713.09952038 886.74880099a33.5165862 33.5165862 0 0 0 23.79677711-9.71981068 33.5165862 33.5165862 0 0 0 0-47.59355264l-469.23221477-469.23221478a33.5165862 33.5165862 0 0 0-47.59355263 47.59355422l469.23221316 469.23221319A33.5165862 33.5165862 0 0 0 713.09952038 886.74880099z"  horiz-adv-x="1024" />

    
    <glyph glyph-name="tongxunlu" unicode="&#58995;" d="M554.666667 341.333333c141.44 0 256-114.624 256-256v-108.309333c0-23.573333-19.2-42.666667-42.666667-42.666667H85.333333c-23.466667 0-42.666667 19.093333-42.666666 42.666667V85.333333c0 141.376 114.56 256 256 256h256z m0-85.333333H298.666667c-94.293333 0-170.666667-76.373333-170.666667-170.666667v-65.642666h597.333333V85.333333c0 94.293333-76.373333 170.666667-170.666666 170.666667z m405.333333 85.333333a21.333333 21.333333 0 0 0 21.333333-21.333333v-42.666667a21.333333 21.333333 0 0 0-21.333333-21.333333h-85.333333a21.333333 21.333333 0 0 0-21.333334 21.333333v42.666667a21.333333 21.333333 0 0 0 21.333334 21.333333h85.333333zM426.666667 832c117.76 0 213.333333-95.509333 213.333333-213.333333s-95.573333-213.333333-213.333333-213.333334-213.333333 95.509333-213.333334 213.333334S308.906667 832 426.666667 832z m533.333333-320a21.333333 21.333333 0 0 0 21.333333-21.333333v-42.666667a21.333333 21.333333 0 0 0-21.333333-21.333333H746.666667a21.333333 21.333333 0 0 0-21.333334 21.333333v42.666667a21.333333 21.333333 0 0 0 21.333334 21.333333h213.333333zM426.666667 746.666667c-70.656 0-128-57.322667-128-128s57.344-128 128-128 128 57.322667 128 128-57.344 128-128 128z"  horiz-adv-x="1024" />

    
    <glyph glyph-name="jiahao3" unicode="&#58961;" d="M512 875.52a491.52 491.52 0 1 1 491.52-491.52A491.52 491.52 0 0 1 512 875.52z m234.9056-537.6h-188.8256v-188.8256a46.08 46.08 0 0 0-92.16 0v188.8256h-188.8256a46.08 46.08 0 0 0 0 92.16h188.8256v188.8256a46.08 46.08 0 0 0 92.16 0v-188.8256h188.8256a46.08 46.08 0 0 0 0-92.16z"  horiz-adv-x="1024" />

    
    <glyph glyph-name="chahao1" unicode="&#58924;" d="M768.001182 597.343114c0-11.854715-4.332288-21.740207-13.036248-29.656479L572.457469 383.997637l182.507465-183.688998c8.664575-8.70396 13.036248-18.786375 13.036248-30.247245 0-11.421486-4.135366-21.306979-12.445481-29.617095-8.270731-8.270731-18.353146-12.445481-30.207861-12.445481s-22.134052 3.938443-30.838012 11.815331L512.002363 323.581916l-182.507465-183.688999c-8.664575-7.876887-18.983297-11.854715-30.838012-11.854714-11.81533 0-21.897745 4.135366-30.20786 12.445481a41.156733 41.156733 0 0 0-12.445481 30.207861c0 11.854715 4.332288 21.740207 13.036247 29.656478L451.547257 383.997637 269.039792 567.686635a38.360438 38.360438 0 0 0-13.036247 29.656479c0 11.81533 4.135366 21.897745 12.445481 30.20786 8.270731 8.270731 18.353146 12.445481 30.20786 12.445481s22.134052-3.938443 30.838012-11.81533L512.002363 444.413358l182.507465 183.688998c8.664575 7.876887 18.983297 11.854715 30.838012 11.854715 11.81533 0 21.897745-4.135366 30.207861-12.445481 8.270731-8.270731 12.445481-18.353146 12.445481-30.207861z m105.904742-575.249038a517.984071 517.984071 0 0 1 110.51272 162.933402A508.925651 508.925651 0 0 1 1024 383.997637c0 69.828601-13.58763 136.151987-40.723504 198.970159a501.954606 501.954606 0 0 1-109.370572 162.933401 517.984071 517.984071 0 0 1-162.933402 110.512721A508.925651 508.925651 0 0 1 512.002363 895.995274c-69.828601 0-136.151987-13.58763-198.970159-40.723504A501.954606 501.954606 0 0 1 150.059418 745.901197a517.984071 517.984071 0 0 1-110.512721-162.933401A508.925651 508.925651 0 0 1 0.004726 383.997637c0-69.828601 13.58763-136.151987 40.723505-198.970159a501.954606 501.954606 0 0 1 109.370572-162.933402 517.984071 517.984071 0 0 1 162.933401-110.51272C375.850376-114.806215 442.213147-128 512.002363-128c69.828601 0 136.151987 13.58763 198.970159 40.723504a501.954606 501.954606 0 0 1 162.933402 109.370572z"  horiz-adv-x="1024" />

    
    <glyph glyph-name="fenxiang" unicode="&#58895;" d="M853.57763047 234.28456167000002c-65.67886238 0-119.38098989-35.15750804-144.39047088-89.73535524l-317.4735906 135.04089038c18.51886258 28.69264883 28.69264883 63.85015691 28.69264886 101.76360159 0 15.71141429-1.8544624 31.44858551-5.56338496 46.25852556l202.70299753 157.26867771c26.86394335-20.34756807 61.11997713-32.37581442 99.05917651-32.37581446 91.64132922 0 160.12764207 68.46055598 160.1276421 159.09738547 0 90.66258639-68.51206758 159.12314013-160.1276421 159.12314011-91.64132922 0-159.20041087-68.46055598-159.20040864-159.12314011 0-23.12926165 4.63615603-44.40406313 12.02824643-62.89716877l-186.99158544-143.38597117c-37.01197045 55.50507838-98.10619067 94.37151122-167.51973252 94.37150892a204.96956162 204.96956162 0 0 1-205.48469111-205.38166563 204.96956162 204.96956162 0 0 1 205.48469111-205.35590868c42.5753554 0 82.36901945 11.07525829 114.7705931 31.42282856l364.71085663-155.38846066c4.63615603-86.02643041 71.26800424-149.85083038 159.17465398-149.85083037 91.66708611 0 159.22616782 68.43479904 159.22616779 159.09738321 0 90.66258639-68.51206758 160.05037133-159.20041085 160.05037358z"  horiz-adv-x="1024" />

    
    <glyph glyph-name="tongxunlu1" unicode="&#58998;" d="M512 256a228.693333 228.693333 0 0 0-228.693333 208.64l-8.533334 95.573333A229.12 229.12 0 0 0 503.466667 810.666667h17.066666a229.12 229.12 0 0 0 228.693334-250.453334l-8.533334-95.573333A228.693333 228.693333 0 0 0 512 256z m-8.533333 469.333333a144.213333 144.213333 0 0 1-143.786667-157.44l8.533333-95.573333a144.213333 144.213333 0 0 1 287.573334 0l8.533333 95.573333A144.213333 144.213333 0 0 1 520.533333 725.333333zM554.666667-42.666667H298.666667a128 128 0 0 0-128 128v158.293334l168.106666 58.88A543.146667 543.146667 0 0 0 512 341.333333v-85.333333a457.813333 457.813333 0 0 1-145.066667-34.133333l-110.933333-38.826667V85.333333a42.666667 42.666667 0 0 1 42.666667-42.666666h256zM640 256h256v-85.333333h-256zM640 128h256v-85.333333h-256z"  horiz-adv-x="1024" />

    
    <glyph glyph-name="sangedian" unicode="&#58896;" d="M109.714286 501.028571C175.542857 501.028571 219.428571 457.142857 219.428571 391.314286s-43.885714-109.714286-109.714285-109.714286S0 332.8 0 391.314286s51.2 109.714286 109.714286 109.714285z m402.285714 0c58.514286 0 109.714286-51.2 109.714286-109.714285S570.514286 281.6 512 281.6s-109.714286 51.2-109.714286 109.714286 51.2 109.714286 109.714286 109.714285z m402.285714 0c58.514286 0 109.714286-43.885714 109.714286-109.714285s-51.2-109.714286-109.714286-109.714286S804.571429 332.8 804.571429 391.314286s43.885714 109.714286 109.714285 109.714285z"  horiz-adv-x="1024" />

    
    <glyph glyph-name="weixin" unicode="&#58897;" d="M813.834 587.459c13.415 0 26.83 0 40.245-4.472C818.306 761.852 634.969 896 424.803 896 192.28 896 0 730.55 0 515.913c0-120.734 62.603-223.581 169.921-299.599l-40.244-134.148 147.563 76.017c53.66-8.943 93.904-22.358 147.563-22.358h40.245c-8.943 31.302-13.415 62.603-13.415 93.904 0 196.751 160.978 357.73 362.201 357.73z m-478.463 22.358c0-4.472-4.471-4.472-8.943-8.944-13.415-8.943-26.83-17.886-44.716-17.886-35.773 0-67.074 31.301-67.074 67.074s31.3 67.074 67.074 67.074c35.773 0 67.074-31.3 67.074-67.074 0-13.415-4.472-26.83-13.415-40.244z m259.354-4.472l-8.943-8.943c-13.415-8.943-26.83-17.887-44.716-17.887-35.773 0-67.075 31.302-67.075 67.075s31.302 67.074 67.075 67.074c35.772 0 67.074-31.302 67.074-67.074 0-13.415-4.472-26.83-13.415-40.245zM1202.865 234.2c-4.472 169.922-160.979 304.07-348.786 295.128-187.808-4.472-335.372-147.564-330.9-317.485 4.472-169.922 160.978-304.07 348.786-295.127 35.773 0 71.546 8.943 102.847 17.887l111.79-62.603-31.3 102.847c93.903 53.66 152.034 152.035 147.563 259.354zM804.89 323.634c-8.943-22.358-26.83-35.773-49.188-35.773-31.301 0-53.66 22.358-53.66 53.66 0 31.301 22.359 53.659 53.66 53.659 17.887 0 35.773-8.943 44.716-22.358 4.472-8.943 8.943-17.887 8.943-26.83 0-8.943 0-17.886-4.471-22.358z m205.694-4.471c-8.943-22.359-26.83-35.773-49.188-35.773-31.3 0-53.659 22.358-53.659 53.659s22.358 53.66 53.66 53.66c17.886 0 35.772-8.944 44.716-22.359 4.471-8.943 8.943-17.886 8.943-26.83 0-8.943 0-13.414-4.472-22.357z"  horiz-adv-x="1204" />

    
    <glyph glyph-name="weixin1" unicode="&#59448;" d="M739.1232 545.0752h-2.3552v2.3552c0.1024 0.512 0.1024 1.024 0 1.536C704.8192 700.8256 547.2256 814.7968 369.4592 814.7968 168.3456 814.7968 5.12 670.5152 5.12 492.4416c0-94.5152 46.1824-179.8144 133.3248-247.5008l1.6384-1.2288-30.0032-94.8224c-2.56-6.9632-0.512-14.9504 5.12-19.6608 5.4272-4.9152 13.1072-6.144 19.6608-2.9696l115.6096 59.6992 14.0288-2.9696c34.4064-8.6016 69.632-13.312 104.96-14.1312 13.9264 0.512 27.7504 2.4576 41.2672 5.8368h2.3552l1.024-2.4576c44.9536-109.6704 162.9184-183.0912 293.5808-183.0912 33.792 1.2288 67.3792 6.7584 99.9424 16.384h1.1264l88.9856-50.2784c6.3488-3.584 14.1312-2.8672 19.7632 1.8432s7.9872 12.3904 5.9392 19.5584l-22.528 77.312 1.3312 1.3312C977.7152 118.1696 1018.88 193.1264 1018.88 267.3664c0 140.288-123.2896 261.5296-280.576 276.3776l0.8192 1.3312zM394.1376 276.0704c0-18.5344 2.2528-37.0688 6.656-55.0912l0.8192-3.4816H398.336c-9.5232-0.8192-19.3536-1.2288-28.7744-1.2288-31.8464 0.9216-63.488 5.4272-94.4128 13.2096L256 233.472c-3.7888 0.8192-7.68 0.3072-11.1616-1.536l-79.6672-41.2672 20.2752 62.976c2.4576 7.168 0.2048 15.0528-5.632 19.6608-83.2512 60.416-126.2592 133.9392-126.2592 218.4192 0 152.2688 141.9264 275.3536 316.5184 275.3536 149.9136 0 287.232-94.5152 318.1568-219.9552l1.024-3.584h-3.6864c-160.9728-4.096-291.4304-124.6208-291.4304-267.4688z m467.6608-189.2352c-5.7344-4.4032-8.192-12.0832-6.0416-19.1488l12.8-44.544-53.9648 30.6176c-3.7888 2.1504-8.192 2.6624-12.288 1.536-30.8224-9.6256-62.6688-15.4624-94.8224-17.2032-145.1008 0-263.2704 103.2192-263.2704 229.376s118.5792 230.0928 263.2704 230.0928c142.4384 0 262.8608-104.96 262.8608-229.376 0-62.976-38.6048-127.488-108.6464-181.8624v0.512z m0 0M208.384 599.4496c0-25.3952 19.8656-45.9776 44.4416-45.9776s44.4416 20.5824 44.4416 45.9776c0 25.3952-19.8656 45.9776-44.4416 45.9776s-44.4416-20.5824-44.4416-45.9776z m242.0736 0c0-25.3952 19.8656-45.9776 44.4416-45.9776s44.4416 20.5824 44.4416 45.9776c0 25.3952-19.8656 45.9776-44.4416 45.9776s-44.4416-20.5824-44.4416-45.9776z m135.7824-250.0608c0-19.6608 15.4624-35.6352 34.5088-35.6352s34.5088 15.9744 34.5088 35.6352c0 19.6608-15.4624 35.6352-34.5088 35.6352s-34.5088-15.9744-34.5088-35.6352z m187.0848 0c0-19.6608 15.4624-35.6352 34.5088-35.6352s34.5088 15.9744 34.5088 35.6352c0 19.6608-15.4624 35.6352-34.5088 35.6352s-34.5088-15.9744-34.5088-35.6352z m0 0"  horiz-adv-x="1024" />

    
    <glyph glyph-name="shoucang111" unicode="&#58900;" d="M785.06666667-102.05866666999998c-10.92266667 0-23.66577778 3.64088889-34.58844445 9.10222222l-236.65777777 118.3288889L275.34222222-92.95644445000005c-23.66577778-12.74311111-54.61333333-10.92266667-76.45866667 5.46133334-21.84533333 16.384-34.58844445 45.51111111-29.1271111 72.81777778l49.152 254.86222222-187.50577778 174.76266666c-20.02488889 20.02488889-27.30666667 50.97244445-20.02488889 76.45866667 9.10222222 27.30666667 30.94755555 47.33155555 60.07466667 50.97244445l260.32355555 47.33155555 116.50844445 236.65777778c12.74311111 25.48622222 38.22933333 41.87022222 65.536 41.87022222s54.61333333-16.384 65.536-41.87022222l116.50844444-236.65777778 260.32355556-45.51111111c27.30666667-3.64088889 50.97244445-23.66577778 58.25422222-50.97244444 9.10222222-27.30666667 1.82044445-56.43377778-18.20444445-76.45866667l-187.50577777-176.58311111 47.33155555-254.86222222c5.46133333-29.12711111-7.28177778-56.43377778-29.12711111-72.81777778-10.92266667-9.10222222-25.48622222-14.56355555-41.87022222-14.56355556z"  horiz-adv-x="1024" />

    
    <glyph glyph-name="weixin2" unicode="&#58952;" d="M985.875692 56.241231c5.828923 0 11.579077-1.890462 16.226462-5.513846l37.651692-28.672-5.907692 48.600615a27.569231 27.569231 0 0 0 9.767384 24.497231c53.563077 44.268308 83.180308 103.817846 83.180308 167.620923 0 128-121.147077 232.211692-270.020923 232.211692S586.830769 390.774154 586.830769 262.695385c0-128.078769 121.147077-232.211692 269.942154-232.211693 40.802462-0.236308 81.132308 7.876923 118.705231 23.63077a26.781538 26.781538 0 0 0 10.397538 2.048m88.457846-122.171077a27.096615 27.096615 0 0 0-16.30523 5.513846l-76.406154 58.289231a357.927385 357.927385 0 0 0-124.849231-21.976616c-178.569846 0-323.899077 128.708923-323.899077 286.877539s145.329231 286.798769 323.899077 286.798769c178.648615 0 323.977846-128.630154 323.977846-286.798769 0-74.594462-33.161846-146.747077-91.608615-199.995077l11.972923-98.067693a27.569231 27.569231 0 0 0-6.537846-21.42523 26.860308 26.860308 0 0 0-20.243693-9.216M259.150769 243.554462a28.356923 28.356923 0 0 1-10.161231 29.61723c-73.255385 55.374769-115.790769 135.010462-115.790769 220.23877 0 160.295385 150.134154 292.155077 337.132308 292.155076 168.172308 0 309.011692-107.441231 333.351385-248.832l53.090461 9.767385C827.628308 715.854769 663.394462 841.176615 470.331077 841.176615c-215.118769 0-391.010462-154.624-391.010462-347.766153 0-97.673846 45.371077-188.494769 123.037539-253.400616l-36.785231-141.233231c-6.222769-23.709538 18.353231-43.480615 39.069539-31.507692l159.586461 91.372308c34.264615-8.664615 69.789538-12.918154 106.023385-12.918154 29.538462 0 58.683077 2.835692 87.04 8.585846l-10.397539 54.587077a389.198769 389.198769 0 0 0-179.357538 6.301538 26.308923 26.308923 0 0 1-20.086154-2.599384L234.180923 147.692308l24.891077 95.862154zM359.345231 569.580308a54.508308 54.508308 0 0 1 48.285538 27.017846 55.138462 55.138462 0 0 1 0 55.532308 54.429538 54.429538 0 0 1-101.612307-27.72677c0-29.853538 23.630769-54.193231 53.326769-54.823384m395.342769-246.784a41.353846 41.353846 0 0 1 35.446154 61.755077 40.881231 40.881231 0 0 1-76.406154-20.637539 40.96 40.96 0 0 1 40.96-41.117538M604.790154 569.580308a54.429538 54.429538 0 0 1 48.206769 27.017846 55.138462 55.138462 0 0 1 0 55.532308 54.429538 54.429538 0 0 1-101.533538-27.72677c0-29.853538 23.630769-54.193231 53.326769-54.823384m340.755692-246.784a41.353846 41.353846 0 0 1 35.446154 61.755077 40.881231 40.881231 0 0 1-76.406154-20.637539 40.96 40.96 0 0 1 40.96-41.117538"  horiz-adv-x="1260" />

    
    <glyph glyph-name="erweima" unicode="&#58901;" d="M840.526769-128v91.726769h-93.853538V-128h93.853538z m140.8 0A42.791385 42.791385 0 0 1 1024-85.326769v51.2h-91.726769V-128M371.2 802.126769v-279.453538H93.873231V802.126769H371.2M422.4 896H42.673231A42.791385 42.791385 0 0 1 0 853.326769V473.6c0-23.473231 19.2-42.673231 42.673231-42.673231H422.4a42.791385 42.791385 0 0 1 42.673231 42.673231V853.326769A42.791385 42.791385 0 0 1 422.4 896zM185.6 663.473231c0-12.8 4.273231-23.473231 12.8-32 8.526769-8.546462 21.326769-12.8 32-12.8 12.8 0 23.473231 4.253538 32 12.8 8.526769 8.526769 12.8 21.326769 12.8 32 0 12.8-4.273231 23.453538-12.8 32-8.526769 8.526769-21.326769 12.8-32 12.8-12.8 0-23.473231-4.273231-32-12.8-8.526769-6.4-12.8-19.2-12.8-32z m744.526769 138.653538v-279.453538H652.8V802.126769h277.326769M981.326769 896H601.6a42.791385 42.791385 0 0 1-42.673231-42.673231V473.6c0-23.473231 19.2-42.673231 42.673231-42.673231h379.726769A42.791385 42.791385 0 0 1 1024 473.6V853.326769A42.791385 42.791385 0 0 1 981.326769 896zM744.526769 663.473231c0-12.8 4.273231-23.473231 12.8-32 8.546462-8.546462 21.346462-12.8 32-12.8 12.8 0 23.473231 4.253538 32 12.8 8.546462 8.526769 12.8 21.326769 12.8 32 0 12.8-4.253538 23.453538-12.8 32-8.526769 8.526769-21.326769 12.8-32 12.8-12.8 0-23.453538-4.273231-32-12.8-6.4-6.4-12.8-19.2-12.8-32zM371.2 243.2v-279.473231H93.873231V243.2H371.2m51.2 93.873231H42.673231A42.791385 42.791385 0 0 1 0 294.4v-379.726769C0-108.8 19.2-128 42.673231-128H422.4a42.791385 42.791385 0 0 1 42.673231 42.673231V294.4a42.791385 42.791385 0 0 1-42.673231 42.673231zM185.6 104.526769c0-12.8 4.273231-23.453538 12.8-32 8.526769-8.526769 21.326769-12.8 32-12.8 12.8 0 23.473231 4.273231 32 12.8 8.526769 8.546462 12.8 21.346462 12.8 32 0 12.8-4.273231 23.473231-12.8 32-8.526769 8.546462-21.326769 12.8-32 12.8-12.8 0-23.473231-4.253538-32-12.8-8.526769-8.526769-12.8-21.326769-12.8-32z m795.726769 232.546462h-51.2v-185.6h-93.853538v185.6H601.6a42.791385 42.791385 0 0 1-42.673231-42.673231v-379.726769c0-23.473231 19.2-42.673231 42.673231-42.673231h51.2V153.6h93.873231v-93.873231H1024V294.4a42.791385 42.791385 0 0 1-42.673231 42.673231z"  horiz-adv-x="1024" />

    
    <glyph glyph-name="mingpian" unicode="&#59057;" d="M866.304 728.064H157.696c-58.368 0-105.984-47.616-105.984-105.984v-476.672c0-58.368 47.616-105.984 105.984-105.984h708.608c58.368 0 105.984 47.616 105.984 105.984V622.08c0 58.88-47.616 105.984-105.984 105.984z m-225.28-209.92H788.48c11.776 0 22.528-15.872 22.528-27.648 0-11.776-10.752-27.648-22.528-27.648h-146.944c-11.776 0-22.528 15.872-22.528 27.648-0.512 11.776 10.752 27.648 22.016 27.648z m0-118.272H788.48c11.776 0 22.528-15.872 22.528-27.648 0-11.776-10.752-27.648-22.528-27.648h-146.944c-11.776 0-22.528 15.872-22.528 27.648-0.512 11.776 10.752 27.648 22.016 27.648z m-480.256-204.8c-11.264 2.048-18.944 13.312-16.896 24.576 13.824 71.168 67.072 126.464 134.144 145.92-34.816 18.944-58.88 55.296-58.88 97.28 0 61.44 49.664 111.104 111.104 111.104 60.928 0 111.104-49.664 111.104-111.104 0-42.496-24.064-78.848-58.88-97.28 67.584-19.456 120.832-74.752 134.144-146.432 2.048-11.264-5.632-22.528-16.896-24.576-1.536-0.512-2.56-0.512-4.096-0.512m363.52 32.768h-218.112c-11.776 0-22.528 15.872-22.528 27.648 0 11.776 10.752 27.648 22.528 27.648h218.112c11.776 0 22.528-15.872 22.528-27.648 0-11.776-10.752-27.648-22.528-27.648z m0 0"  horiz-adv-x="1024" />

    
    <glyph glyph-name="bianji" unicode="&#58933;" d="M818.3-44.3c22 0 39.9-18.7 39.9-41.9 0-23.1-17.8-41.8-39.9-41.8H113c-22 0-39.9 18.7-39.9 41.8 0 23.1 17.9 41.9 39.9 41.9h705.3z m-707.2 56.4l95.8 268.5L363 116.7 111.1 12.1z m284 135.6L237.6 312.9l428.1 445.7 157.5-165.2-428.1-445.7z m457.5 479.9L695.1 792.9l78.8 82.6c26.1 27.4 68.4 27.4 94.5 0l63-66.1c26.1-27.4 26.1-71.8 0-99.2l-78.8-82.6z"  horiz-adv-x="1024" />

    
    <glyph glyph-name="chahao" unicode="&#58890;" d="M512.044718 896C229.259269 896 0 666.779406 0 384.044718c0-282.78424 229.259269-512.044718 512.044718-512.044718 282.734688 0 511.955282 229.259269 511.955282 512.044718C1024 666.779406 794.779406 896 512.044718 896L512.044718 896 512.044718 896zM736.312497 228.73202c19.05589-19.05589 19.05589-49.949952 0-69.039683-19.05589-19.05589-49.989836-19.017215-69.007051 0.07735L512.044718 314.992949 356.770695 159.692337c-19.094565-19.017215-49.99467-19.017215-69.001008 0-19.094565 19.088522-19.094565 49.983793-0.044718 69.039683l155.26798 155.311489L287.75881 539.26798c-19.083688 19.054682-19.083688 49.955995-0.032632 69.044517 19.051056 19.016007 49.989836 19.016007 69.044517 0l155.272814-155.26798 155.261937 155.26798c19.016007 19.016007 49.949952 19.016007 69.007051 0 19.05589-19.088522 19.05589-49.989836 0-69.044517L581.05056 384.006043 736.312497 228.73202 736.312497 228.73202 736.312497 228.73202zM736.312497 228.73202"  horiz-adv-x="1024" />

    
    <glyph glyph-name="zuzhi" unicode="&#58887;" d="M1195.054545 212.945455h-97.745454V344.436364c0 43.054545-32.581818 79.127273-73.309091 79.127272H658.618182V553.890909h73.309091c26.763636 0 48.872727 23.272727 48.872727 52.363636V843.636364C780.8 872.727273 759.854545 896 731.927273 896H512c-26.763636 0-48.872727-23.272727-48.872727-52.363636v-236.218182c0-29.090909 22.109091-52.363636 48.872727-52.363637h48.872727v-131.490909H195.490909c-40.727273 0-73.309091-34.909091-73.309091-79.127272v-131.490909H48.872727c-26.763636 0-48.872727-23.272727-48.872727-52.363637v-236.218182C0-104.727273 22.109091-128 48.872727-128h219.927273c26.763636 0 48.872727 23.272727 48.872727 52.363636V160.581818c0 29.090909-22.109091 52.363636-48.872727 52.363637h-73.309091V344.436364h365.381818v-131.490909H512c-26.763636 0-48.872727-23.272727-48.872727-52.363637v-236.218182c0-29.090909 22.109091-52.363636 48.872727-52.363636h219.927273c26.763636 0 48.872727 23.272727 48.872727 52.363636V160.581818c0 29.090909-22.109091 52.363636-48.872727 52.363637h-73.309091V344.436364H1024v-131.490909h-48.872727c-26.763636 0-48.872727-23.272727-48.872728-52.363637v-236.218182c0-29.090909 22.109091-52.363636 48.872728-52.363636h219.927272c26.763636 0 48.872727 23.272727 48.872728 52.363636V160.581818c1.163636 29.090909-20.945455 52.363636-48.872728 52.363637z"  horiz-adv-x="1243" />

    
    <glyph glyph-name="jiahao" unicode="&#58899;" d="M511.376807 830.515566c-246.425436 0-446.895213-200.469777-446.895213-446.86656 0-246.425436 200.469777-446.895213 446.895213-446.895213s446.895213 200.469777 446.895213 446.895213C958.27202 630.045789 757.802242 830.515566 511.376807 830.515566L511.376807 830.515566zM511.376807-16.125003c-220.446761 0-399.780149 179.327248-399.780149 399.774009 0 220.418109 179.333388 399.750473 399.780149 399.750473s399.778102-179.331341 399.778102-399.750473C911.154909 163.202245 731.823568-16.125003 511.376807-16.125003L511.376807-16.125003zM679.933757 415.78696L543.198559 415.78696 543.198559 552.205956c0 13.004175-18.410302 23.558555-31.414477 23.558555-13.004175 0-31.40936-10.55438-31.40936-23.558555l0-136.418996L342.819856 415.78696c-13.004175 0-23.557532-18.410302-23.557532-31.414477 0-13.004175 10.553357-31.40936 23.557532-31.40936L480.374722 352.963123l0-137.89972c0-13.004175 18.405185-23.557532 31.40936-23.557532 13.004175 0 31.414477 10.553357 31.414477 23.557532L543.198559 352.963123l136.736221 0c13.004175 0 23.557532 18.405185 23.557532 31.40936C703.491289 397.376659 692.966585 415.78696 679.933757 415.78696L679.933757 415.78696zM679.933757 415.78696"  horiz-adv-x="1024" />

    
    <glyph glyph-name="jiahao1" unicode="&#58889;" d="M512.48906189 859.79976961c-262.46307386 0-475.36790332-213.06785008-475.36790331-474.87884141S250.02598802-89.95791322000002 512-89.95791322000002s474.87884142 213.06785008 474.87884142 474.87884142c0.48906189 261.97401198-212.41576756 474.87884142-474.38977953 474.87884141z m0-910.3067113c-239.96623925 0-435.42786988 195.62465128-435.42786988 435.42786989S272.03376075 820.51181999 512.48906189 820.51181999s435.42786988-195.62465128 435.4278699-435.42787118-195.46163066-435.59089053-435.4278699-435.5908905zM761.91049277 419.48128327v-73.68528532h-211.92670568v-212.41576631h-74.01132662V344.98089602000005h-211.92670563v74.01132661h211.43764375v211.92670569H549.4947252V419.48128327h212.41576757z"  horiz-adv-x="1024" />

    
    <glyph glyph-name="arrowdown" unicode="&#58891;" d="M512.133 271.01800000000003l-292.16 292.15500001c-12.27 12.28-32.186 12.28-44.45700001-1e-8-12.28099999-12.27-12.281-32.186 0-44.457l314.38800001-314.388c12.27-12.28 32.186-12.28 44.45699999 0l314.38700002 314.388c6.14 6.136 9.211 14.183 9.21099999 22.228s-3.071 16.092-9.211 22.228c-12.27 12.28-32.186 12.28-44.457 0l-292.159-292.15499999z"  horiz-adv-x="1024" />

    
    <glyph glyph-name="left" unicode="&#58892;" d="M773.08 383.966L304.002 831.569l-53.081-50.694 415.937-396.863L250.95-12.875l53.044-50.694L773.08 383.966z"  horiz-adv-x="1024" />

    
    <glyph glyph-name="yingyong2" unicode="&#58905;" d="M469.824 138.688A202.56 202.56 0 0 0 267.2-64a202.56 202.56 0 0 0-202.688 202.688 202.56 202.56 0 0 0 202.688 202.624H469.76v-202.624zM267.2 264.512a125.76 125.76 0 1 1 0-251.712c69.568 0 125.824 56.32 125.824 125.888V264.512H267.2z m288-125.824V341.312h202.624a202.56 202.56 0 0 0 202.688-202.624A202.56 202.56 0 0 0 757.824-64a202.56 202.56 0 0 0-202.624 202.688z m76.8 0a125.76 125.76 0 1 1 251.712 0c0 69.568-56.32 125.824-125.888 125.824H632v-125.824zM469.76 629.312v-202.624H267.2a202.56 202.56 0 0 0-202.688 202.624A202.56 202.56 0 0 0 267.2 832 202.56 202.56 0 0 0 469.76 629.312z m-76.8 0a125.76 125.76 0 1 1-251.712 0c0-69.568 56.32-125.824 125.888-125.824H392.96V629.312z m162.176 0A202.56 202.56 0 0 0 757.76 832a202.56 202.56 0 0 0 202.688-202.688 202.56 202.56 0 0 0-202.688-202.624H555.2V629.312z m76.8-125.824h125.824a125.76 125.76 0 1 1 0 251.712c-69.568 0-125.824-56.32-125.824-125.888v-125.824z"  horiz-adv-x="1024" />

    
    <glyph glyph-name="jianhao" unicode="&#58939;" d="M511.1-58c-119.2 0-231.3 46.2-315.6 130.1C111.2 156 64.8 267.6 64.8 386.4c0 118.7 46.5 230.4 130.7 314.3 84.3 83.9 196.4 130.1 315.6 130.1 119.2 0 231.3-46.2 315.5-130.1 84.4-83.9 130.8-195.5 130.8-314.2 0-118.8-46.4-230.4-130.8-314.3-84.2-84-196.3-130.2-315.5-130.2z m0 825c-102.2 0-198.3-39.6-270.6-111.5-72.2-71.9-112-167.4-112-269.1 0-101.6 39.8-197.2 112-269.1 72.2-71.9 168.3-111.5 270.6-111.5 102.2 0 198.3 39.6 270.6 111.5 72.2 71.9 112 167.4 112 269.1 0 101.6-39.8 197.2-112 269-72.2 72-168.4 111.6-270.6 111.6z m0 0M734.3 418.3H287.9c-17.6 0-31.9-14.3-31.9-31.9 0-17.6 14.3-31.9 31.9-31.9H734.3c17.6 0 31.9 14.3 31.9 31.9 0 17.6-14.3 31.9-31.9 31.9z"  horiz-adv-x="1024" />

    
    <glyph glyph-name="arrow_left" unicode="&#58893;" d="M399.39899999 383.754l292.15500001 292.16c12.27800001 12.27 12.27800001 32.18600001-1e-8 44.457-12.27 12.27800001-32.18600001 12.27800001-44.45699999 0l-314.38699999-314.389c-12.28099999-12.27-12.281-32.18600002 0-44.45700001l314.38799999-314.388c6.137-6.14000001 14.183-9.211 22.228-9.21099999s16.092 3.07100001 22.228 9.21099999c12.28099999 12.27 12.281 32.18600002 0 44.45700001l-292.157 292.16099999z"  horiz-adv-x="1024" />

    
    <glyph glyph-name="up-copy-copy" unicode="&#58894;" d="M512.15132445 511.98065778l-332.41315556-332.40746667c-13.96053333-13.97191111-36.62051555-13.97191111-50.58218667 0-13.97304887 13.96053333-13.97304889 36.62051555 0 50.58218667l357.70368 357.70368c13.96053333 13.97191111 36.62051555 13.97191111 50.58218667 0l357.70254222-357.70368c6.98595555-6.98140445 10.48007111-16.13710222 10.48007111-25.29052445s-3.49411555-18.30912-10.48007111-25.29052444c-13.96053333-13.97191111-36.62051555-13.97191111-50.58218666 0l-332.41201778 332.40746666z"  horiz-adv-x="1024" />

    
    <glyph glyph-name="jiankuohaoxia" unicode="&#58988;" d="M580.3 192.5l369.2 369.2c0.5 0.4 0.9 0.9 1.4 1.3 17.5 17.5 17.5 45.9 0 63.4s-45.9 17.5-63.4 0c-0.4-0.4-0.9-0.9-1.3-1.4L516.9 255.9 145.7 627.1c-17.5 17.5-45.9 17.5-63.4 0s-17.5-45.9 0-63.4l399.2-399.2c19.5-19.5 51.2-19.5 70.7 0l28.1 28z m-63.2-63.2"  horiz-adv-x="1024" />

    
    <glyph glyph-name="faxian1" unicode="&#58898;" d="M512.002047 822.861236c-217.165018 0-394.844743-177.679725-394.844743-394.844743 0-217.160925 177.679725-394.839627 394.844743-394.839627 217.160925 0 394.839627 177.679725 394.839627 394.839627C906.841673 645.182534 729.162972 822.861236 512.002047 822.861236L512.002047 822.861236zM706.954157 573.617615 590.968539 344.113571c-2.467191-4.936429-4.937452-7.402597-9.869788-9.868765l-236.906641-98.712209c-2.467191-2.467191-7.40362-2.467191-9.869788-2.467191-4.936429 0-12.340049 2.467191-17.276479 7.40362-7.402597 7.40362-7.402597 17.276479-4.936429 27.145244L423.161672 489.7106c2.467191 4.937452 4.933359 7.40362 9.869788 9.873882l241.84 103.645568c9.872858 4.936429 19.741623 2.467191 27.145244-4.936429C711.890586 595.82643 711.890586 583.488427 706.954157 573.617615L706.954157 573.617615zM706.954157 573.617615M462.642872 428.016493c0-12.919241 5.321192-25.759687 14.456247-34.898835 9.138124-9.135054 21.978571-14.455223 34.902928-14.455223 12.919241 0 25.759687 5.321192 34.898835 14.455223 9.135054 9.139148 14.455223 21.979594 14.455223 34.898835 0 12.924357-5.321192 25.76378-14.455223 34.902928-9.139148 9.135054-21.979594 14.456247-34.898835 14.456247-12.924357 0-25.76378-5.321192-34.902928-14.456247C467.964064 453.781296 462.642872 440.94085 462.642872 428.016493L462.642872 428.016493zM462.642872 428.016493"  horiz-adv-x="1024" />

    
    <glyph glyph-name="wodedangxuan" unicode="&#58886;" d="M907.264-70.65599999999995H114.688c-16.384 0-32.768 8.192-43.008 20.48-10.24 14.336-14.336 30.72-10.24 47.104 40.96 208.896 210.944 364.544 415.744 380.928 68.608 0 142.848-8.704 217.088-38.912 21.504-8.704 28.672-14.336 40.96-20.48 118.784-67.584 200.704-184.32 227.328-321.536 4.096-16.384 0-32.768-12.288-47.104-10.24-12.288-26.624-20.48-43.008-20.48zM115.712-37.375999999999976c-6.656 0-12.8 2.56-16.384 7.168-0.512 0.512-0.512 1.024-1.024 1.536-5.12 5.12-5.632 13.824-4.608 18.944 37.888 194.56 197.12 340.48 387.584 354.304h15.36c91.648 0 179.712-28.672 222.72-55.808C832 221.18399999999997 907.264 115.20000000000005 930.816-9.727999999999952c1.024-7.168-0.512-13.824-5.632-20.48-3.584-4.608-9.728-7.168-16.384-7.168H115.712zM496.64 332.288c89.088 0 174.592-27.648 216.064-53.76h0.512c109.568-65.024 182.272-167.936 204.8-289.792 0.512-2.56 0.512-6.144-3.584-10.752-0.512-1.024-3.072-2.048-6.144-2.048H115.712c-3.072 0-5.632 1.024-6.144 2.048-0.512 1.024-1.536 2.048-2.56 2.56-1.024 1.024-2.048 4.096-1.024 7.68 36.864 188.928 190.976 330.24 375.808 344.064 4.608-0.512 9.728 0 14.848 0m0 25.6c-5.12 0-10.752 0-15.872-0.512C284.16 343.03999999999996 120.32 193.53599999999994 81.408-7.168000000000006c-2.048-10.24 0-22.528 8.192-30.72 6.144-8.192 16.384-12.288 26.624-12.288H908.8c10.24 0 20.48 4.096 26.624 12.288 6.144 8.192 10.24 18.432 8.192 30.72-24.576 131.072-102.4 238.592-217.088 307.2-43.52 27.136-132.608 57.856-229.888 57.856zM512 359.424c-129.024 0-235.52 106.496-235.52 235.52S382.976 830.4639999999999 512 830.4639999999999s235.52-106.496 235.52-235.52S641.024 359.424 512 359.424zM512 392.704c-111.616 0-202.24 90.624-202.24 202.24S400.384 797.184 512 797.184s202.24-90.624 202.24-202.24-90.624-202.24-202.24-202.24zM512 784.384c104.448 0 189.44-84.992 189.44-189.44S616.448 405.504 512 405.504s-189.44 84.992-189.44 189.44 84.992 189.44 189.44 189.44m0 25.6c-118.784 0-215.04-96.256-215.04-215.04s96.256-215.04 215.04-215.04 215.04 96.256 215.04 215.04S630.784 809.984 512 809.984z"  horiz-adv-x="1024" />

    
    <glyph glyph-name="yingyong1" unicode="&#59224;" d="M486.692 157.32c0-114.043-92.449-206.49-206.491-206.49S73.709 43.276 73.709 157.32s92.45 206.491 206.492 206.491h206.49v-206.49z m45.888 0c0-114.043 92.448-206.49 206.49-206.49s206.492 92.447 206.492 206.49-92.449 206.491-206.491 206.491H532.58v-206.49z m-45.888 458.87c0 114.043-92.449 206.49-206.491 206.49S73.709 730.233 73.709 616.19s92.45-206.492 206.492-206.492h206.49V616.19z m45.888 0c0 114.043 92.448 206.49 206.49 206.49s206.492-92.448 206.492-206.49-92.449-206.492-206.491-206.492H532.58V616.19z"  horiz-adv-x="1024" />

    
    <glyph glyph-name="icon" unicode="&#58936;" d="M896.874159 111.081167c-3.189645 74.080206-40.153512 139.807163-95.823416 182.15055L801.050744 494.261243c0 116.117624-83.069951 213.794248-192.838983 236.871849l0 4.594645c0 52.971445-43.441395 96.305393-96.534614 96.305393l0 0c-53.093219 0-96.532567-43.334971-96.532567-96.305393l0-4.594645c-109.771079-23.077601-192.838983-120.754225-192.838983-236.871849L222.305597 293.231717c-55.67195-42.343387-92.637864-108.070344-95.825462-182.15055l95.825462 0 0-0.645706 578.74617 0 0 0.645706L896.874159 111.081167 896.874159 111.081167 896.874159 111.081167zM491.30926-63.568549l23.961738 0c62.814628 0 115.037013 47.376007 122.627898 108.070344L385.724527 44.501796c7.589862-60.695361 59.816341-108.070344 122.624828-108.070344L491.30926-63.568549 491.30926-63.568549zM491.30926-63.568549"  horiz-adv-x="1024" />

    
    <glyph glyph-name="yingyong" unicode="&#59116;" d="M425.408341 74.159392 425.408341 74.159392 425.408341 210.185438 289.382295 210.185438c-75.126025 0-136.026046-60.902068-136.026046-136.02707s60.900022-136.026046 136.026046-136.026046C364.507296-61.866654 425.408341-0.966633 425.408341 74.159392L425.408341 74.159392zM493.421364 74.159392c0-112.688525-91.351568-204.040093-204.03907-204.040093-112.688525 0-204.040093 91.351568-204.040093 204.040093S176.69377 278.199485 289.382295 278.199485l136.026046 0 68.013023 0 0-68.014046L493.421364 74.159392zM606.777085 74.159392 606.777085 210.185438l136.026046 0c75.125001 0 136.02707-60.902068 136.02707-136.02707s-60.902068-136.026046-136.02707-136.026046C667.679154-61.867678 606.777085-0.966633 606.777085 74.159392zM538.764062 74.159392c0-112.688525 91.351568-204.040093 204.040093-204.040093s204.040093 91.351568 204.040093 204.040093S855.491657 278.199485 742.804155 278.199485L606.778108 278.199485 538.764062 278.199485l0-68.014046L538.764062 74.159392zM425.408341 527.580229l0-136.026046L289.382295 391.554182c-75.126025 0-136.026046 60.901045-136.026046 136.026046 0 75.126025 60.900022 136.026046 136.026046 136.026046C364.507296 663.606275 425.408341 602.706253 425.408341 527.580229zM493.421364 527.580229c0 112.689548-91.351568 204.040093-204.03907 204.040093-112.688525 0-204.040093-91.350544-204.040093-204.040093 0-112.688525 91.351568-204.040093 204.040093-204.040093l136.026046 0 68.013023 0 0 68.013023L493.421364 527.580229zM606.777085 527.580229l0-136.026046 136.026046 0c75.125001 0 136.02707 60.901045 136.02707 136.026046 0 75.126025-60.902068 136.026046-136.02707 136.026046C667.679154 663.607298 606.777085 602.706253 606.777085 527.580229zM538.764062 527.580229 538.764062 527.580229c0 112.689548 91.351568 204.040093 204.040093 204.040093s204.040093-91.351568 204.040093-204.040093c0-112.687502-91.351568-204.040093-204.040093-204.040093L606.778108 323.540136 538.764062 323.540136l0 68.013023L538.764062 527.580229z"  horiz-adv-x="1024" />

    
    <glyph glyph-name="xiaoxi" unicode="&#58923;" d="M511.99 0.003h-85.336L192.004-128V106.65C75.031 188.764 0 306.612 0 448.012 0 695.42 229.231 896 511.99 896s511.989-200.58 511.989-447.988c0.021-247.45-229.21-448.01-511.99-448.01z m0 832.017c-247.408 0-448.031-171.929-448.031-384.008 0-130.136 76.524-250.544 192.046-319.985v-142.233l170.628 78.21h85.335c247.408 0 448.03 171.929 448.03 384.008 0.022 212.1-200.6 384.008-448.009 384.008z m256.026-448.01c-35.371 0-64.023 28.652-64.023 64.023s28.652 64.023 64.023 64.023c35.329 0 63.98-28.651 63.98-64.023s-28.651-64.022-63.98-64.022z m-256.027 0c-35.371 0-64.022 28.652-64.022 64.023s28.65 64.023 64.022 64.023c35.372 0 64.023-28.651 64.023-64.023s-28.651-64.022-64.023-64.022z m-256.005 0c-35.329 0-63.98 28.652-63.98 64.002s28.651 64.023 63.98 64.023c35.371 0 64.023-28.652 64.023-64.023s-28.673-64.001-64.023-64.001z"  horiz-adv-x="1024" />

    
    <glyph glyph-name="ban" unicode="&#58981;" d="M203.248485 216.953535c29.608081 3.361616 59.216162 6.981818 88.694949 10.860606V423.563636H211.264646v45.89899h80.678788V615.305051H205.058586v45.898989h217.212121v-45.898989h-84.945454v-145.842425h74.472727v-45.89899h-74.472727V234.020202c29.220202 4.137374 58.311111 8.662626 87.531313 13.317172-1.551515-15.644444-2.585859-31.418182-3.103031-47.191919-62.965657-9.567677-133.559596-20.686869-212.29899-33.486869l-6.20606 50.294949z m305.260606 480.323233h44.735353c0-100.20202-0.646465-192.129293-1.810101-276.169697-1.680808-141.058586-37.494949-248.371717-107.313131-322.068687-12.024242 12.282828-25.341414 23.272727-39.692929 32.840404 67.10303 64.517172 101.107071 162.00404 102.4 292.331313 1.034343 56.242424 1.680808 147.264646 1.680808 273.066667z m-79.385859-106.79596H470.626263c-0.517172-84.29899-3.620202-168.468687-9.309091-252.638384-13.834343 0.387879-27.668687 0.646465-41.632324 0.646465 5.559596 72.791919 8.533333 156.832323 9.438384 251.991919z m125.931313-410.892929h107.959596v217.212121h-84.428282v44.735354h84.428282V619.054545h-88.694949v44.735354h225.228283v-44.735354h-90.634344v-177.519191h86.884849v-44.735354h-86.884849v-217.212121h107.959596v-44.735354H555.054545v44.735354z"  horiz-adv-x="1024" />

    
    <glyph glyph-name="gonggao" unicode="&#58888;" d="M932.64047-51.575125a40.887933 40.887933 0 0 0-55.380909 17.023972 41.257932 41.257932 0 0 0 16.937972 55.664908c134.796779 71.991882 218.536641 211.467653 218.536641 363.985403a412.027324 412.027324 0 0 1-218.493641 363.985403 41.243932 41.243932 0 0 0-16.952972 55.649909 40.845933 40.845933 0 0 0 55.380909 17.038972A494.216189 494.216189 0 0 0 1194.65304 385.099158a494.273189 494.273189 0 0 0-262.01257-436.674283z m5.189991 589.775032A291.125522 291.125522 0 0 0 981.05339 385.099158c0-54.370911-14.947975-107.305824-43.206929-153.099749a283.986534 283.986534 0 0 0-112.681815-104.149829 40.703933 40.703933 0 0 0-18.473969-4.449992 40.916933 40.916933 0 0 0-36.56494 22.569963 41.243932 41.243932 0 0 0 18.01997 55.309909C856.608595 236.123403 899.146525 306.549287 899.146525 385.099158c0 78.533871-42.55293 148.975756-111.031818 183.819699a41.243932 41.243932 0 0 0-18.03397 55.309909 40.859933 40.859933 0 0 0 55.039909 18.11997 284.156534 284.156534 0 0 0 112.709815-104.149829z m-323.139469-662.563913a40.717933 40.717933 0 0 0-43.973928 6.755989c-0.539999 0.482999-53.929912 48.069921-113.434814 96.809841C353.28942 64.419684 322.229471 78.243662 316.269481 80.334658l-143.543764-0.142h-50.601917C54.78291 80.192658 0 135.317568 0 203.085457V564.936863c0 32.469947 9.129985 61.282899 26.424957 83.298863 20.052967 25.528958 49.662919 39.593935 83.397863 39.593936h180.093704c6.812989 2.261996 40.362934 16.469973 155.632745 101.787833A4886.316983 4886.316983 0 0 1 572.409061 887.052335a40.788933 40.788933 0 0 0 43.277929 4.863992 41.186932 41.186932 0 0 0 23.167962-37.061939v-941.685456a41.158932 41.158932 0 0 0-24.16296-37.532938z"  horiz-adv-x="1194" />

    
    <glyph glyph-name="faxian" unicode="&#58884;" d="M512-128C230.4-128 0 102.4 0 384S230.4 896 512 896s512-230.4 512-512-230.4-512-512-512z m0 921.6C286.72 793.6 102.4 609.28 102.4 384s184.32-409.6 409.6-409.6 409.6 184.32 409.6 409.6S737.28 793.6 512 793.6zM432.64 471.04l291.84 153.6c10.24 5.12 23.04 2.56 28.16-7.68 2.56-5.12 2.56-12.8 0-17.92l-153.6-291.84c-2.56-2.56-5.12-7.68-7.68-7.68l-291.84-153.6c-10.24-5.12-23.04-2.56-28.16 7.68-2.56 5.12-2.56 12.8 0 17.92l153.6 291.84 7.68 7.68z"  horiz-adv-x="1024" />

    
    <glyph glyph-name="xinxiduanxinxiaoxitixingyoujiansixinyouxiang" unicode="&#59536;" d="M968.96 665.457778a28.785778 28.785778 0 0 1-2.446222-1.422222l-92.216889-61.610667c-248.803556-167.907556-373.418667-251.733333-373.845333-251.448889L123.733333 607.800889 58.737778 651.804444v15.928889a56.888889 56.888889 0 0 0 56.888889 56.888889h796.444444a56.888889 56.888889 0 0 0 56.888889-56.888889v-2.275555z m0-68.209778v-498.403556a56.888889 56.888889 0 0 0-56.888889-56.888888h-796.444444a56.888889 56.888889 0 0 0-56.888889 56.888888V583.082667l32.995555-22.357334 376.689778-256.739555a58.595556 58.595556 0 0 1 65.792-0.227556l371.968 251.534222c2.673778 1.820444 23.694222 15.872 62.776889 41.955556z"  horiz-adv-x="1024" />

    
    <glyph glyph-name="qiandao" unicode="&#58902;" d="M927.154286 788.205714H808.422857v-80.834285a80.845714 80.845714 0 1 0-161.68 0V788.205714H377.268571v-80.834285a80.845714 80.845714 0 1 0-161.691428 0V788.205714H96.845714C73.12 788.205714 53.897143 767.52 53.897143 742.022857v-823.828571C53.897143-107.314286 73.142857-128 96.845714-128H927.154286c23.725714 0 42.948571 20.685714 42.948571 46.194286V742.011429c0 25.508571-19.245714 46.194286-42.948571 46.194285zM269.474286 14.857143l47.097143 159.348571 116.308571-114.365714z m174.48 57.142857L327.634286 186.457143l254.857143 250.514286 116.274285-114.365715z m301.885714 295.531429l-34.617143-34.034286-116.32 114.365714 34.617143 34.034286c12.468571 12.251429 31.851429 13.611429 44.32 1.36l72-70.788572c12.468571-12.251429 11.085714-31.314286-1.382857-43.577142zM296.422857 680.422857a26.937143 26.937143 0 0 1 27.005714 26.937143V869.051429a26.948571 26.948571 0 1 1-53.897142 0v-161.68a26.96 26.96 0 0 1 26.948571-26.948572z m431.154286 0a26.948571 26.948571 0 0 1 26.948571 26.948572V869.051429a26.948571 26.948571 0 0 1-53.897143 0v-161.68a26.948571 26.948571 0 0 1 26.948572-26.948572z"  horiz-adv-x="1024" />

    
    <glyph glyph-name="zanting" unicode="&#58979;" d="M327.383 769.527c-6.58 7.529-16.235 12.31-27.034 12.31-7.886 0-15.165-2.57-21.076-6.863-1.726-1.215-3.368-2.545-4.902-4.092-8.86-8.872-10.111-19.585-9.965-32.682v-704.345c-0.47-10.703 1.105-23.801 9.965-32.685 14.143-14.213 37.097-14.213 51.24 0l466.7 358.578c7.232 7.244 10.751 16.782 10.608 26.286 0.143 9.502-3.377 19.042-10.608 26.286L327.382 769.529z"  horiz-adv-x="1024" />

    
    <glyph glyph-name="delete" unicode="&#58880;" d="M382.320274 490.642286v-384a20.626286 20.626286 0 0 0-21.577143-21.284572H317.44256a20.626286 20.626286 0 0 0-21.577143 21.357715v384a20.626286 20.626286 0 0 0 21.577143 21.284571h43.154286a20.626286 20.626286 0 0 0 21.577143-21.357714h0.073142z m172.909715 0v-384a20.626286 20.626286 0 0 0-21.650286-21.284572h-43.154286a20.626286 20.626286 0 0 0-21.577143 21.357715v384a20.626286 20.626286 0 0 0 21.577143 21.284571h43.154286a20.626286 20.626286 0 0 0 21.577143-21.357714z m172.909714 0v-384a20.626286 20.626286 0 0 0-21.650286-21.284572h-43.154286a20.626286 20.626286 0 0 0-21.577142 21.357715l-0.073143 384a20.626286 20.626286 0 0 0 21.577143 21.284571h43.227428a20.626286 20.626286 0 0 0 21.577143-21.357714z m86.381714-482.669715V640H209.483703v-631.954286a74.825143 74.825143 0 0 1 14.482286-45.056c3.364571-3.803429 5.778286-5.632 7.094857-5.632h561.883428c1.316571 0 3.657143 1.828571 7.094857 5.632a74.825143 74.825143 0 0 1 14.555429 44.982857zM360.743131 725.357714h302.518858l-32.402286 77.970286a19.017143 19.017143 0 0 1-11.483429 7.314286H405.287131a19.017143 19.017143 0 0 1-11.483428-7.314286l-33.060572-77.970286zM987.431131 704v-42.642286a20.626286 20.626286 0 0 0-21.577142-21.357714h-64.877715v-631.954286c0-36.937143-10.532571-68.754286-31.744-95.744-21.211429-26.843429-46.592-40.301714-76.288-40.301714H231.060846c-29.696 0-55.149714 13.019429-76.288 38.985143-21.211429 26.038857-31.744 57.490286-31.744 94.354286V640H58.151131A20.626286 20.626286 0 0 0 36.573989 661.357714v42.642286a20.626286 20.626286 0 0 0 21.577142 21.357714h208.676572L314.151131 836.681143c6.729143 16.457143 18.870857 30.427429 36.425143 41.984 17.554286 11.556571 35.401143 17.334857 53.394286 17.334857h216.064c17.993143 0 35.84-5.778286 53.394286-17.334857 17.554286-11.556571 29.696-25.6 36.425143-41.984l47.323428-111.323429h208.676572a20.626286 20.626286 0 0 0 21.577142-21.357714z"  horiz-adv-x="1024" />

    
    <glyph glyph-name="icon-" unicode="&#58934;" d="M512 736a96 96 0 0 0 96-96v-256a96 96 0 0 0-192 0V640a96 96 0 0 0 96 96m0 64a160 160 0 0 1-160-160v-256a160 160 0 0 1 160-160 160 160 0 0 1 160 160V640A160 160 0 0 1 512 800zM512 96a272 272 0 0 0-272 272v48h64v-48a208 208 0 0 1 416 0v48h64v-48a272 272 0 0 0-272-272zM480 128h64v-160h-64z"  horiz-adv-x="1024" />

    
    <glyph glyph-name="renwu" unicode="&#59026;" d="M366.61248 682.83904h290.66752c20.0192 0 36.33152 16.32256 36.33152 36.34176V791.83872h-108.98944v13.35808c0 12.59008-10.38848 22.97344-22.9888 22.97344H462.26432c-12.60032 0-22.97856-10.38336-22.97856-22.97344v-13.35808h-109.0048v-72.65792c-0.01024-20.02432 16.41984-36.34176 36.33152-36.34176zM815.74912 791.83872h-49.57184V664.7296c0-29.97248-24.6016-54.54848-54.55872-54.54848H312.27392c-29.9776 0-54.54848 24.58112-54.54848 54.54848V791.83872h-49.58208c-39.94112 0-72.56064-32.61952-72.56064-72.56064v-706.89792c0-39.93088 32.61952-72.56064 72.56064-72.56064h607.7184c39.94112 0 72.56064 32.62976 72.56064 72.56064V719.27808c-0.1024 39.94112-32.73216 72.56064-72.67328 72.56064z m-84.224-416.14848l-245.49888-245.49376a42.496 42.496 0 0 0-60.34432 0l-133.31968 133.31456c-8.25344 8.25344-12.37504 19.59936-12.37504 30.43328 0 10.82368 4.38272 21.9136 12.37504 30.42304a42.48576 42.48576 0 0 0 60.3392 0l102.89152-102.89152 215.07072 215.0656a42.48064 42.48064 0 0 0 60.33408 0 42.65984 42.65984 0 0 0 0.52736-60.8512z"  horiz-adv-x="1024" />

    
    <glyph glyph-name="wenzhang" unicode="&#58883;" d="M828.3 796.6c22.8 0 41.3-18.5 41.3-41.3v-742.6c0-22.8-18.5-41.3-41.3-41.3-5.8 0-11.5 1.2-16.8 3.6L534.3 98.2c-14.2 6.3-30.5 6.3-44.7 0L212.4-25c-20.8-9.3-45.2 0.1-54.5 21-2.3 5.3-3.6 11-3.6 16.8V755.3c0 22.8 18.5 41.3 41.3 41.3h632.7zM622 411.2H402c-15.2 0-27.5-12.3-27.5-27.5s12.3-27.5 27.5-27.5h220c15.2 0 27.5 12.3 27.5 27.5s-12.3 27.5-27.5 27.5z m55 137.7H347c-15.2 0-27.5-12.3-27.5-27.5 0-14.1 10.6-25.8 24.3-27.3l3.2-0.2h330c15.2 0 27.5 12.3 27.5 27.5 0 15.1-12.3 27.5-27.5 27.5z"  horiz-adv-x="1024" />

    
    <glyph glyph-name="ban1" unicode="&#59015;" d="M557.824 115.626667h145.066667V407.296H589.397333v60.074667h113.322667V705.706667H583.68v59.989333h302.506667v-59.989333H764.501333v-238.336h116.650667v-60.074667H764.586667v-291.669333h145.066666v-59.989334H557.738667v59.989334zM85.333333 165.632c39.168 4.437333 78.848 9.386667 119.125334 14.592V443.136H96.170667v61.696h108.373333V700.672H87.722667v61.696h291.669333v-61.696H265.386667v-195.84h100.010666v-61.696H265.386667V188.586667c38.656 5.546667 77.824 11.52 117.504 17.92-2.218667-22.186667-3.584-43.349333-4.096-63.317334-84.48-12.8-179.456-27.818667-285.013334-45.056L85.333333 165.632zM495.36 810.666667h59.989333c0-134.485333-0.853333-258.048-2.56-370.858667-2.218667-189.44-50.261333-333.653333-144.128-432.469333a341.504 341.504 0 0 1-53.333333 44.202666c90.026667 86.613333 135.850667 217.429333 137.472 392.533334 1.706667 75.52 2.56 197.717333 2.56 366.592z m-106.666667-143.36h55.808a5428.650667 5428.650667 0 0 0-12.458666-339.114667c-19.456 0.512-38.058667 0.853333-55.893334 0.853333 7.253333 97.706667 11.434667 210.517333 12.544 338.261334z"  horiz-adv-x="1024" />

    
    <glyph glyph-name="qingjia" unicode="&#58881;" d="M371.2 162.1c0 35.7 5.1 69.6 15.2 100.2 10.2 32.3 25.5 61.1 44.2 88.2 18.7 27.2 40.8 50.9 66.3 71.2 25.5 20.3 54.3 37.3 84.8 49.3 1.7 5.1 3.4 10.2 6.7 17l5.1 13.6c0 3.4 1.7 8.5 3.4 11.9 6.7 1.8 11.9 5.1 17 10.2 5.1 3.4 8.5 10.2 13.6 17 3.4 6.7 6.7 18.7 6.7 30.6V595c-1.7 6.7-3.4 11.9-6.7 17-3.4 5.1-6.7 8.5-10.2 11.9 0 25.5-1.7 49.2-5.1 73-3.4 20.3-8.5 42.4-15.2 66.3-6.7 23.8-18.7 44.2-33.9 62.8-6.7 8.5-17 17-27.2 25.5-11.9 8.5-25.5 15.2-39.1 22.1-15.2 6.7-30.6 11.9-47.5 15.2-17 3.4-33.9 6.7-50.9 6.7-13.6 0-27.2-1.7-42.4-3.4-15.2-1.8-30.6-6.7-44.2-11.9-15.2-6.7-30.6-15.2-44.2-25.5C254 844.6 240.4 831 228.6 814c-11.9-17-22.1-37.3-27.2-59.4-6.7-22.1-10.1-42.4-13.5-62.9-1.7-23.8-3.4-45.8-3.4-67.9-5.1-6.7-8.5-11.9-11.9-18.7-3.4-6.7-5.1-13.6-5.1-22.1 0-8.5 0-17 3.4-27.2s6.7-18.7 10.2-23.7c3.4-5.1 8.5-10.2 11.9-13.6 5.1-3.4 8.5-5.1 13.6-6.7 3.4-10.2 6.7-18.7 8.5-27.2 3.4-8.5 6.7-15.2 10.2-23.7 3.4-6.7 8.5-13.6 13.6-17 10.2-8.5 20.3-17 27.2-25.5 8.5-8.5 13.6-20.3 13.6-32.3v-25.5c0-6.7-1.7-15.2-5.1-22.1-3.4-6.7-8.5-15.2-15.2-22.1-6.7-6.7-17-15.2-28.8-23.8-10.2-6.7-22.1-11.9-35.7-17-13.6-5.1-27.2-8.5-40.8-13.6-13.6-3.4-27.2-8.5-40.7-11.9-13.6-5.1-25.5-10.2-35.7-17-10.2-6.7-20.3-15.2-27.2-25.5-6.7-10.2-11.9-22.1-15.2-35.7-6.7-39-6.7-71.2-3.4-95.1 3.4-25.5 8.5-39.1 15.2-44.2 3.4-3.4 13.6-6.7 27.2-8.5 13.6-3.4 30.6-6.7 50.9-8.5 20.3-3.4 42.4-6.7 66.2-8.5 23.7-3.4 49.3-5.1 73-6.7 23.8-1.6 47.5-3.2 71.2-5.1 23.8-1.7 44.2-1.7 61.1-1.7h23.7c-13.6 25.5-25.5 52.7-33.9 79.7-11.9 27.8-15.3 58.3-15.3 88.8z m0 0M801.9 58l-8.2-8.2c-7-7-18.6-7.2-25.8-0.8l-95.2 82c-7.2 6.5-12.9 19.8-12.3 29.6l10 157.3c0.4 9.7 8.9 17.7 18.6 17.7h11.7c9.7 0 18.1-8 18.6-17.7l8.1-128.8c0.5-9.7 6.2-23.7 12.7-30.9l62.6-74.2c6.4-7.5 6.1-19.1-0.8-26z m-92.8 384.2c-157 0-284.3-127.3-284.3-284.5 0-157.1 127.4-284.5 284.3-284.5 157.1 0 284.5 127.3 284.5 284.5S866.2 442.2 709.1 442.2z m0 0"  horiz-adv-x="1024" />

    
    <glyph glyph-name="tupian" unicode="&#59614;" d="M219.431 530.283c0-40.396 32.744-73.141 73.141-73.141 40.396 0 73.141 32.746 73.141 73.141 0 40.397-32.746 73.141-73.141 73.141-40.397 0-73.141-32.744-73.141-73.141z m0 0M889.926-54.855H134.068C60.161-54.855 0 5.301 0 79.212V688.787C0 762.694 60.161 822.855 134.068 822.855h755.857c73.913 0 134.074-60.161 134.074-134.068v-609.575c0.001-73.911-60.16-134.067-134.073-134.067zM134.068 749.714c-33.571 0-60.927-27.356-60.927-60.927v-609.575c0-33.61 27.356-60.926 60.927-60.926h755.857c33.611 0 60.933 27.316 60.933 60.926V688.787c0 33.571-27.321 60.927-60.933 60.927H134.068z m0 0M182.857 90.295a36.32 36.32 0 0 0-10.86 1.68c-19.274 5.999-30.061 26.446-24.067 45.714 2.706 8.706 68.756 213.543 209.335 209.883 40.011-0.988 73.51-11.077 105.91-20.843 41.617-12.506 77.606-23.299 125.296-15.691 23.37 3.766 33.024 27.249 49.52 79.983 21.757 69.52 54.637 174.553 199.603 174.553 20.224 0 36.574-16.383 36.574-36.567 0-20.19-16.35-36.574-36.574-36.574-86.818 0-105.908-46.847-129.826-123.281-16.569-53.03-37.266-119.04-107.74-130.301-64.331-10.24-114.03 4.716-157.953 17.847-29.04 8.739-56.501 17.003-86.713 17.734-0.547 0.039-1.094 0.039-1.646 0.039-70.871 0-122.148-114.141-136.006-158.466-4.825-15.655-19.273-25.71-34.853-25.71z m0 0"  horiz-adv-x="1024" />

    
    <glyph glyph-name="w_yunduan" unicode="&#59010;" d="M1017.216 285.696c-4.096 103.296-87.04 188.416-190.336 194.816-93.056 5.888-173.696-50.816-203.904-132.096a14.528 14.528 0 0 0-27.136 10.368c32.256 86.144 113.92 147.968 210.56 150.912-28.544 115.2-132.48 200.704-256.512 200.704-124.16 0-228.352-85.632-256.64-201.088-4.992 0.384-9.984 0.64-15.104 0.64-120.448 0-218.112-97.664-218.112-218.112 0-116.096 90.752-211.072 205.184-217.728v-0.384h557.184v0.256c111.232 4.608 199.296 98.432 194.816 211.712z"  horiz-adv-x="1024" />

    
    <glyph glyph-name="sself" unicode="&#58882;" d="M1016.83-48.12800000000004c0-21.504-17.408-38.912-38.912-38.912-21.504 0-38.912 17.408-38.912 38.912v20.992c0 97.28-198.144 235.008-425.472 235.008-180.736 0-428.544-115.712-428.544-230.912v-25.088c0-21.504-17.408-38.912-38.912-38.912s-38.912 17.408-38.912 38.912v48.64c0 58.368 86.528 207.872 322.56 263.168-84.992 58.368-141.312 156.16-141.312 267.264 0 178.688 144.896 323.584 323.584 323.584 178.688 0 323.584-144.896 323.584-323.584 0-109.056-54.272-205.312-137.216-264.192 238.592-53.248 318.464-210.432 318.464-266.24v-48.64ZM757.76 531.456c0 135.68-110.08 245.76-245.76 245.76s-245.76-110.08-245.76-245.76 110.08-245.76 245.76-245.76 245.76 110.08 245.76 245.76Z"  horiz-adv-x="1024" />

    
    <glyph glyph-name="zuoye" unicode="&#59080;" d="M60.006 896c66.228 0 125.098-7.474 191.326-22.424 66.228-22.422 125.1-44.846 183.968-82.22 44.154-29.896 103.024-29.896 154.534 0 58.87 37.374 117.74 67.272 176.61 82.22C825.314 888.526 891.544 896 957.772 896 994.566 896 1024 858.628 1024 821.256v-747.446c0-44.846-29.434-74.744-73.588-74.744-58.87 0-117.74-7.474-176.61-22.424-58.87-14.948-125.098-44.846-183.968-82.22-51.51-29.896-110.38-29.896-154.534 0-58.87 37.374-117.74 67.272-176.608 82.22-58.87 14.95-117.74 22.424-183.97 22.424-44.152 0-73.586 29.898-73.586 74.744V821.256C-6.224 858.628 23.212 896 60.006 896z m448.882-254.132c-29.434 0-51.51-22.422-51.51-52.32v-418.57c0-29.898 22.076-52.32 51.51-52.32 29.436 0 51.512 22.422 51.512 52.32V589.548c0 29.898-22.076 52.32-51.512 52.32z"  horiz-adv-x="1024" />

    
    <glyph glyph-name="wenjianjia" unicode="&#59022;" d="M1034.778947-7.814737c0-39.235368-31.797895-70.979368-70.925473-70.979368H76.853895L201.027368 495.023158c0 39.127579 31.582316 70.979368 70.871579 70.979368H1088.134737c39.127579 0 70.871579-31.797895 70.871579-70.979368L1034.778947-7.814737zM218.704842 619.250526H1016.993684V688.990316c0 39.127579-31.797895 70.979368-70.979368 70.979368H520.353684V824.266105c0 39.127579-31.797895 70.979368-70.979368 70.979369H94.639158C55.511579 895.245474 23.713684 863.447579 23.713684 824.266105v-831.919158L147.725474 548.378947c0 39.019789 31.797895 70.871579 70.979368 70.871579z"  horiz-adv-x="1185" />

    
    <glyph glyph-name="bianji-copy" unicode="&#58885;" d="M348.312 228.97199999999998c18.082-18.081 46.632-18.081 63.762 0L909.8 726.697c18.082 18.082 18.082 46.632 0 64.714s-46.632 18.082-63.762 0L348.312 293.68600000000004c-18.082-18.082-18.082-46.632 0-64.714zM899.33 452.616c-24.743 0-45.68-19.986-45.68-45.68v-364.491h-683.3v683.3h364.49c24.744 0 44.729 19.986 45.68 45.681 0 24.744-19.985 45.68-44.728 45.68H124.669c-24.743 0-45.68-19.985-45.68-45.68v-774.662c0-12.371 4.758-23.792 13.323-32.357 8.565-8.565 19.985-13.323 32.357-13.323h774.662c12.372 0 23.792 4.758 32.357 13.323 8.565 8.565 13.323 19.986 13.323 32.357V406.935c0 25.695-20.937 45.68-45.68 45.68z"  horiz-adv-x="1024" />

    


  </font>
</defs>
</svg>
